<?xml version="1.0" standalone="no"?>
<!DOCTYPE svg PUBLIC "-//W3C//DTD SVG 1.1//EN" "http://www.w3.org/Graphics/SVG/1.1/DTD/svg11.dtd" >
<svg xmlns="http://www.w3.org/2000/svg">
<metadata></metadata>
<defs>
<font id="heliosregular" horiz-adv-x="1150" >
<font-face units-per-em="2048" ascent="1638" descent="-410" />
<missing-glyph horiz-adv-x="573" />
<glyph horiz-adv-x="2048" />
<glyph horiz-adv-x="2048" />
<glyph unicode="&#xd;" horiz-adv-x="573" />
<glyph unicode=" "  horiz-adv-x="573" />
<glyph unicode="&#x09;" horiz-adv-x="573" />
<glyph unicode="&#xa0;" horiz-adv-x="573" />
<glyph unicode="!" horiz-adv-x="573" d="M186 0v211h199v-211h-199zM186 995v492h199v-492l-49 -641h-100z" />
<glyph unicode="&#x22;" horiz-adv-x="735" d="M145 958v527h152v-527h-152zM438 958v527h152v-527h-152z" />
<glyph unicode="#" d="M59 434l19 129h213l39 295h-213l18 129h213l60 434h139l-60 -434h256l60 434h139l-61 -434h215l-21 -129h-213l-41 -295h213l-18 -129h-213l-60 -434h-137l60 434h-258l-60 -434h-137l61 434h-213zM426 563h260l39 295h-258z" />
<glyph unicode="$" d="M68 440h180q4 -84 19.5 -140t46 -95t81.5 -60.5t129 -33.5v548q-80 18 -156.5 44t-137 71t-97.5 114.5t-37 178.5q0 84 33 157.5t89 128t135 86t171 31.5v132h97v-132q49 -4 118.5 -19t135 -56t113.5 -117t52 -201h-176q-6 41 -17 79t-38 69.5t-72 56.5t-116 37v-494 q109 -31 193.5 -62.5t143 -77.5t88 -112.5t29.5 -166.5q0 -133 -47 -218.5t-116.5 -136.5t-148.5 -70.5t-142 -19.5v-199h-97v199q-96 6 -179 30.5t-144.5 80t-97 144.5t-35.5 224zM279 1079q0 -55 20 -96t55 -68.5t79 -44t91 -24.5v473q-59 0 -105 -19.5t-77 -52.5t-47 -77 t-16 -91zM621 111q70 0 121 21.5t84.5 58t51 84t17.5 96.5q0 88 -48 148.5t-114 82.5l-112 35v-526z" />
<glyph unicode="%" horiz-adv-x="1837" d="M80 1087q0 74 27.5 137.5t75.5 111.5t112.5 75t138.5 27q72 0 135.5 -28t111.5 -75t75.5 -110.5t27.5 -137.5t-27.5 -138t-74.5 -112.5t-110.5 -76t-137.5 -27.5t-138.5 27.5t-112.5 75t-75.5 112.5t-27.5 139zM225 1087q0 -98 61.5 -153t145.5 -55q45 0 83 16t65.5 45 t44 66.5t16.5 80.5t-16.5 80t-45 65t-65.5 44t-80 16q-45 0 -83 -16t-65.5 -44t-44 -66t-16.5 -79zM453 -41l817 1495h112l-819 -1495h-110zM1053 338q0 74 27.5 137.5t75.5 111.5t112.5 74.5t138.5 26.5q72 0 135.5 -27.5t111.5 -74.5t75.5 -110.5t27.5 -137.5 t-27.5 -138.5t-74.5 -112.5t-110.5 -75.5t-137.5 -27.5t-138.5 27.5t-112.5 74.5t-75.5 112.5t-27.5 139.5zM1198 338q0 -98 61.5 -153.5t145.5 -55.5q45 0 83 16.5t65.5 45t44 66.5t16.5 81t-16.5 80t-45 64.5t-65.5 44t-80 16.5q-45 0 -83 -16.5t-65.5 -44t-44 -65.5 t-16.5 -79z" />
<glyph unicode="&#x26;" horiz-adv-x="1378" d="M90 358q0 76 13.5 137.5t50 115t102.5 105.5t170 109q-41 49 -70.5 89t-49 77t-29 76t-9.5 88q0 63 22.5 123.5t67.5 107t111 74t152 27.5q88 0 150.5 -26.5t102 -70.5t59 -99.5t19.5 -110.5q0 -78 -26.5 -138.5t-66.5 -106.5t-86 -81t-87 -63l270 -322q12 33 20.5 58.5 t14.5 50t12.5 53t12.5 69.5h172q-6 -78 -34 -175t-85 -203l264 -322h-235l-140 170q-37 -43 -78.5 -80t-93 -63.5t-115 -42t-145.5 -15.5q-139 0 -224 45t-132 107.5t-63.5 128t-16.5 108.5zM272 373q0 -70 30 -117t73 -75.5t88 -41t76 -12.5q201 0 323 166l-336 409 q-59 -39 -106 -72.5t-80 -70.5t-50.5 -82t-17.5 -104zM444 1167q0 -37 15.5 -73.5t37 -70.5t47.5 -64t46 -50q31 20 63.5 45t60 56.5t45 69.5t17.5 85q0 49 -16.5 81t-40 50.5t-51 25.5t-50.5 7q-57 0 -91.5 -18.5t-53 -44t-24 -53t-5.5 -46.5z" />
<glyph unicode="'" horiz-adv-x="395" d="M123 958v527h149v-527h-149z" />
<glyph unicode="(" horiz-adv-x="688" d="M141 541q0 137 22.5 262t67.5 243.5t111 234.5t150 237h124q-66 -125 -118 -230.5t-87.5 -221.5t-55 -252t-19.5 -322q0 -129 20.5 -243t58.5 -223.5t90 -220t113 -233.5h-120q-80 121 -146.5 233.5t-112.5 227t-72 238.5t-26 270z" />
<glyph unicode=")" horiz-adv-x="688" d="M70 1518h120q80 -121 146.5 -234t113 -227.5t72 -238.5t25.5 -269q0 -137 -23.5 -262t-67.5 -244t-109.5 -235.5t-149.5 -235.5h-125q66 125 118 230.5t87.5 221t55 252t19.5 322.5q0 129 -20.5 242.5t-58 223.5t-90 220.5t-113.5 233.5z" />
<glyph unicode="*" horiz-adv-x="804" d="M80 1223l43 114l217 -80v228h123v-228l217 80l43 -114l-225 -70l139 -190l-100 -70l-136 194l-135 -194l-100 70l139 190z" />
<glyph unicode="+" horiz-adv-x="1208" d="M80 449v149h450v449h150v-449h448v-149h-448v-449h-150v449h-450z" />
<glyph unicode="," horiz-adv-x="573" d="M178 0v219h217v-203q0 -104 -27.5 -166.5t-64.5 -95.5t-72.5 -44t-52.5 -13v94q33 2 54.5 22.5t34 49t17.5 64.5t5 73h-111z" />
<glyph unicode="-" horiz-adv-x="690" d="M92 449v149h506v-149h-506z" />
<glyph unicode="." horiz-adv-x="573" d="M178 0v219h217v-219h-217z" />
<glyph unicode="/" horiz-adv-x="573" d="M-37 -39l510 1565h137l-508 -1565h-139z" />
<glyph unicode="0" d="M78 709q0 76 8 159.5t28.5 167.5t55.5 160t90 133t133 92t182 35q156 0 254.5 -74.5t151.5 -186.5t72.5 -242.5t19.5 -243.5t-19.5 -244t-72.5 -242.5t-151.5 -186.5t-254.5 -75q-104 0 -182 35t-133 92t-90 133t-55.5 160t-28.5 168t-8 160zM272 709q0 -137 18.5 -246 t55.5 -183.5t94.5 -114.5t134.5 -40q156 0 230 155t74 429q0 137 -18.5 244.5t-55.5 183t-94.5 115.5t-135.5 40t-135 -40t-94 -115.5t-55.5 -183t-18.5 -244.5z" />
<glyph unicode="1" d="M209 1032v146q88 6 151.5 16t109.5 39t77 81t53 142h141v-1456h-194v1032h-338z" />
<glyph unicode="2" d="M55 0q6 115 28.5 205t77 167t146.5 147.5t238 146.5q70 37 127 70.5t98 75.5t62.5 93t21.5 123q0 43 -15.5 90t-49 86t-88 63.5t-134.5 24.5q-102 0 -160.5 -42t-87 -99t-36 -118.5t-9.5 -98.5h-182q0 178 56.5 281.5t135 156.5t165 68.5t145.5 15.5q94 0 177 -29.5 t144.5 -86t97.5 -137.5t36 -183q0 -98 -30 -169t-92.5 -132.5t-159.5 -120.5t-230 -131q-74 -41 -125.5 -84t-84 -83t-49 -73.5t-18.5 -54.5h789v-172h-994z" />
<glyph unicode="3" d="M72 446h186q2 -51 13.5 -107t43 -104.5t92 -79t162.5 -30.5q70 0 128.5 20.5t100.5 57.5t65.5 89t23.5 116q0 84 -30 136t-85 80.5t-134 39t-175 10.5v151q70 0 136.5 5.5t118.5 28t85 70.5t33 134q0 33 -11.5 73t-41 74.5t-82 58t-134.5 23.5q-86 0 -140 -28.5 t-85 -74.5t-43 -101.5t-14 -108.5h-179q0 80 19.5 165t72 153.5t143.5 113.5t234 45q104 0 188.5 -28.5t142 -80t88 -122t30.5 -152.5q0 -70 -17.5 -122t-45 -89t-60.5 -59.5t-63 -30.5v-4q106 -35 173.5 -114t67.5 -224q0 -90 -29.5 -174t-92 -149.5t-162 -105.5 t-238.5 -40q-117 0 -207 36t-152.5 99.5t-94 152.5t-31.5 197z" />
<glyph unicode="4" d="M53 354v178l666 924h149v-944h213v-158h-213v-354h-180v354h-635zM219 512h469v659h-4z" />
<glyph unicode="5" d="M68 360h188q14 -127 99 -184t208 -57q70 0 127.5 26.5t96 71.5t60 105.5t21.5 128.5q0 78 -24.5 138t-68.5 101t-102.5 61.5t-125.5 20.5q-80 0 -148.5 -36t-119.5 -101l-158 8l108 780h754v-178h-616l-62 -399q47 35 114.5 62.5t166.5 27.5q88 0 174 -31t153.5 -90 t108.5 -145t41 -199q0 -41 -7 -94t-27.5 -109.5t-57.5 -112t-95.5 -98.5t-142.5 -69.5t-196 -26.5q-72 0 -149 16.5t-144.5 61.5t-115.5 123t-60 198z" />
<glyph unicode="6" d="M80 678q0 119 22.5 255t83 253t164 193.5t266.5 76.5q63 0 135 -19.5t133.5 -63.5t105.5 -118.5t50 -185.5h-178q-8 47 -26.5 88t-48 70.5t-72.5 47t-103 17.5q-106 0 -173.5 -62.5t-105.5 -149.5t-51.5 -178t-13.5 -148l4 -4q16 31 45 61.5t70 57t98.5 43t130.5 16.5 q68 0 147 -23.5t147.5 -77t114.5 -141.5t46 -219q0 -100 -31.5 -192.5t-94 -162t-158 -110.5t-222.5 -41t-219 56.5t-151.5 153.5t-87 227t-27.5 280zM293 449q0 -59 17.5 -117t55 -104t95 -74.5t137.5 -28.5q66 0 118 24.5t89 68.5t57.5 105.5t20.5 135.5q0 47 -14.5 101 t-48.5 99.5t-90 75t-140 29.5q-76 0 -131.5 -25.5t-92 -68.5t-55 -100.5t-18.5 -120.5z" />
<glyph unicode="7" d="M78 1245v178h1003v-159q-53 -57 -138 -170t-174 -275t-167 -368.5t-117 -450.5h-200q18 150 73.5 316.5t136 332.5t179 319.5t203.5 276.5h-799z" />
<glyph unicode="8" d="M80 420q0 133 64.5 219t181.5 133q-94 37 -145.5 108.5t-51.5 176.5q0 55 19.5 124.5t69.5 131t135 102.5t216 41q121 0 206 -35t139.5 -89t79 -121t24.5 -130q0 -78 -19.5 -131t-49 -88t-61.5 -55.5t-57 -32.5q74 -31 120 -75t73 -92t36 -96t9 -89q0 -88 -28.5 -171 t-88 -147.5t-152.5 -103.5t-222 -39q-98 0 -187.5 26.5t-159 83t-110.5 143.5t-41 206zM274 416q0 -43 13.5 -94.5t47.5 -95.5t94 -72.5t155 -28.5q49 0 101 11t94 41t68.5 84t26.5 140q0 74 -23.5 127.5t-64.5 88t-96.5 51t-116.5 16.5q-78 0 -134 -23.5t-93 -61.5 t-54.5 -86t-17.5 -97zM317 1065q0 -53 20.5 -94t56.5 -70t82 -44t95 -15q119 0 188.5 66.5t69.5 166.5q0 33 -12 71t-43 70.5t-83 54t-132 21.5q-74 0 -120 -22.5t-73.5 -56t-38 -73.5t-10.5 -75z" />
<glyph unicode="9" d="M88 956q0 98 29.5 189.5t88 160t146.5 109.5t203 41t198 -33.5t139 -89t90 -127t52.5 -146.5t23.5 -147.5t5 -132.5q0 -39 -4 -114.5t-21.5 -165.5t-50.5 -186.5t-91 -174.5t-146 -128t-213 -50q-129 0 -212 41t-132.5 101.5t-69 127t-19.5 119.5h183q8 -111 70.5 -174 t174.5 -63q150 0 232 131t117 413l-4 5q-20 -43 -56.5 -75t-80.5 -54.5t-95 -34t-100 -11.5q-100 0 -184.5 33t-144.5 93.5t-94 147.5t-34 195zM276 965q0 -104 29 -167t73 -94.5t95 -42t98 -10.5q35 0 83 11.5t91 46t74 99t31 173.5q0 61 -16.5 117.5t-52.5 99.5t-91 68.5 t-133 25.5q-129 0 -205 -90t-76 -237z" />
<glyph unicode=":" horiz-adv-x="573" d="M178 0v219h217v-219h-217zM178 850v219h217v-219h-217z" />
<glyph unicode=";" horiz-adv-x="573" d="M178 0v219h217v-203q0 -104 -27.5 -166.5t-64.5 -95.5t-72.5 -44t-52.5 -13v94q33 2 54.5 22.5t34 49t17.5 64.5t5 73h-111zM178 848v219h217v-219h-217z" />
<glyph unicode="&#x3c;" horiz-adv-x="1208" d="M100 453v143l1008 428v-164l-805 -336l805 -336v-163z" />
<glyph unicode="=" horiz-adv-x="1208" d="M80 240v149h1048v-149h-1048zM80 657v150h1048v-150h-1048z" />
<glyph unicode="&#x3e;" horiz-adv-x="1208" d="M100 25v163l805 336l-805 336v164l1008 -428v-143z" />
<glyph unicode="?" d="M117 1020q0 25 2 70t16.5 99t42 110.5t78.5 101.5t129 74.5t193 29.5q86 0 165.5 -26.5t141 -77.5t97.5 -127t36 -174q0 -70 -15.5 -117t-41 -84t-60.5 -68.5t-72.5 -68.5t-78.5 -84t-80 -115q-18 -33 -22.5 -78t-4.5 -106h-186q0 115 27.5 194.5t67.5 137t88 100.5 t88 86t67.5 93t27.5 122q0 33 -11 74t-39 76.5t-76 60.5t-124 25q-98 0 -153 -39t-82 -91.5t-33 -108.5t-6 -89h-182zM457 0v211h200v-211h-200z" />
<glyph unicode="@" horiz-adv-x="2099" d="M303 748q0 162 62.5 304t168 247.5t248 166t301.5 60.5q143 0 272.5 -48t227.5 -134.5t155.5 -204t57.5 -258.5t-51 -252t-127 -187.5t-162 -117.5t-156 -41q-53 0 -89.5 31.5t-41.5 97.5l-4 -2q-47 -47 -111.5 -87t-138.5 -40q-66 0 -122 26.5t-96 71.5t-62.5 104.5 t-22.5 126.5q0 104 34 207t97.5 183.5t150.5 131t196 50.5q76 0 136 -37t101 -125l43 129h139q-29 -109 -61.5 -219.5t-60 -204.5t-46 -161.5t-18.5 -88.5q0 -29 9 -45t36 -16q51 0 104.5 39t94.5 102.5t67.5 143t26.5 163.5q0 123 -46 222.5t-125 168t-184.5 105.5 t-222.5 37q-139 0 -253.5 -52.5t-198.5 -141.5t-130 -210t-46 -258t49 -255t136 -205t205 -136t253 -49q145 0 279 62.5t225 173.5h137q-49 -84 -120 -152t-154 -115t-178 -72.5t-193 -25.5q-166 0 -310.5 61.5t-251 167t-168 249t-61.5 309.5zM782 631q0 -88 48.5 -144.5 t125.5 -56.5q66 0 122.5 42t97.5 103.5t64.5 134.5t23.5 134q0 39 -13.5 72.5t-37 60.5t-54.5 42t-65 15q-70 0 -127.5 -39t-98.5 -98t-63.5 -131t-22.5 -135z" />
<glyph unicode="A" horiz-adv-x="1380" d="M29 0l559 1487h227l537 -1487h-219l-148 434h-594l-155 -434h-207zM453 610h460l-219 656h-4z" />
<glyph unicode="B" horiz-adv-x="1388" d="M152 0v1487h653q104 0 183 -30t131 -81t79 -119.5t27 -144.5q0 -37 -8.5 -79t-30 -84t-60.5 -81t-100 -67q37 -14 84 -37t88 -62.5t69.5 -103t28.5 -158.5q0 -90 -32.5 -170t-96 -140t-159 -95t-217.5 -35h-639zM352 172h428q158 0 237 73.5t79 198.5q0 78 -32 127.5 t-81 77t-111.5 36.5t-123.5 9h-396v-522zM352 858h363q143 0 226 51.5t83 188.5q0 104 -69.5 160.5t-237.5 56.5h-365v-457z" />
<glyph unicode="C" horiz-adv-x="1495" d="M92 752q0 172 47 314t136.5 244.5t218.5 159t290 56.5q143 0 253 -41t185.5 -108.5t118.5 -155.5t54 -183h-195q-20 98 -67.5 158.5t-106.5 94.5t-123.5 45.5t-118.5 11.5q-100 0 -188 -37t-154.5 -111t-104.5 -184.5t-38 -257.5q0 -131 24.5 -245t83 -197t151.5 -130 t233 -47q49 0 111.5 15.5t123.5 59.5t112.5 124t75.5 209h195q-20 -139 -68.5 -237.5t-111 -164t-133 -102.5t-136 -55.5t-119 -22.5t-81.5 -4q-127 0 -247 43t-214 138.5t-150.5 245t-56.5 364.5z" />
<glyph unicode="D" horiz-adv-x="1470" d="M152 0v1487h602q145 0 260.5 -53.5t196.5 -148.5t124 -228t43 -293q0 -125 -30.5 -260t-103.5 -247t-194.5 -184.5t-304.5 -72.5h-593zM352 172h389q197 0 313.5 148.5t116.5 431.5t-119.5 423t-324.5 140h-375v-1143z" />
<glyph unicode="E" horiz-adv-x="1353" d="M152 0v1487h1083v-178h-883v-437h813v-178h-813v-516h897v-178h-1097z" />
<glyph unicode="F" horiz-adv-x="1236" d="M152 0v1487h1026v-178h-826v-437h727v-178h-727v-694h-200z" />
<glyph unicode="G" horiz-adv-x="1599" d="M92 756q0 135 42 272t128 247.5t218 180.5t315 70q104 0 208.5 -30t192.5 -91.5t149.5 -153.5t77.5 -217h-194q-25 98 -74 158.5t-110.5 95.5t-130 47.5t-130.5 12.5q-100 0 -188 -39t-154.5 -116t-104.5 -189.5t-38 -258.5q0 -113 21.5 -222t77 -196t151.5 -140.5 t244 -53.5q27 0 62.5 3t75.5 12.5t83 29t84 51.5q96 76 129 175.5t33 218.5h-463v172h651v-795h-129l-49 193q-76 -104 -206 -168t-284 -64q-195 0 -326.5 74t-211.5 189.5t-115 257t-35 274.5z" />
<glyph unicode="H" horiz-adv-x="1480" d="M152 0v1487h200v-615h776v615h201v-1487h-201v694h-776v-694h-200z" />
<glyph unicode="I" horiz-adv-x="503" d="M152 0v1487h200v-1487h-200z" />
<glyph unicode="J" horiz-adv-x="1036" d="M35 330v147h188v-104q0 -133 59.5 -186.5t163.5 -53.5q70 0 116 19.5t73 53.5t38 81t11 100v1100h201v-1088q0 -129 -39 -214t-100.5 -135t-137.5 -69.5t-151 -19.5q-129 0 -212 38t-129 94.5t-63.5 119.5t-17.5 117z" />
<glyph unicode="K" horiz-adv-x="1382" d="M152 0v1487h200v-721l721 721h277l-619 -600l635 -887h-260l-520 745l-234 -223v-522h-200z" />
<glyph unicode="L" horiz-adv-x="1142" d="M152 0v1487h200v-1309h752v-178h-952z" />
<glyph unicode="M" horiz-adv-x="1724" d="M152 0v1487h286l422 -1258h4l424 1258h285v-1487h-195v879q0 16 1 57t2 93t2 110.5t1 109.5h-2l-419 -1249h-199l-418 1249h-6q0 -51 1 -109.5t2 -110.5t2 -93t1 -57v-879h-194z" />
<glyph unicode="N" horiz-adv-x="1482" d="M152 0v1487h237l744 -1200h4v1200h194v-1487h-225l-756 1200h-4v-1200h-194z" />
<glyph unicode="O" horiz-adv-x="1630" d="M92 743q0 121 35 258.5t119 254t222 193.5t347 77t347 -77t222 -193.5t119 -254t35 -258.5t-35 -258t-119 -253.5t-222 -193.5t-347 -77t-347 77t-222 193.5t-119 254t-35 257.5zM299 748q0 -131 35 -243t101.5 -193t162.5 -127t217 -46t217 45t163 126t101.5 191.5 t34.5 241.5t-34.5 242t-101.5 191.5t-163 126t-217 45.5t-217 -44t-162.5 -124t-101.5 -190.5t-35 -241.5z" />
<glyph unicode="P" horiz-adv-x="1353" d="M152 0v1487h669q102 0 184 -32t138.5 -87t87.5 -132t31 -167q0 -78 -24 -156.5t-76 -142t-136 -103.5t-205 -40h-469v-627h-200zM352 799h400q68 0 123 13t95 45t62.5 83t22.5 127q0 70 -22.5 117t-62.5 76.5t-94.5 42t-115.5 12.5h-408v-516z" />
<glyph unicode="Q" horiz-adv-x="1632" d="M92 741q0 123 35 260.5t119 254t223 193.5t348 77q137 0 244.5 -36t188.5 -96.5t136.5 -139t89 -166t49 -177.5t15.5 -170q0 -72 -11 -148.5t-37 -153.5t-67 -148.5t-100 -130.5l203 -156l-101 -121l-227 176q-74 -47 -170 -72.5t-215 -25.5q-207 0 -346 77t-223 193.5 t-119 253t-35 256.5zM299 741q0 -131 36 -241.5t102.5 -191.5t162.5 -126t217 -45t219 47l-155 121l100 125l190 -147q78 78 120 197.5t42 262.5q0 131 -35.5 242t-102.5 191.5t-162 126t-216 45.5t-217 -45.5t-162.5 -126t-102.5 -192.5t-36 -243z" />
<glyph unicode="R" horiz-adv-x="1464" d="M152 0v1487h686q92 0 179 -18.5t156.5 -63.5t111.5 -123t42 -195q0 -82 -19.5 -140t-49 -99t-66.5 -68.5t-72 -48.5q25 -16 57.5 -32.5t60.5 -45t47.5 -76t19.5 -124.5v-271q0 -61 16 -91t63 -56v-35h-245q-10 35 -17.5 89t-11.5 110.5t-5 104.5t-1 69q0 45 -7 92t-35 86 t-81 62.5t-143 23.5h-486v-637h-200zM352 809h465q55 0 109.5 9t97.5 37t69.5 79t26.5 133q0 86 -27.5 135t-67.5 75t-87 32t-84 6h-502v-506z" />
<glyph unicode="S" horiz-adv-x="1374" d="M100 481h189q0 -102 36.5 -168.5t96 -106.5t131.5 -56.5t143 -16.5q55 0 123 9.5t127.5 36t100 75.5t40.5 129q0 57 -13 99t-64.5 76t-153.5 64.5t-281 69.5q-98 20 -177 48t-134 71t-84.5 104.5t-29.5 151.5q0 86 29.5 169t91 147.5t158.5 103.5t233 39q195 0 308 -51.5 t171.5 -125t77 -155.5t22.5 -143h-188q-4 86 -39 144t-87.5 94t-115.5 50.5t-125 14.5q-47 0 -106.5 -9.5t-111.5 -37t-88 -78.5t-36 -135q0 -47 14.5 -80t55.5 -57.5t112.5 -47t188.5 -49.5q170 -39 280.5 -79t174 -90t88 -118.5t24.5 -162.5q0 -131 -55.5 -218.5 t-140.5 -138.5t-187 -71.5t-199 -20.5q-186 0 -302.5 51t-183.5 128t-90.5 169t-23.5 172z" />
<glyph unicode="T" horiz-adv-x="1263" d="M29 1309v178h1208v-178h-504v-1309h-201v1309h-503z" />
<glyph unicode="U" horiz-adv-x="1472" d="M152 494v993h200v-938q0 -121 34 -200t89 -126t123 -66.5t135 -19.5q70 0 138.5 18.5t124 64.5t90 125t34.5 200v942h201v-965q0 -115 -36 -216t-109.5 -178t-186 -122t-266.5 -45q-150 0 -258.5 44t-178 118t-102 170t-32.5 201z" />
<glyph unicode="V" horiz-adv-x="1378" d="M41 1487h223l424 -1268h4l420 1268h225l-540 -1487h-215z" />
<glyph unicode="W" horiz-adv-x="1953" d="M33 1487h217l278 -1208h4l332 1208h221l332 -1208h4l277 1208h223l-391 -1487h-211l-340 1231h-4l-344 -1231h-211z" />
<glyph unicode="X" horiz-adv-x="1378" d="M39 0l530 762l-497 725h252l376 -569l377 569h240l-498 -725l520 -762h-247l-400 610l-411 -610h-242z" />
<glyph unicode="Y" horiz-adv-x="1378" d="M29 1487h233l428 -715l426 715h236l-561 -889v-598h-201v598z" />
<glyph unicode="Z" horiz-adv-x="1263" d="M47 0v168l911 1141h-841v178h1100v-174l-916 -1135h916v-178h-1170z" />
<glyph unicode="[" horiz-adv-x="575" d="M131 -406v1901h387v-147h-223v-1606h223v-148h-387z" />
<glyph unicode="\" horiz-adv-x="573" d="M-37 1526h137l510 -1565h-139z" />
<glyph unicode="]" horiz-adv-x="575" d="M57 -258h224v1606h-224v147h387v-1901h-387v148z" />
<glyph unicode="^" horiz-adv-x="1071" d="M16 547l441 876h147l438 -876h-157l-355 710l-354 -710h-160z" />
<glyph unicode="_" d="M0 -156h1151v-102h-1151v102z" />
<glyph unicode="`" horiz-adv-x="688" d="M29 1520h223l184 -293h-139z" />
<glyph unicode="a" horiz-adv-x="1148" d="M74 283q0 49 11 105t53 106.5t124 88.5t225 48q106 8 168 18t92.5 26.5t38 43t7.5 69.5q0 90 -61.5 132.5t-190.5 42.5q-78 0 -124 -21.5t-73 -52.5t-36 -68t-13 -67h-168q0 98 31.5 166.5t90 111.5t141.5 62.5t183 19.5q33 0 99.5 -8t134 -39t118 -91.5t50.5 -164.5 v-618q0 -68 59 -68q12 0 27.5 2t32.5 6v-133q-23 -6 -45.5 -13t-53.5 -7q-61 0 -97 14t-56.5 37.5t-28.5 53.5t-10 60q-27 -29 -61.5 -59.5t-82 -57t-107.5 -43t-140 -16.5q-74 0 -136.5 22.5t-107.5 63.5t-69.5 98.5t-24.5 129.5zM260 311q0 -90 48 -140t151 -50 q63 0 123.5 19.5t106.5 53t75 79.5t29 102v178q-10 -8 -26.5 -16.5t-49.5 -15.5t-86 -16t-137 -20q-35 -4 -75 -13t-76 -27.5t-59.5 -50.5t-23.5 -83z" />
<glyph unicode="b" horiz-adv-x="1153" d="M133 0v1487h182v-537q59 86 139.5 125t178.5 39q106 0 190 -41t140.5 -113.5t86 -171t29.5 -213.5q0 -96 -22.5 -203.5t-75.5 -196.5t-144.5 -147.5t-228.5 -58.5q-70 0 -120 17.5t-84.5 43t-58 54.5t-38.5 51h-4v-135h-170zM315 545q0 -88 17.5 -165t53.5 -133.5t91 -88 t129 -31.5q43 0 93.5 16.5t93.5 58.5t71.5 112.5t28.5 179.5q0 68 -7 146.5t-35 148t-84.5 115.5t-154.5 46q-106 0 -165.5 -43t-89 -106.5t-36 -133t-6.5 -122.5z" />
<glyph unicode="c" horiz-adv-x="1044" d="M74 512q0 125 30.5 234.5t94 191.5t162 129t231.5 47q106 0 181 -35t123 -92t71.5 -128t29.5 -140h-176q-16 111 -77.5 171t-178.5 60q-84 0 -141 -36.5t-92 -95t-49.5 -131.5t-14.5 -144q0 -70 11.5 -143.5t43 -134t89 -99.5t151.5 -39q92 0 164 65.5t94 190.5h176 q-6 -66 -31.5 -138.5t-76.5 -134t-132 -101.5t-200 -40q-115 0 -204 41t-151.5 113t-95 172t-32.5 217z" />
<glyph unicode="d" horiz-adv-x="1153" d="M74 571q0 115 27.5 214.5t83 172t137 114.5t190.5 42q70 0 122 -17.5t90 -45t65.5 -60.5t48.5 -61v557h182v-1487h-172v150h-4q-31 -55 -68 -90t-77 -55.5t-82 -28t-80 -7.5q-139 0 -228.5 57.5t-141.5 146.5t-72.5 195.5t-20.5 202.5zM260 545q0 -88 17.5 -165 t53.5 -133.5t91 -88t129 -31.5q43 0 93 16.5t93 58.5t72 112.5t29 179.5q0 68 -7.5 146.5t-35 148t-84 115.5t-154.5 46q-106 0 -165.5 -43t-89.5 -106.5t-36 -133t-6 -122.5z" />
<glyph unicode="e" horiz-adv-x="1130" d="M74 512q0 127 30.5 236.5t94 191.5t161 128t232.5 46q117 0 204 -45t145 -128t87 -199.5t29 -260.5h-789q0 -168 78 -261t236 -93q63 0 114.5 22.5t88 54.5t56 68.5t19.5 67.5h182q-16 -63 -46.5 -129t-87 -120t-142.5 -88t-211 -34q-115 0 -204 41t-150.5 113t-94 172 t-32.5 217zM268 627h602q-4 63 -20 121.5t-52 103.5t-92.5 71.5t-140.5 26.5q-61 0 -115.5 -26.5t-94.5 -71.5t-63.5 -103.5t-23.5 -121.5z" />
<glyph unicode="f" horiz-adv-x="575" d="M31 932v151h147v185q0 127 73 183t208 56q20 0 42.5 -3t39.5 -7v-158q-16 2 -36 3t-36 1q-59 0 -84 -30.5t-25 -95.5v-134h183v-151h-183v-932h-182v932h-147z" />
<glyph unicode="g" horiz-adv-x="1153" d="M74 573q0 117 29.5 215.5t87 171t141.5 113.5t192 41q70 0 122 -17.5t91 -45t65.5 -59t47.5 -62.5v153h170v-993q0 -39 -3 -94t-17.5 -115.5t-44 -121t-86 -107.5t-142.5 -77t-211 -30q-49 0 -114.5 10.5t-127 44t-109.5 97t-61 172.5h183q12 -59 46 -93t71.5 -51.5 t73.5 -22.5t52 -5q113 0 174.5 40t91 101.5t36 137t6.5 147.5q-39 -63 -111 -108.5t-182 -45.5q-137 0 -228.5 58.5t-144.5 147.5t-75.5 195.5t-22.5 202.5zM260 545q0 -88 17.5 -165t53.5 -133.5t91 -88t129 -31.5q43 0 93 16.5t93 58.5t72 112.5t29 179.5q0 68 -7.5 146.5 t-35 148t-84 115.5t-154.5 46q-106 0 -165.5 -43t-89.5 -106.5t-36 -133t-6 -122.5z" />
<glyph unicode="h" horiz-adv-x="1146" d="M133 0v1487h182v-549h4q18 25 46 55.5t66 57t88 45t116 18.5q63 0 129.5 -15.5t122 -57.5t91.5 -115.5t36 -188.5v-737h-183v709q0 55 -9 100t-32.5 75.5t-65.5 48t-108 17.5q-55 0 -109 -17.5t-97 -59.5t-69 -111.5t-26 -171.5v-590h-182z" />
<glyph unicode="i" horiz-adv-x="448" d="M133 0v1083h182v-1083h-182zM133 1280v207h182v-207h-182z" />
<glyph unicode="j" horiz-adv-x="448" d="M-39 -270h37q41 0 66.5 3t41 17t21.5 40t6 73v1220h182v-1241q0 -35 -5 -83t-31.5 -91t-83 -72.5t-156.5 -29.5q-39 0 -78 6v158zM133 1280v207h182v-207h-182z" />
<glyph unicode="k" horiz-adv-x="1042" d="M133 0v1487h182v-875l465 471h232l-414 -403l438 -680h-217l-350 553l-154 -143v-410h-182z" />
<glyph unicode="l" horiz-adv-x="448" d="M133 0v1487h182v-1487h-182z" />
<glyph unicode="m" horiz-adv-x="1722" d="M133 0v1083h170v-153h4q14 20 40 52t66 61.5t94 50t128 20.5q72 0 122 -19.5t82.5 -47t52 -58.5t30.5 -51q35 37 67.5 69.5t69.5 56t84 37t108 13.5q43 0 101.5 -14.5t111 -54t89 -111.5t36.5 -184v-750h-182v700q0 111 -43 180.5t-160 69.5q-57 0 -104 -24.5t-80 -65.5 t-50.5 -93t-17.5 -105v-662h-182v750q0 33 -8 68.5t-27.5 65t-52.5 48t-84 18.5q-39 0 -88 -14t-92 -53t-73 -108.5t-30 -180.5v-594h-182z" />
<glyph unicode="n" horiz-adv-x="1146" d="M133 0v1083h170v-153h6q14 20 41 52t67 61.5t94 50t124 20.5q63 0 129.5 -15.5t122 -57.5t91.5 -115.5t36 -188.5v-737h-183v668q0 139 -49 210.5t-182 71.5q-39 0 -88 -15t-93 -55t-74 -110t-30 -180v-590h-182z" />
<glyph unicode="o" d="M74 543q0 104 29.5 206.5t91 183.5t156.5 131t224 50t224.5 -50t157 -131t91 -183.5t29.5 -206.5t-29.5 -207t-91 -184.5t-156.5 -132t-225 -50.5q-129 0 -224 50.5t-156.5 132t-91 184.5t-29.5 207zM260 543q0 -55 12.5 -127t47 -136.5t96 -108.5t159.5 -44t160 44 t96.5 108.5t47 136t12.5 127.5q0 55 -12.5 125.5t-47 135t-96 108.5t-160.5 44q-98 0 -159.5 -44t-96 -108.5t-47 -135t-12.5 -125.5z" />
<glyph unicode="p" horiz-adv-x="1153" d="M133 -428v1511h170v-153q23 33 50.5 65.5t65.5 59t89 43t123 16.5q106 0 190 -41t141.5 -113.5t87 -172t29.5 -214.5q0 -96 -21.5 -202.5t-75.5 -195.5t-145.5 -147.5t-228.5 -58.5q-111 0 -182.5 46t-110.5 112v-555h-182zM315 545q0 -88 17.5 -165t53.5 -133.5t91 -88 t129 -31.5q43 0 93.5 16.5t93.5 58.5t71.5 112.5t28.5 179.5q0 68 -7 146.5t-35 148t-84.5 115.5t-154.5 46q-106 0 -165.5 -43t-89 -106.5t-36 -133t-6.5 -122.5z" />
<glyph unicode="q" horiz-adv-x="1153" d="M74 573q0 115 29.5 214.5t87 172t140.5 113.5t191 41q70 0 122 -16.5t90 -43t65.5 -59t50.5 -65.5v153h170v-1511h-182v555q-39 -66 -111 -112t-182 -46q-139 0 -229.5 58.5t-144.5 147.5t-75.5 195.5t-21.5 202.5zM260 545q0 -88 17.5 -165t53.5 -133.5t91 -88 t129 -31.5q43 0 93 16.5t93 58.5t72 112.5t29 179.5q0 68 -7.5 146.5t-35 148t-84 115.5t-154.5 46q-106 0 -165.5 -43t-89.5 -106.5t-36 -133t-6 -122.5z" />
<glyph unicode="r" horiz-adv-x="681" d="M133 0v1083h170v-180h4q53 94 127 152.5t178 58.5q16 0 26.5 -1t23.5 -5v-188h-72q-63 0 -114.5 -24t-86.5 -63.5t-54.5 -92t-19.5 -111.5v-629h-182z" />
<glyph unicode="s" horiz-adv-x="1034" d="M66 348h176q0 -31 8 -68.5t37.5 -71.5t87 -57.5t153.5 -23.5q49 0 93.5 9t79 29.5t55 53.5t20.5 80q0 33 -14 57.5t-50 46t-99.5 41t-161.5 37.5q-176 35 -263.5 97.5t-87.5 189.5q0 88 34 153.5t91.5 108.5t131 63.5t153.5 20.5q96 0 164.5 -21.5t115 -55t72 -73.5 t39.5 -78t18.5 -69t4.5 -43h-176q0 25 -7.5 56.5t-34 59.5t-77.5 47t-137 19q-20 0 -56.5 -5t-72 -21.5t-61.5 -46t-26 -80.5q0 -35 12.5 -57.5t45.5 -40t89 -34t142 -36.5q119 -29 196 -59.5t121 -67.5t60 -81t16 -99q0 -84 -32.5 -150.5t-90 -113t-135 -71t-170.5 -24.5 q-162 0 -253 41t-137 99.5t-59 124t-15 114.5z" />
<glyph unicode="t" horiz-adv-x="575" d="M31 930v151h145v301h182v-301h174v-151h-174v-703q0 -31 11.5 -47t29 -25.5t36 -11.5t32.5 -2h63v-141q-41 -8 -80.5 -12t-54.5 -4q-68 0 -110.5 18t-66 49t-33 74t-9.5 92v713h-145z" />
<glyph unicode="u" horiz-adv-x="1136" d="M133 305v778h182v-718q0 -133 59.5 -185.5t147.5 -52.5q86 0 143.5 34t92.5 87t49 116.5t14 122.5v596h183v-1083h-173v158l-2 4q-59 -94 -136 -143.5t-208 -49.5q-59 0 -121.5 16.5t-113.5 55.5t-84 103.5t-33 160.5z" />
<glyph unicode="v" horiz-adv-x="1032" d="M16 1083h211l281 -882h4l305 882h199l-412 -1083h-194z" />
<glyph unicode="w" horiz-adv-x="1495" d="M31 1083h196l207 -850h6l209 850h203l211 -850h4l219 850h180l-313 -1083h-188l-220 838h-4l-211 -838h-188z" />
<glyph unicode="x" horiz-adv-x="1032" d="M23 0l378 557l-360 526h233l250 -381l250 381h223l-364 -526l379 -557h-232l-268 408l-260 -408h-229z" />
<glyph unicode="y" horiz-adv-x="1034" d="M23 1083h206l289 -882h4l289 882h201q-47 -133 -106.5 -301t-123 -342t-128 -340t-119.5 -297q-31 -70 -57.5 -116.5t-62.5 -75.5t-87.5 -41t-128.5 -12q-20 0 -38 5t-40 11v166q16 -6 45 -12.5t65 -6.5q35 0 56.5 7.5t41 34t41 75.5t54.5 133z" />
<glyph unicode="z" horiz-adv-x="1032" d="M63 0v143l652 789h-602v151h837v-149l-645 -782h664v-152h-906z" />
<glyph unicode="{" horiz-adv-x="690" d="M86 483v125q37 0 67.5 19.5t53 55.5t35 84t12.5 105v355q0 63 18.5 113.5t48 84t67.5 52t77 18.5h139v-135h-92q-53 0 -73.5 -49t-20.5 -121v-352q0 -74 -22.5 -126.5t-53.5 -87t-61.5 -53t-44.5 -22.5v-4q14 -4 44.5 -18.5t61.5 -46t53.5 -87t22.5 -143.5v-350 q0 -70 20.5 -120t75.5 -50h90v-136h-139q-39 0 -77 18.5t-67.5 52.5t-48 84t-18.5 114v352q0 117 -48 192.5t-120 75.5z" />
<glyph unicode="|" horiz-adv-x="536" d="M195 -39v1565h149v-1565h-149z" />
<glyph unicode="}" horiz-adv-x="690" d="M86 -270h92q53 0 73.5 50t20.5 120v350q0 82 22.5 136t53.5 88t60.5 50.5t46.5 20.5v4q-16 4 -46 21.5t-61 51t-53.5 87t-22.5 129.5v352q0 72 -20.5 121t-75.5 49h-90v135h139q39 0 77 -18.5t67.5 -52t48 -84t18.5 -113.5v-355q0 -57 12.5 -105t35 -84t53 -55.5 t67.5 -19.5v-125q-72 0 -120 -75.5t-48 -192.5v-352q0 -63 -18.5 -113.5t-48 -84.5t-67.5 -52.5t-77 -18.5h-139v136z" />
<glyph unicode="~" horiz-adv-x="1208" d="M127 489q16 33 39.5 66t54.5 59.5t71 44t93 17.5q43 0 108.5 -23.5t130 -51.5t121 -50.5t80.5 -22.5q61 0 104.5 46.5t78.5 101.5l73 -117q-47 -74 -110.5 -129t-147.5 -55q-59 0 -111.5 22.5t-103.5 50t-107.5 51t-125.5 23.5q-70 0 -110 -47t-64 -102z" />
<glyph unicode="&#xa9;" horiz-adv-x="1525" d="M-29 745q0 168 63.5 311.5t172 248t253 163t306.5 58.5q160 0 303 -58.5t252 -163t172 -248t63 -311.5q0 -170 -63 -313t-172 -247.5t-252 -164t-303 -59.5q-162 0 -306.5 59.5t-253 164t-172 247.5t-63.5 313zM129 745q0 -141 49 -260.5t135 -207t202 -136.5t251 -49 q133 0 248.5 49t200.5 136.5t134.5 207t49.5 260.5q0 139 -49.5 258t-134.5 206t-200.5 136.5t-248.5 49.5q-135 0 -251 -49.5t-202 -136.5t-135 -206t-49 -258zM332 748q0 102 31.5 190t90 151.5t142.5 99.5t188 36q74 0 140.5 -20.5t119 -61.5t87 -101.5t45.5 -140.5h-140 q-18 86 -84.5 137.5t-165.5 51.5q-74 0 -129 -26t-92 -72t-56.5 -108.5t-19.5 -133.5q0 -70 20.5 -133.5t60.5 -110.5t95.5 -76t127.5 -29q98 0 163.5 55.5t79.5 141.5h142q-14 -78 -50 -139.5t-86.5 -104.5t-114 -65.5t-134.5 -22.5q-104 0 -190.5 37t-146 102.5t-92 152.5 t-32.5 190z" />
<glyph unicode="&#xab;" d="M201 479v189l325 256v-183l-217 -168l217 -167v-183zM625 479v189l325 256v-183l-217 -168l217 -167v-183z" />
<glyph unicode="&#xad;" horiz-adv-x="690" d="M92 449v149h506v-149h-506z" />
<glyph unicode="&#xae;" horiz-adv-x="1525" d="M-29 745q0 168 63.5 311.5t172 248t253 163t306.5 58.5q160 0 303 -58.5t252 -163t172 -248t63 -311.5q0 -170 -63 -313t-172 -247.5t-252 -164t-303 -59.5q-162 0 -306.5 59.5t-253 164t-172 247.5t-63.5 313zM129 745q0 -141 49 -260.5t135 -207t202 -136.5t251 -49 q133 0 248.5 49t200.5 136.5t134.5 207t49.5 260.5q0 139 -49.5 258t-134.5 206t-200.5 136.5t-248.5 49.5q-135 0 -251 -49.5t-202 -136.5t-135 -206t-49 -258zM465 293v901h342q160 0 239.5 -60.5t79.5 -195.5q0 -121 -67.5 -178.5t-165.5 -69.5l256 -397h-154l-237 391 h-158v-391h-135zM600 799h164q43 0 83 3t70.5 18.5t48 44t17.5 81.5q0 43 -17.5 68.5t-45 40t-62.5 19.5t-72 5h-186v-280z" />
<glyph unicode="&#xbb;" d="M201 223v183l217 167l-217 168v183l325 -256v-189zM625 223v183l217 167l-217 168v183l325 -256v-189z" />
<glyph unicode="&#x401;" horiz-adv-x="1353" d="M152 0v1487h1083v-178h-883v-437h813v-178h-813v-516h897v-178h-1097zM418 1651v207h182v-207h-182zM838 1651v207h182v-207h-182z" />
<glyph unicode="&#x402;" horiz-adv-x="1728" d="M29 1309v178h1208v-178h-504v-502q98 29 222 47t235 18q121 0 206 -42t138 -107.5t77.5 -146t24.5 -158.5q0 -76 -25.5 -150.5t-79.5 -134t-137 -96.5t-198 -37h-217v178h158q61 0 115.5 11.5t93 39t61.5 74.5t23 117q0 76 -23 128t-63.5 85t-97 47t-124.5 14 q-88 0 -176 -12t-213 -41v-641h-201v1309h-503z" />
<glyph unicode="&#x403;" horiz-adv-x="1142" d="M152 0v1487h972v-178h-772v-1309h-200zM541 1651l184 293h223l-268 -293h-139z" />
<glyph unicode="&#x404;" horiz-adv-x="1503" d="M92 752q0 168 45 310t131 245.5t211 161t285 57.5q143 0 252.5 -41t187.5 -108.5t125 -155.5t66 -183h-195q-25 98 -74 158.5t-110.5 94.5t-128 45.5t-123.5 11.5q-193 0 -316.5 -129t-148.5 -377h670v-162h-670q8 -117 38 -215t86 -171t142 -114t205 -41 q49 0 116.5 14.5t133 52.5t119 105.5t75.5 173.5h195q-20 -119 -68.5 -204.5t-111 -144t-133 -93.5t-136 -53.5t-119 -23.5t-81.5 -5q-127 0 -247 43t-214 138.5t-150.5 245t-56.5 364.5z" />
<glyph unicode="&#x405;" horiz-adv-x="1378" d="M100 481h189q0 -102 36.5 -168.5t96 -106.5t131.5 -56.5t143 -16.5q55 0 123 9.5t127.5 36t100 75.5t40.5 129q0 57 -13 99t-64.5 76t-153.5 64.5t-281 69.5q-98 20 -177 48t-134 71t-84.5 104.5t-29.5 151.5q0 86 29.5 169t91 147.5t158.5 103.5t233 39q195 0 308 -51.5 t171.5 -125t77 -155.5t22.5 -143h-188q-4 86 -39 144t-87.5 94t-115.5 50.5t-125 14.5q-47 0 -106.5 -9.5t-111.5 -37t-88 -78.5t-36 -135q0 -47 14.5 -80t55.5 -57.5t112.5 -47t188.5 -49.5q170 -39 280.5 -79t174 -90t88 -118.5t24.5 -162.5q0 -131 -55.5 -218.5 t-140.5 -138.5t-187 -71.5t-199 -20.5q-186 0 -302.5 51t-183.5 128t-90.5 169t-23.5 172z" />
<glyph unicode="&#x406;" horiz-adv-x="503" d="M152 0v1487h200v-1487h-200z" />
<glyph unicode="&#x407;" horiz-adv-x="573" d="M33 1651v207h182v-207h-182zM186 0v1487h201v-1487h-201zM358 1651v207h183v-207h-183z" />
<glyph unicode="&#x408;" horiz-adv-x="1036" d="M35 330v147h188v-104q0 -133 59.5 -186.5t163.5 -53.5q70 0 116 19.5t73 53.5t38 81t11 100v1100h201v-1088q0 -129 -39 -214t-100.5 -135t-137.5 -69.5t-151 -19.5q-129 0 -212 38t-129 94.5t-63.5 119.5t-17.5 117z" />
<glyph unicode="&#x409;" horiz-adv-x="2304" d="M29 -16v168q12 -4 37.5 -6.5t56.5 -2.5q59 0 96 37t58.5 113t28.5 190.5t7 268.5v735h969v-615h483q121 0 206 -42t138.5 -107.5t78 -146t24.5 -158.5q0 -90 -31 -167t-88 -132.5t-139 -87t-182 -31.5h-691v1309h-567v-621q0 -215 -25.5 -354t-71.5 -220t-110.5 -113 t-140.5 -32q-33 0 -68 4t-69 11zM1282 178h430q61 0 115.5 11.5t93.5 39t61.5 74.5t22.5 117q0 76 -22.5 128t-63.5 85t-97.5 47t-123.5 14h-416v-516z" />
<glyph unicode="&#x40a;" horiz-adv-x="2351" d="M152 0v1487h200v-615h776v615h201v-615h483q121 0 206 -42t138.5 -107.5t78 -146t24.5 -158.5q0 -90 -30.5 -167t-88 -132.5t-139.5 -87t-182 -31.5h-691v694h-776v-694h-200zM1329 178h430q61 0 115.5 11.5t93.5 39t61.5 74.5t22.5 117q0 76 -22.5 128t-63.5 85 t-97.5 47t-123.5 14h-416v-516z" />
<glyph unicode="&#x40b;" horiz-adv-x="1728" d="M29 1309v178h1208v-178h-504v-502q98 29 222 47t235 18q121 0 206 -42t138 -107.5t77.5 -146t24.5 -158.5v-418h-200v420q0 76 -23.5 128t-65.5 85t-99.5 47t-125.5 14q-88 0 -189.5 -15t-199.5 -38v-641h-201v1309h-503z" />
<glyph unicode="&#x40c;" horiz-adv-x="1382" d="M152 0v1487h200v-721l721 721h277l-619 -600l635 -887h-260l-520 745l-234 -223v-522h-200zM563 1651l185 293h223l-269 -293h-139z" />
<glyph unicode="&#x40e;" horiz-adv-x="1363" d="M14 1487h215l457 -1016l432 1016h215l-557 -1251q-37 -86 -74.5 -139.5t-77.5 -84t-82 -42t-87 -11.5q-39 0 -77 5t-69 11v166q47 -8 117 -8q29 0 48.5 5t36.5 20.5t35.5 44t43.5 73.5zM385 1884h102q10 -35 23.5 -62.5t37 -49t58.5 -32.5t88 -11q104 0 146.5 44 t60.5 111h100q-4 -29 -13 -76t-41 -93t-91 -79.5t-162 -33.5q-102 0 -161.5 33.5t-91 79.5t-43 93t-13.5 76z" />
<glyph unicode="&#x40f;" horiz-adv-x="1486" d="M152 0v1487h200v-1309h783v1309h200v-1487h-491v-322h-201v322h-491z" />
<glyph unicode="&#x410;" horiz-adv-x="1380" d="M29 0l559 1487h227l537 -1487h-219l-148 434h-594l-155 -434h-207zM453 610h460l-219 656h-4z" />
<glyph unicode="&#x411;" horiz-adv-x="1374" d="M152 0v1487h1046v-178h-846v-437h484q121 0 205.5 -42t138 -107.5t78 -146t24.5 -158.5q0 -90 -30.5 -167t-88 -132.5t-139.5 -87t-182 -31.5h-690zM352 178h430q61 0 115.5 11.5t93.5 39t61.5 74.5t22.5 117q0 76 -22.5 128t-63.5 85t-97 47t-124 14h-416v-516z" />
<glyph unicode="&#x412;" horiz-adv-x="1388" d="M152 0v1487h653q104 0 183 -30t131 -81t79 -119.5t27 -144.5q0 -37 -8.5 -79t-30 -84t-60.5 -81t-100 -67q37 -14 84 -37t88 -62.5t69.5 -103t28.5 -158.5q0 -90 -32.5 -170t-96 -140t-159 -95t-217.5 -35h-639zM352 172h428q158 0 237 73.5t79 198.5q0 78 -32 127.5 t-81 77t-111.5 36.5t-123.5 9h-396v-522zM352 858h363q143 0 226 51.5t83 188.5q0 104 -69.5 160.5t-237.5 56.5h-365v-457z" />
<glyph unicode="&#x413;" horiz-adv-x="1142" d="M152 0v1487h972v-178h-772v-1309h-200z" />
<glyph unicode="&#x414;" horiz-adv-x="1472" d="M41 178h125q53 111 84 207t47 192.5t20.5 203t4.5 235.5v471h972v-1309h131v-500h-184v322h-1016v-322h-184v500zM369 178h725v1131h-572v-332q0 -123 -6 -227.5t-22.5 -199.5t-46 -185.5t-78.5 -186.5z" />
<glyph unicode="&#x415;" horiz-adv-x="1353" d="M152 0v1487h1083v-178h-883v-437h813v-178h-813v-516h897v-178h-1097z" />
<glyph unicode="&#x416;" horiz-adv-x="2066" d="M41 0l555 883l-528 604h256l614 -715v715h199v-715l614 715h256l-528 -604l555 -883h-244l-463 741l-190 -213v-528h-199v528l-190 213l-463 -741h-244z" />
<glyph unicode="&#x417;" horiz-adv-x="1388" d="M90 481h189q0 -102 31.5 -167.5t88 -104.5t133 -54.5t166.5 -15.5q59 0 128 11.5t127.5 42t97.5 82t39 131.5q0 82 -30 137t-81 89t-119.5 49t-144.5 15h-156v164h113q63 0 126.5 14.5t115 43t83 71.5t31.5 103q0 84 -35 135t-87 77.5t-112.5 35t-109.5 8.5 q-66 0 -133.5 -14.5t-121.5 -48.5t-89 -92t-35 -146h-188q0 61 23.5 144t89 156.5t180 126t297.5 52.5q115 0 212 -30t167.5 -83t109.5 -129t39 -170q0 -74 -27.5 -131t-67.5 -97t-85 -63.5t-82 -29.5q70 -14 129 -47t102 -82.5t67.5 -116t24.5 -146.5q0 -125 -53 -210 t-139 -136t-191.5 -72.5t-210.5 -21.5q-203 0 -323.5 44t-185 118t-84 167t-19.5 191z" />
<glyph unicode="&#x418;" horiz-adv-x="1495" d="M152 0v1487h200v-1217h8l754 1217h229v-1487h-200v1200h-4l-756 -1200h-231z" />
<glyph unicode="&#x419;" horiz-adv-x="1495" d="M152 0v1487h200v-1217h8l754 1217h229v-1487h-200v1200h-4l-756 -1200h-231zM424 1884h102q10 -35 23.5 -62.5t37 -49t58.5 -32.5t88 -11q104 0 146.5 44t60.5 111h100q-4 -29 -13 -76t-41 -93t-91 -79.5t-162 -33.5q-102 0 -161.5 33.5t-91 79.5t-43 93t-13.5 76z" />
<glyph unicode="&#x41a;" horiz-adv-x="1382" d="M152 0v1487h200v-721l721 721h277l-619 -600l635 -887h-260l-520 745l-234 -223v-522h-200z" />
<glyph unicode="&#x41b;" horiz-adv-x="1433" d="M29 -16v168q12 -4 37.5 -6.5t56.5 -2.5q59 0 96 37t58.5 113t28.5 190.5t7 268.5v735h969v-1487h-201v1309h-567v-621q0 -215 -25.5 -354t-71.5 -220t-110.5 -113t-140.5 -32q-33 0 -68 4t-69 11z" />
<glyph unicode="&#x41c;" horiz-adv-x="1724" d="M152 0v1487h286l422 -1258h4l424 1258h285v-1487h-195v879q0 16 1 57t2 93t2 110.5t1 109.5h-2l-419 -1249h-199l-418 1249h-6q0 -51 1 -109.5t2 -110.5t2 -93t1 -57v-879h-194z" />
<glyph unicode="&#x41d;" horiz-adv-x="1480" d="M152 0v1487h200v-615h776v615h201v-1487h-201v694h-776v-694h-200z" />
<glyph unicode="&#x41e;" horiz-adv-x="1630" d="M92 743q0 121 35 258.5t119 254t222 193.5t347 77t347 -77t222 -193.5t119 -254t35 -258.5t-35 -258t-119 -253.5t-222 -193.5t-347 -77t-347 77t-222 193.5t-119 254t-35 257.5zM299 748q0 -131 35 -243t101.5 -193t162.5 -127t217 -46t217 45t163 126t101.5 191.5 t34.5 241.5t-34.5 242t-101.5 191.5t-163 126t-217 45.5t-217 -44t-162.5 -124t-101.5 -190.5t-35 -241.5z" />
<glyph unicode="&#x41f;" horiz-adv-x="1480" d="M152 0v1487h1177v-1487h-201v1309h-776v-1309h-200z" />
<glyph unicode="&#x420;" horiz-adv-x="1353" d="M152 0v1487h669q102 0 184 -32t138.5 -87t87.5 -132t31 -167q0 -78 -24 -156.5t-76 -142t-136 -103.5t-205 -40h-469v-627h-200zM352 799h400q68 0 123 13t95 45t62.5 83t22.5 127q0 70 -22.5 117t-62.5 76.5t-94.5 42t-115.5 12.5h-408v-516z" />
<glyph unicode="&#x421;" horiz-adv-x="1495" d="M92 752q0 172 47 314t136.5 244.5t218.5 159t290 56.5q143 0 253 -41t185.5 -108.5t118.5 -155.5t54 -183h-195q-20 98 -67.5 158.5t-106.5 94.5t-123.5 45.5t-118.5 11.5q-100 0 -188 -37t-154.5 -111t-104.5 -184.5t-38 -257.5q0 -131 24.5 -245t83 -197t151.5 -130 t233 -47q49 0 111.5 15.5t123.5 59.5t112.5 124t75.5 209h195q-20 -139 -68.5 -237.5t-111 -164t-133 -102.5t-136 -55.5t-119 -22.5t-81.5 -4q-127 0 -247 43t-214 138.5t-150.5 245t-56.5 364.5z" />
<glyph unicode="&#x422;" horiz-adv-x="1263" d="M29 1309v178h1208v-178h-504v-1309h-201v1309h-503z" />
<glyph unicode="&#x423;" horiz-adv-x="1363" d="M14 1487h215l457 -1016l432 1016h215l-557 -1251q-37 -86 -74.5 -139.5t-77.5 -84t-82 -42t-87 -11.5q-39 0 -77 5t-69 11v166q47 -8 117 -8q29 0 48.5 5t36.5 20.5t35.5 44t43.5 73.5z" />
<glyph unicode="&#x424;" horiz-adv-x="1722" d="M74 743q0 113 42 219.5t128 189.5t216 132t304 49v154h199v-154q174 0 304 -49t216 -132t128 -189.5t42 -219.5q0 -115 -42 -220t-128 -188t-216 -132t-304 -49v-154h-199v154q-176 0 -305 49t-215 132t-128 188.5t-42 219.5zM281 743q0 -115 35.5 -196.5t100 -134 t153.5 -77t194 -24.5v865q-104 0 -193.5 -25t-154 -77t-100 -134t-35.5 -197zM963 311q104 0 192 24.5t152.5 77t101.5 134t37 196.5t-37 197t-101.5 134t-152.5 77t-192 25v-865z" />
<glyph unicode="&#x425;" horiz-adv-x="1378" d="M39 0l530 762l-497 725h252l376 -569l377 569h240l-498 -725l520 -762h-247l-400 610l-411 -610h-242z" />
<glyph unicode="&#x426;" horiz-adv-x="1503" d="M152 0v1487h200v-1309h776v1309h201v-1309h131v-500h-184v322h-1124z" />
<glyph unicode="&#x427;" horiz-adv-x="1406" d="M152 1024v463h200v-459q0 -66 23.5 -110t63.5 -69.5t92.5 -36.5t111.5 -11q111 0 213 18.5t199 34.5v633h200v-1487h-200v688q-96 -23 -217 -44t-256 -21q-84 0 -162 18t-137.5 64.5t-95 123t-35.5 195.5z" />
<glyph unicode="&#x428;" horiz-adv-x="1998" d="M152 0v1487h200v-1309h547v1309h201v-1309h547v1309h200v-1487h-1695z" />
<glyph unicode="&#x429;" horiz-adv-x="2013" d="M152 0v1487h200v-1309h547v1309h201v-1309h547v1309h200v-1309h131v-500h-182v322h-1644z" />
<glyph unicode="&#x42a;" horiz-adv-x="1492" d="M-2 1315v172h473v-615h483q121 0 206 -42t138.5 -107.5t78 -146t24.5 -158.5q0 -90 -31 -167t-88 -132.5t-139 -87t-182 -31.5h-691v1315h-272zM471 178h430q61 0 115.5 11.5t93.5 39t61.5 74.5t22.5 117q0 76 -22.5 128t-63.5 85t-97.5 47t-123.5 14h-416v-516z" />
<glyph unicode="&#x42b;" horiz-adv-x="1820" d="M152 0v1487h200v-615h484q121 0 205.5 -42t138 -107.5t78 -146t24.5 -158.5q0 -90 -30.5 -167t-88 -132.5t-139.5 -87t-182 -31.5h-690zM352 178h430q61 0 115.5 11.5t93.5 39t61.5 74.5t22.5 117q0 76 -22.5 128t-63.5 85t-97 47t-124 14h-416v-516zM1468 0v1487h201 v-1487h-201z" />
<glyph unicode="&#x42c;" horiz-adv-x="1374" d="M152 0v1487h200v-615h484q121 0 205.5 -42t138 -107.5t78 -146t24.5 -158.5q0 -90 -30.5 -167t-88 -132.5t-139.5 -87t-182 -31.5h-690zM352 178h430q61 0 115.5 11.5t93.5 39t61.5 74.5t22.5 117q0 76 -22.5 128t-63.5 85t-97 47t-124 14h-416v-516z" />
<glyph unicode="&#x42d;" horiz-adv-x="1495" d="M86 485h195q20 -106 74.5 -173.5t120 -105.5t133 -52.5t116.5 -14.5q119 0 205 41t142 114t86 172t38 214h-670v162h670q-25 248 -148.5 377t-316.5 129q-57 0 -123.5 -11.5t-128 -45.5t-111 -94t-73.5 -159h-195q18 94 65.5 182.5t125.5 156t187.5 108.5t252.5 41 q160 0 285 -57.5t211 -161t131 -245.5t45 -310q0 -215 -56.5 -364.5t-150.5 -245t-214 -138.5t-247 -43q-29 0 -82 5t-118.5 23.5t-136 53.5t-133 93.5t-111 143.5t-68.5 205z" />
<glyph unicode="&#x42e;" horiz-adv-x="2037" d="M152 0v1487h200v-615h236q14 113 57 230t123 211t202 153.5t294 59.5q199 0 329.5 -77t209.5 -193.5t111 -254t32 -258.5t-34 -258t-115 -253.5t-216 -193.5t-338 -77q-178 0 -301 69.5t-198.5 177t-112.5 237.5t-43 249h-236v-694h-200zM788 743q0 -131 33 -241.5 t94.5 -191.5t149.5 -126t199 -45q117 0 206 45t148 126t90 191.5t31 241.5t-33 242t-94.5 191.5t-149.5 126t-198 45.5q-117 0 -205 -45.5t-148.5 -126t-91.5 -191.5t-31 -242z" />
<glyph unicode="&#x42f;" horiz-adv-x="1441" d="M109 0l421 637q-57 10 -124.5 35.5t-127 76t-99.5 130t-40 200.5q0 117 42 196t110.5 126t157 66.5t180.5 19.5h661v-1487h-200v637h-332l-398 -637h-251zM346 1067q0 -78 30 -128t76 -79t103 -40t113 -11h422v506h-476q-37 0 -84 -6t-88 -32t-68.5 -75t-27.5 -135z" />
<glyph unicode="&#x430;" horiz-adv-x="1148" d="M74 283q0 49 11 105t53 106.5t124 88.5t225 48q106 8 168 18t92.5 26.5t38 43t7.5 69.5q0 90 -61.5 132.5t-190.5 42.5q-78 0 -124 -21.5t-73 -52.5t-36 -68t-13 -67h-168q0 98 31.5 166.5t90 111.5t141.5 62.5t183 19.5q33 0 99.5 -8t134 -39t118 -91.5t50.5 -164.5 v-618q0 -68 59 -68q12 0 27.5 2t32.5 6v-133q-23 -6 -45.5 -13t-53.5 -7q-61 0 -97 14t-56.5 37.5t-28.5 53.5t-10 60q-27 -29 -61.5 -59.5t-82 -57t-107.5 -43t-140 -16.5q-74 0 -136.5 22.5t-107.5 63.5t-69.5 98.5t-24.5 129.5zM260 311q0 -90 48 -140t151 -50 q63 0 123.5 19.5t106.5 53t75 79.5t29 102v178q-10 -8 -26.5 -16.5t-49.5 -15.5t-86 -16t-137 -20q-35 -4 -75 -13t-76 -27.5t-59.5 -50.5t-23.5 -83z" />
<glyph unicode="&#x431;" horiz-adv-x="1167" d="M74 659q0 143 31.5 266.5t96 218.5t160 156.5t222.5 79.5q72 10 118 19.5t74.5 21t44 26.5t25.5 40h166q-29 -76 -66 -121t-82 -69.5t-99 -36t-118 -19.5q-180 -23 -278.5 -117t-137.5 -268q66 92 168.5 149.5t212.5 57.5q113 0 201 -45t146.5 -121t89 -172t30.5 -199 q0 -102 -29.5 -201.5t-93 -178t-162 -128t-233.5 -49.5q-104 0 -193 38t-155 121t-102.5 214t-36.5 317zM260 526q0 -63 12.5 -133.5t47 -129t97.5 -97.5t161 -39t160.5 46t96 110.5t46 132t12.5 110.5t-12.5 108.5t-47 127t-96 105.5t-159.5 44q-84 0 -144.5 -37.5 t-99.5 -94t-56.5 -124t-17.5 -129.5z" />
<glyph unicode="&#x432;" horiz-adv-x="1116" d="M133 0v1083h492q90 0 156.5 -22.5t110.5 -60t65.5 -88t21.5 -105.5q0 -49 -15.5 -88t-41 -67.5t-58.5 -48t-67 -30.5q43 -10 87 -29.5t78.5 -53t57 -84t22.5 -119.5q0 -129 -101 -208t-296 -79h-512zM315 152h326q106 0 162.5 37.5t56.5 129.5q0 88 -63.5 130.5 t-173.5 42.5h-308v-340zM315 635h265q119 0 168 37t49 127q0 66 -46 99.5t-167 33.5h-269v-297z" />
<glyph unicode="&#x433;" horiz-adv-x="858" d="M133 0v1083h705v-151h-523v-932h-182z" />
<glyph unicode="&#x434;" horiz-adv-x="1177" d="M20 152h121q76 141 98.5 283.5t22.5 295.5v352h758v-931h121v-469h-166v317h-789v-317h-166v469zM330 152h508v780h-400v-197q0 -174 -22.5 -312t-85.5 -271z" />
<glyph unicode="&#x435;" horiz-adv-x="1130" d="M74 512q0 127 30.5 236.5t94 191.5t161 128t232.5 46q117 0 204 -45t145 -128t87 -199.5t29 -260.5h-789q0 -168 78 -261t236 -93q63 0 114.5 22.5t88 54.5t56 68.5t19.5 67.5h182q-16 -63 -46.5 -129t-87 -120t-142.5 -88t-211 -34q-115 0 -204 41t-150.5 113t-94 172 t-32.5 217zM268 627h602q-4 63 -20 121.5t-52 103.5t-92.5 71.5t-140.5 26.5q-61 0 -115.5 -26.5t-94.5 -71.5t-63.5 -103.5t-23.5 -121.5z" />
<glyph unicode="&#x436;" horiz-adv-x="1503" d="M6 0l438 606l-419 477h231l403 -479v479h175v-483l403 483h233l-421 -477l438 -606h-217l-344 485l-92 -96v-389h-175v389l-81 96l-353 -485h-219z" />
<glyph unicode="&#x437;" horiz-adv-x="1032" d="M57 340h179q12 -115 76.5 -164t205.5 -49q49 0 95 10t81 31.5t55.5 56.5t20.5 82q0 96 -66.5 138t-166.5 42h-109v144h98q119 0 164 43t45 125q0 45 -20.5 74.5t-52 48t-70.5 26.5t-78 8q-117 0 -174 -44t-76 -138h-174q6 51 30.5 111.5t74 111t127 84t192.5 33.5 q92 0 168 -24.5t129 -65.5t83 -98.5t30 -120.5q0 -53 -16.5 -94t-44 -70t-61.5 -48.5t-67 -27.5q37 -12 76 -32.5t71.5 -53.5t54 -81t21.5 -115q0 -76 -33.5 -134.5t-93 -98.5t-138.5 -60.5t-167 -20.5q-135 0 -222 31t-139 82t-75.5 118.5t-32.5 139.5z" />
<glyph unicode="&#x438;" horiz-adv-x="1173" d="M133 0v1083h182v-811h4l531 811h190v-1083h-182v811h-4l-530 -811h-191z" />
<glyph unicode="&#x439;" horiz-adv-x="1173" d="M133 0v1083h182v-811h4l531 811h190v-1083h-182v811h-4l-530 -811h-191zM291 1487h102q6 -35 19.5 -64.5t38 -52t62.5 -35t91 -12.5t89 13.5t59.5 36t38 52t24.5 62.5h100q0 -29 -9 -76t-42 -93t-93 -80t-163 -34q-104 0 -167.5 33t-96.5 79t-43 94t-10 77z" />
<glyph unicode="&#x43a;" horiz-adv-x="1042" d="M133 0v1083h182v-471l465 471h232l-414 -403l438 -680h-217l-350 553l-154 -143v-410h-182z" />
<glyph unicode="&#x43b;" horiz-adv-x="1167" d="M27 0v141q10 -2 30.5 -3t42.5 -1q39 0 66 12.5t43 50.5t24.5 109.5t8.5 190.5v583h792v-1083h-182v932h-428v-494q0 -246 -76 -350t-205 -104q-37 0 -65.5 5t-50.5 11z" />
<glyph unicode="&#x43c;" horiz-adv-x="1441" d="M133 0v1083h256l334 -850l334 850h252v-1083h-179v629q0 43 1.5 84t3.5 75q2 37 6 74h-15l-340 -862h-131l-340 862h-14l4 -74q2 -35 4 -75.5t2 -83.5v-629h-178z" />
<glyph unicode="&#x43d;" horiz-adv-x="1136" d="M133 0v1083h182v-436h506v436h183v-1083h-183v496h-506v-496h-182z" />
<glyph unicode="&#x43e;" d="M74 543q0 104 29.5 206.5t91 183.5t156.5 131t224 50t224.5 -50t157 -131t91 -183.5t29.5 -206.5t-29.5 -207t-91 -184.5t-156.5 -132t-225 -50.5q-129 0 -224 50.5t-156.5 132t-91 184.5t-29.5 207zM260 543q0 -55 12.5 -127t47 -136.5t96 -108.5t159.5 -44t160 44 t96.5 108.5t47 136t12.5 127.5q0 55 -12.5 125.5t-47 135t-96 108.5t-160.5 44q-98 0 -159.5 -44t-96 -108.5t-47 -135t-12.5 -125.5z" />
<glyph unicode="&#x43f;" horiz-adv-x="1136" d="M133 0v1083h871v-1083h-183v932h-506v-932h-182z" />
<glyph unicode="&#x440;" horiz-adv-x="1153" d="M133 -428v1511h170v-153q23 33 50.5 65.5t65.5 59t89 43t123 16.5q106 0 190 -41t141.5 -113.5t87 -172t29.5 -214.5q0 -96 -21.5 -202.5t-75.5 -195.5t-145.5 -147.5t-228.5 -58.5q-111 0 -182.5 46t-110.5 112v-555h-182zM315 545q0 -88 17.5 -165t53.5 -133.5t91 -88 t129 -31.5q43 0 93.5 16.5t93.5 58.5t71.5 112.5t28.5 179.5q0 68 -7 146.5t-35 148t-84.5 115.5t-154.5 46q-106 0 -165.5 -43t-89 -106.5t-36 -133t-6.5 -122.5z" />
<glyph unicode="&#x441;" horiz-adv-x="1044" d="M74 512q0 125 30.5 234.5t94 191.5t162 129t231.5 47q106 0 181 -35t123 -92t71.5 -128t29.5 -140h-176q-16 111 -77.5 171t-178.5 60q-84 0 -141 -36.5t-92 -95t-49.5 -131.5t-14.5 -144q0 -70 11.5 -143.5t43 -134t89 -99.5t151.5 -39q92 0 164 65.5t94 190.5h176 q-6 -66 -31.5 -138.5t-76.5 -134t-132 -101.5t-200 -40q-115 0 -204 41t-151.5 113t-95 172t-32.5 217z" />
<glyph unicode="&#x442;" horiz-adv-x="933" d="M12 932v151h895v-151h-356v-932h-182v932h-357z" />
<glyph unicode="&#x443;" horiz-adv-x="1034" d="M23 1083h206l289 -882h4l289 882h201q-47 -133 -106.5 -301t-123 -342t-128 -340t-119.5 -297q-31 -70 -57.5 -116.5t-62.5 -75.5t-87.5 -41t-128.5 -12q-20 0 -38 5t-40 11v166q16 -6 45 -12.5t65 -6.5q35 0 56.5 7.5t41 34t41 75.5t54.5 133z" />
<glyph unicode="&#x444;" horiz-adv-x="1701" d="M80 557q0 117 27.5 218.5t79 177t125 118.5t163.5 43q61 0 108.5 -15.5t82 -39t60.5 -51t42 -50.5v529h174v-531q16 23 40 50.5t58.5 51t80.5 40t108 16.5q90 0 164.5 -43t127 -117.5t81 -176t28.5 -218.5q0 -129 -23.5 -237.5t-73.5 -186.5t-128 -122t-186 -44 q-109 0 -172.5 44t-100.5 102h-4v-543h-174v555q-16 -29 -43 -56.5t-61.5 -50t-79.5 -37t-99 -14.5q-109 0 -185.5 43t-125.5 122t-71.5 186.5t-22.5 236.5zM268 537q0 -207 59.5 -308.5t188.5 -101.5q37 0 81 14.5t82 56.5t63.5 114.5t25.5 189.5q0 92 -13.5 174t-42 144.5 t-77.5 99t-119 36.5q-66 0 -113 -35.5t-76.5 -94t-44 -134t-14.5 -155.5zM942 508q0 -117 23.5 -190.5t59.5 -116.5t79 -58.5t80 -15.5q127 0 192.5 102.5t65.5 309.5q0 80 -16.5 155.5t-48 134t-81 93t-112.5 34.5q-72 0 -119 -35.5t-74.5 -97t-38 -142.5t-10.5 -173z" />
<glyph unicode="&#x445;" horiz-adv-x="1032" d="M23 0l378 557l-360 526h233l250 -381l250 381h223l-364 -526l379 -557h-232l-268 408l-260 -408h-229z" />
<glyph unicode="&#x446;" horiz-adv-x="1171" d="M133 0v1083h182v-931h508v931h183v-931h118v-469h-163v317h-828z" />
<glyph unicode="&#x447;" horiz-adv-x="1095" d="M113 725v358h182v-331q0 -45 15.5 -75t43 -47.5t63.5 -24.5t77 -7q31 0 66.5 2t74.5 6t77 11.5t68 17.5v448h183v-1083h-183v483q-82 -20 -166 -30.5t-176 -10.5q-61 0 -119.5 12.5t-104.5 45t-73.5 87t-27.5 138.5z" />
<glyph unicode="&#x448;" horiz-adv-x="1726" d="M133 0v1083h182v-931h457v931h182v-931h457v931h182v-1083h-1460z" />
<glyph unicode="&#x449;" horiz-adv-x="1763" d="M133 0v1083h182v-931h455v931h182v-931h455v931h182v-931h121v-469h-166v317h-1411z" />
<glyph unicode="&#x44a;" horiz-adv-x="1185" d="M0 932v151h442v-436h258q104 0 181 -25.5t128.5 -69.5t77 -105.5t25.5 -133.5q0 -63 -22.5 -119.5t-71.5 -99.5t-126 -68.5t-187 -25.5h-445v932h-260zM442 152h260q125 0 174.5 39.5t49.5 132.5q0 172 -224 172h-260v-344z" />
<glyph unicode="&#x44b;" horiz-adv-x="1486" d="M133 0v1083h182v-436h258q104 0 181 -25.5t128.5 -69.5t77 -105.5t25.5 -133.5q0 -63 -22.5 -119.5t-71.5 -99.5t-126 -68.5t-187 -25.5h-445zM315 152h260q125 0 174.5 39.5t49.5 132.5q0 172 -224 172h-260v-344zM1171 0v1083h183v-1083h-183z" />
<glyph unicode="&#x44c;" horiz-adv-x="1058" d="M133 0v1083h182v-436h258q104 0 181 -25.5t128.5 -69.5t77 -105.5t25.5 -133.5q0 -63 -22.5 -119.5t-71.5 -99.5t-126 -68.5t-187 -25.5h-445zM315 152h260q125 0 174.5 39.5t49.5 132.5q0 172 -224 172h-260v-344z" />
<glyph unicode="&#x44d;" horiz-adv-x="1056" d="M47 338h178q29 -104 98.5 -157.5t170.5 -53.5q74 0 129 31.5t92 84t55 116t18 128.5h-387v144h387q0 59 -19 116.5t-57 102.5t-93.5 72.5t-126.5 27.5q-117 0 -178.5 -57t-84.5 -168h-176q6 70 39 139.5t88.5 124.5t132 90t168.5 35q129 0 223.5 -45t156 -125t92 -189.5 t30.5 -236.5q0 -117 -32.5 -217t-95 -174t-153 -116t-202.5 -42q-109 0 -189 34t-135 88t-86 119.5t-43 127.5z" />
<glyph unicode="&#x44e;" horiz-adv-x="1564" d="M133 0v1083h182v-436h215q12 92 46 177t92.5 149.5t142.5 102.5t199 38q129 0 221 -50t149.5 -131t84 -183.5t26.5 -206.5t-26.5 -207t-84 -183.5t-149.5 -131t-221 -50.5q-123 0 -210 45t-144.5 119t-88 168t-37.5 193h-215v-496h-182zM717 543q0 -55 9 -126t40 -135.5 t88 -108.5t156 -44q98 0 155.5 44t88 108.5t40 135t9.5 126.5q0 55 -11.5 125.5t-43 135t-89 108.5t-149.5 44q-98 0 -155.5 -44t-88.5 -108.5t-40 -135t-9 -125.5z" />
<glyph unicode="&#x44f;" horiz-adv-x="1071" d="M61 0l269 463q-37 8 -80 30.5t-80 60.5t-60.5 91t-23.5 123q0 154 103.5 234.5t287.5 80.5h461v-1083h-182v457h-232l-256 -457h-207zM268 766q0 -166 203 -166h285v332h-285q-203 0 -203 -166z" />
<glyph unicode="&#x451;" horiz-adv-x="1130" d="M74 512q0 127 30.5 236.5t94 191.5t161 128t232.5 46q117 0 204 -45t145 -128t87 -199.5t29 -260.5h-789q0 -168 78 -261t236 -93q63 0 114.5 22.5t88 54.5t56 68.5t19.5 67.5h182q-16 -63 -46.5 -129t-87 -120t-142.5 -88t-211 -34q-115 0 -204 41t-150.5 113t-94 172 t-32.5 217zM268 627h602q-4 63 -20 121.5t-52 103.5t-92.5 71.5t-140.5 26.5q-61 0 -115.5 -26.5t-94.5 -71.5t-63.5 -103.5t-23.5 -121.5zM305 1280v207h182v-207h-182zM678 1280v207h182v-207h-182z" />
<glyph unicode="&#x452;" horiz-adv-x="1146" d="M10 1198v152h123v137h182v-137h322v-152h-322v-260h4q18 25 46 55.5t66 57t88 45t116 18.5q63 0 129.5 -15.5t122 -57.5t91.5 -115.5t36 -188.5q0 -186 -17.5 -353t-72 -296t-151.5 -213t-257 -102v151q104 18 166.5 81t95.5 164t43 237.5t10 302.5q0 55 -9 100 t-32.5 75.5t-65.5 48t-108 17.5q-55 0 -109 -17.5t-97 -59.5t-69 -111.5t-26 -171.5v-590h-182v1198h-123z" />
<glyph unicode="&#x453;" horiz-adv-x="858" d="M133 0v1083h705v-151h-523v-932h-182zM358 1280l172 236h234l-266 -236h-140z" />
<glyph unicode="&#x454;" horiz-adv-x="1034" d="M45 518q0 127 32 236.5t93 189.5t154.5 125t216.5 45q92 0 171 -35t136 -90t92 -124.5t41 -139.5h-182q-23 111 -84.5 168t-177.5 57q-72 0 -127.5 -27.5t-93 -72.5t-57 -102.5t-19.5 -116.5h387v-144h-387q0 -66 18 -129t55 -115.5t92.5 -84t129.5 -31.5q205 0 264 211 h182q-12 -61 -43 -127t-86 -120t-135 -88t-189 -34q-115 0 -203.5 42t-151 116t-95.5 174t-33 217z" />
<glyph unicode="&#x455;" horiz-adv-x="1034" d="M66 348h176q0 -31 8 -68.5t37.5 -71.5t87 -57.5t153.5 -23.5q49 0 93.5 9t79 29.5t55 53.5t20.5 80q0 33 -14 57.5t-50 46t-99.5 41t-161.5 37.5q-176 35 -263.5 97.5t-87.5 189.5q0 88 34 153.5t91.5 108.5t131 63.5t153.5 20.5q96 0 164.5 -21.5t115 -55t72 -73.5 t39.5 -78t18.5 -69t4.5 -43h-176q0 25 -7.5 56.5t-34 59.5t-77.5 47t-137 19q-20 0 -56.5 -5t-72 -21.5t-61.5 -46t-26 -80.5q0 -35 12.5 -57.5t45.5 -40t89 -34t142 -36.5q119 -29 196 -59.5t121 -67.5t60 -81t16 -99q0 -84 -32.5 -150.5t-90 -113t-135 -71t-170.5 -24.5 q-162 0 -253 41t-137 99.5t-59 124t-15 114.5z" />
<glyph unicode="&#x456;" horiz-adv-x="448" d="M133 0v1083h182v-1083h-182zM133 1280v207h182v-207h-182z" />
<glyph unicode="&#x457;" horiz-adv-x="573" d="M33 1280v207h182v-207h-182zM195 0v1083h182v-1083h-182zM356 1280v207h183v-207h-183z" />
<glyph unicode="&#x458;" horiz-adv-x="448" d="M-39 -270h37q41 0 66.5 3t41 17t21.5 40t6 73v1220h182v-1241q0 -35 -5 -83t-31.5 -91t-83 -72.5t-156.5 -29.5q-39 0 -78 6v158zM133 1280v207h182v-207h-182z" />
<glyph unicode="&#x459;" horiz-adv-x="1777" d="M27 0v141q10 -2 30.5 -3t42.5 -1q39 0 66 12.5t43 50.5t24.5 109.5t8.5 190.5v583h792v-436h258q104 0 181 -25.5t128.5 -69.5t77 -105.5t25.5 -133.5q0 -63 -22.5 -119.5t-71.5 -99.5t-126 -68.5t-188 -25.5h-444v932h-428v-494q0 -246 -76 -350t-205 -104 q-37 0 -65.5 5t-50.5 11zM1034 152h260q125 0 174.5 39.5t49.5 132.5q0 172 -224 172h-260v-344z" />
<glyph unicode="&#x45a;" horiz-adv-x="1746" d="M133 0v1083h182v-436h506v436h183v-436h258q104 0 181 -25.5t128 -69.5t76.5 -105.5t25.5 -133.5q0 -63 -22.5 -119.5t-71.5 -99.5t-126 -68.5t-187 -25.5h-445v496h-506v-496h-182zM1004 152h260q125 0 174 39.5t49 132.5q0 172 -223 172h-260v-344z" />
<glyph unicode="&#x45b;" horiz-adv-x="1146" d="M10 1198v152h123v137h182v-137h322v-152h-322v-260h4q18 25 46 55.5t66 57t88 45t116 18.5q63 0 129.5 -15.5t122 -57.5t91.5 -115.5t36 -188.5v-737h-183v709q0 55 -9 100t-32.5 75.5t-65.5 48t-108 17.5q-55 0 -109 -17.5t-97 -59.5t-69 -111.5t-26 -171.5v-590h-182 v1198h-123z" />
<glyph unicode="&#x45c;" horiz-adv-x="1042" d="M133 0v1083h182v-471l465 471h232l-414 -403l438 -680h-217l-350 553l-154 -143v-410h-182zM442 1280l172 236h234l-266 -236h-140z" />
<glyph unicode="&#x45e;" horiz-adv-x="1034" d="M23 1083h206l289 -882h4l289 882h201q-47 -133 -106.5 -301t-123 -342t-128 -340t-119.5 -297q-31 -70 -57.5 -116.5t-62.5 -75.5t-87.5 -41t-128.5 -12q-20 0 -38 5t-40 11v166q16 -6 45 -12.5t65 -6.5q35 0 56.5 7.5t41 34t41 75.5t54.5 133zM203 1487h102 q6 -35 19.5 -64.5t38 -52t62.5 -35t91 -12.5t89 13.5t59.5 36t38 52t24.5 62.5h100q0 -29 -9 -76t-42 -93t-93 -80t-163 -34q-104 0 -167.5 33t-96.5 79t-43 94t-10 77z" />
<glyph unicode="&#x45f;" horiz-adv-x="1144" d="M133 0v1083h182v-931h514v931h183v-1083h-348v-317h-183v317h-348z" />
<glyph unicode="&#x490;" horiz-adv-x="1142" d="M152 0v1487h772v174h200v-352h-772v-1309h-200z" />
<glyph unicode="&#x491;" horiz-adv-x="858" d="M133 0v1083h522v134h183v-285h-523v-932h-182z" />
<glyph unicode="&#x2000;" horiz-adv-x="972" />
<glyph unicode="&#x2001;" horiz-adv-x="1944" />
<glyph unicode="&#x2002;" horiz-adv-x="972" />
<glyph unicode="&#x2003;" horiz-adv-x="1944" />
<glyph unicode="&#x2004;" horiz-adv-x="648" />
<glyph unicode="&#x2005;" horiz-adv-x="486" />
<glyph unicode="&#x2006;" horiz-adv-x="324" />
<glyph unicode="&#x2007;" horiz-adv-x="324" />
<glyph unicode="&#x2008;" horiz-adv-x="243" />
<glyph unicode="&#x2009;" horiz-adv-x="388" />
<glyph unicode="&#x200a;" horiz-adv-x="108" />
<glyph unicode="&#x2010;" horiz-adv-x="690" d="M92 449v149h506v-149h-506z" />
<glyph unicode="&#x2011;" horiz-adv-x="690" d="M92 449v149h506v-149h-506z" />
<glyph unicode="&#x2012;" horiz-adv-x="690" d="M92 449v149h506v-149h-506z" />
<glyph unicode="&#x2013;" d="M0 449v149h1151v-149h-1151z" />
<glyph unicode="&#x2014;" horiz-adv-x="2068" d="M0 449v149h2068v-149h-2068z" />
<glyph unicode="&#x2018;" horiz-adv-x="458" d="M133 973v203q0 59 10.5 111t35 94t66.5 73t105 45v-96q-41 -6 -63.5 -29.5t-32.5 -55.5t-12 -65.5t-2 -60.5h110v-219h-217z" />
<glyph unicode="&#x2019;" horiz-adv-x="458" d="M109 963v94q33 2 54 22.5t33.5 49t17.5 64.5t5 73h-110v219h217v-203q0 -104 -28 -166.5t-64.5 -95.5t-72.5 -44t-52 -13z" />
<glyph unicode="&#x201a;" horiz-adv-x="573" d="M178 0v219h217v-203q0 -104 -27.5 -166.5t-64.5 -95.5t-72.5 -44t-52.5 -13v94q33 2 54.5 22.5t34 49t17.5 64.5t5 73h-111z" />
<glyph unicode="&#x201c;" horiz-adv-x="690" d="M80 973v203q0 59 10 111t35 94t65.5 73t104.5 45v-96q-41 -6 -63.5 -29.5t-33 -55.5t-12.5 -65.5t-2 -60.5h111v-219h-215zM420 973v203q0 59 10 111t34.5 94t66.5 73t104 45v-96q-41 -6 -62.5 -29.5t-32 -55.5t-12.5 -65.5t-2 -60.5h109v-219h-215z" />
<glyph unicode="&#x201d;" horiz-adv-x="690" d="M55 963v94q33 2 54.5 22.5t34 49t17.5 64.5t5 73h-111v219h217v-203q0 -104 -27.5 -166.5t-64.5 -95.5t-72.5 -44t-52.5 -13zM395 963v94q33 2 54.5 22.5t34 49t17.5 64.5t5 73h-111v219h217v-203q0 -104 -27.5 -166.5t-64.5 -95.5t-72.5 -44t-52.5 -13z" />
<glyph unicode="&#x201e;" horiz-adv-x="690" d="M55 0v219h217v-203q0 -104 -27.5 -166.5t-64.5 -95.5t-72.5 -44t-52.5 -13v94q33 2 54.5 22.5t34 49t17.5 64.5t5 73h-111zM395 0v219h217v-203q0 -104 -27.5 -166.5t-64.5 -95.5t-72.5 -44t-52.5 -13v94q33 2 54.5 22.5t34 49t17.5 64.5t5 73h-111z" />
<glyph unicode="&#x2026;" horiz-adv-x="2068" d="M236 0v219h217v-219h-217zM926 0v219h217v-219h-217zM1616 0v219h217v-219h-217z" />
<glyph unicode="&#x202f;" horiz-adv-x="388" />
<glyph unicode="&#x2039;" horiz-adv-x="690" d="M182 479v189l326 256v-183l-217 -168l217 -167v-183z" />
<glyph unicode="&#x203a;" horiz-adv-x="690" d="M182 223v183l217 167l-217 168v183l326 -256v-189z" />
<glyph unicode="&#x205f;" horiz-adv-x="486" />
<glyph unicode="&#x2122;" horiz-adv-x="2068" d="M96 1360v125h676v-125h-262v-727h-152v727h-262zM922 633v852h231l244 -627l239 627h232v-852h-150v692h-4l-268 -692h-103l-268 692h-4v-692h-149z" />
<glyph unicode="&#xe000;" horiz-adv-x="1085" d="M0 0v1085h1085v-1085h-1085z" />
</font>
</defs>
</svg>
