<?xml version="1.0" standalone="no"?>
<!DOCTYPE svg PUBLIC "-//W3C//DTD SVG 1.1//EN" "http://www.w3.org/Graphics/SVG/1.1/DTD/svg11.dtd" >
<svg xmlns="http://www.w3.org/2000/svg">
<metadata></metadata>
<defs>
<font id="heliosregular" horiz-adv-x="1150" >
<font-face units-per-em="2048" ascent="1638" descent="-410" />
<missing-glyph horiz-adv-x="575" />
<glyph horiz-adv-x="2048" />
<glyph horiz-adv-x="2048" />
<glyph unicode="&#xd;" horiz-adv-x="575" />
<glyph unicode=" "  horiz-adv-x="575" />
<glyph unicode="&#x09;" horiz-adv-x="575" />
<glyph unicode="&#xa0;" horiz-adv-x="575" />
<glyph unicode="!" horiz-adv-x="690" d="M195 0v293h303v-293h-303zM195 1108v379h303v-379l-74 -700h-154z" />
<glyph unicode="&#x22;" horiz-adv-x="978" d="M203 926v561h203v-561h-203zM573 926v561h203v-561h-203z" />
<glyph unicode="#" d="M37 412l26 186h201l35 248h-201l25 186h201l57 410h194l-57 -410h203l55 410h195l-56 -410h197l-25 -186h-198l-37 -248h201l-25 -186h-201l-57 -412h-195l58 412h-201l-57 -412h-195l58 412h-201zM459 598h198l37 248h-200z" />
<glyph unicode="$" d="M63 444h271q4 -55 13 -98t28.5 -75.5t56.5 -54t96 -32.5v434q-76 20 -153.5 48t-140 75t-101.5 118t-39 179q0 84 25.5 162t79 137.5t135.5 95t194 35.5v134h95v-134q57 -6 129.5 -22t137 -61.5t112 -128t57.5 -220.5h-266q-4 72 -20.5 114t-39 64.5t-51.5 28.5t-59 6 v-387q147 -47 227 -87t119 -77q41 -39 63.5 -82t33.5 -82.5t13 -72.5t2 -51q0 -72 -23.5 -148t-77.5 -139.5t-141 -107.5t-216 -50v-203h-95v203q-127 10 -215 43t-143 91.5t-81 143.5t-26 201zM354 1087q0 -51 15.5 -84.5t41 -56t56.5 -36t61 -19.5v358q-47 -2 -79.5 -18.5 t-53 -40t-31 -51t-10.5 -52.5zM623 184q27 0 58.5 9.5t59 32t46 62.5t18.5 99q0 45 -16.5 78t-43 56.5t-59.5 37.5t-63 25v-400z" />
<glyph unicode="%" horiz-adv-x="1837" d="M57 1092q0 78 30 146.5t81 119.5t119.5 80.5t146.5 29.5q76 0 144.5 -29.5t120 -80.5t81 -120t29.5 -146q0 -78 -29.5 -146.5t-81 -120t-120 -81t-144.5 -29.5q-78 0 -146.5 29.5t-119.5 79.5t-81 119t-30 149zM270 1092q0 -70 48.5 -117t115.5 -47q66 0 114 47t48 117 q0 68 -48 115.5t-114 47.5q-68 0 -116 -47.5t-48 -115.5zM426 -41l823 1509h152l-823 -1509h-152zM1028 350q0 78 29.5 146.5t81 120t120 81t146.5 29.5q76 0 144.5 -29.5t119.5 -81t81 -120t30 -146.5t-30 -146.5t-81 -119.5t-119.5 -81t-144.5 -30q-78 0 -146.5 30 t-120 80t-81 118.5t-29.5 148.5zM1241 350q0 -70 48 -117t116 -47q66 0 114 47.5t48 116.5q0 68 -48.5 116t-113.5 48q-68 0 -116 -48t-48 -116z" />
<glyph unicode="&#x26;" horiz-adv-x="1492" d="M113 381q0 53 10 107.5t44 109.5t95.5 113.5t165.5 122.5q-47 53 -90 131.5t-43 177.5q0 76 28.5 139.5t81 108.5t125 69.5t160.5 24.5q61 0 125 -20.5t117 -62.5t87 -107.5t34 -153.5q0 -78 -30 -138.5t-71 -104.5t-82 -71.5t-63 -40.5l211 -260q29 43 48 100.5 t30 143.5h256q-6 -76 -20.5 -136.5t-35 -112.5t-49 -100t-65.5 -97l268 -324h-348l-103 125q-33 -33 -71.5 -62.5t-89 -53t-115 -37t-148.5 -13.5q-106 0 -191 35t-145.5 93t-93 134t-32.5 160zM401 399q0 -23 10.5 -55.5t35 -64t66.5 -54t108 -22.5q72 0 132 34.5t97 69.5 l-272 342q-47 -35 -80 -60.5t-54.5 -53t-32 -59.5t-10.5 -77zM559 1145q0 -37 27 -82.5t80 -104.5q59 37 98 82t39 103q0 61 -35 92t-88 31q-49 0 -85 -31t-36 -90z" />
<glyph unicode="'" horiz-adv-x="491" d="M145 926v561h203v-561h-203z" />
<glyph unicode="(" horiz-adv-x="690" d="M74 541q0 152 29.5 287t79.5 256.5t116 230t137 205.5h213q-59 -102 -110.5 -208t-88 -223.5t-58 -253t-21.5 -294.5q0 -160 22.5 -295t60.5 -252t89 -221.5t106 -202.5h-213q-70 92 -135 198.5t-115.5 228.5t-81 257t-30.5 287z" />
<glyph unicode=")" horiz-adv-x="690" d="M41 -430q59 102 110.5 207.5t88 223.5t58 253t21.5 295t-22.5 295t-60 251.5t-89 221t-106.5 203.5h213q70 -92 134.5 -199t115.5 -228.5t81.5 -257t30.5 -286.5q0 -152 -29.5 -287t-79.5 -257t-115.5 -230.5t-137.5 -204.5h-213z" />
<glyph unicode="*" horiz-adv-x="804" d="M55 1159l49 152l211 -72v248h177v-246l206 70l52 -152l-218 -65l142 -201l-129 -92l-142 188l-143 -188l-129 92l139 201z" />
<glyph unicode="+" horiz-adv-x="1208" d="M82 408v231h405v410h232v-410h407v-231h-407v-408h-232v408h-405z" />
<glyph unicode="," horiz-adv-x="573" d="M131 0v301h309v-260q0 -96 -23.5 -162.5t-64.5 -112t-97 -72t-122 -42.5h-2v110q31 10 59.5 23.5t53 40.5t41 67.5t20.5 106.5h-174z" />
<glyph unicode="-" horiz-adv-x="741" d="M82 408v231h577v-231h-577z" />
<glyph unicode="." horiz-adv-x="573" d="M131 0v301h309v-301h-309z" />
<glyph unicode="/" horiz-adv-x="573" d="M-70 -39l471 1565h242l-471 -1565h-242z" />
<glyph unicode="0" d="M68 715q0 389 124.5 571t387.5 182q260 0 381.5 -183t121.5 -570t-122.5 -571.5t-385.5 -184.5q-262 0 -384.5 184.5t-122.5 571.5zM365 715q0 -141 9 -241.5t33.5 -163t65.5 -91.5t102 -29t102.5 29t66 91.5t33.5 162.5t9 242q0 141 -9 240.5t-33.5 162t-65.5 91 t-103 28.5q-61 0 -102 -28.5t-65.5 -91t-33.5 -162t-9 -240.5z" />
<glyph unicode="1" horiz-adv-x="1148" d="M141 1012v202h43q104 0 173 25t109 61.5t57.5 81.5t19.5 86h237v-1468h-288v1012h-351z" />
<glyph unicode="2" d="M55 0q4 63 13.5 131t42 139.5t99 149.5t185.5 164q100 72 170 125t115 101t65.5 96t20.5 110q0 37 -12.5 73.5t-37 67.5t-62.5 49.5t-91 18.5q-76 0 -119 -28t-63.5 -69t-24.5 -89t-4 -89h-280q0 119 26.5 204t68.5 142.5t95 91t106.5 52t101.5 23.5t81 5 q104 0 196.5 -30.5t161 -89t107.5 -144.5t39 -198q0 -94 -27 -167t-71 -130.5t-98 -100.5t-109 -80q-150 -98 -228 -159.5t-104 -112.5h637v-256h-1000z" />
<glyph unicode="3" d="M57 451h283l-2 -2q0 -31 6 -74t28.5 -84t64.5 -69.5t116 -28.5q88 0 152.5 59t64.5 182q0 76 -32.5 118t-82 62.5t-106.5 24.5t-109 4v207h47q33 0 75 4t80 23.5t64.5 59.5t26.5 112q0 20 -6 52t-25.5 62.5t-56.5 52t-96 21.5q-74 0 -114 -30.5t-58.5 -70.5t-22.5 -80 t-4 -61h-268q0 104 28.5 190.5t89 150t151.5 98t216 34.5q74 0 154 -20.5t147.5 -68.5t110.5 -125.5t43 -194.5q0 -55 -15.5 -101.5t-41 -81t-57 -59t-62.5 -39.5v-4q20 -6 57 -24.5t74 -57.5t63.5 -101.5t26.5 -156.5q0 -104 -37 -191t-102.5 -149.5t-157.5 -97.5t-203 -35 q-35 0 -86 4t-107.5 20.5t-113.5 48.5t-102 86t-73 135t-28 196z" />
<glyph unicode="4" d="M57 326v249l539 893h328v-911h163v-231h-163v-326h-289v326h-578zM274 557h361q0 268 3 429t3 196h-4z" />
<glyph unicode="5" d="M57 393h289q10 -92 57.5 -146t145.5 -54q104 0 162.5 77.5t58.5 196.5q0 49 -12.5 96t-38 84t-66.5 59.5t-98 22.5q-14 0 -38.5 -2t-52.5 -12t-55.5 -30.5t-48.5 -59.5l-258 12l101 805h807v-244h-598l-52 -317q41 29 98.5 54.5t164.5 25.5q74 0 152.5 -27t143 -83 t106.5 -146.5t42 -217.5q0 -76 -22.5 -167t-82 -170.5t-163 -134t-264.5 -54.5q-86 0 -169 25.5t-149.5 79t-110 135.5t-49.5 192z" />
<glyph unicode="6" d="M66 698q0 70 5 154t23.5 170t53 166t95 142.5t150.5 100t217 37.5q94 0 174 -28.5t138.5 -79.5t91.5 -118.5t33 -145.5h-287q-6 61 -47 101t-123 40q-72 0 -117 -37t-71.5 -95t-38 -131t-15.5 -143l4 -4q14 20 36 42t54.5 39.5t77.5 28.5t107 11q115 0 198.5 -40 t139 -104.5t83 -145t27.5 -162.5q0 -121 -34.5 -219.5t-98 -169t-152 -108.5t-194.5 -38q-166 0 -270.5 63.5t-162 168t-77.5 236.5t-20 269zM354 465q0 -121 62.5 -196.5t167.5 -75.5q39 0 75.5 15t65.5 49t45 87t16 127q0 70 -20.5 117t-51 75.5t-68.5 41t-71 12.5 q-41 0 -80.5 -13.5t-70.5 -43t-50.5 -77.5t-19.5 -118z" />
<glyph unicode="7" d="M51 1186v256h1043v-223q-35 -39 -86.5 -99.5t-108.5 -143.5t-113.5 -186.5t-104.5 -226.5t-82 -264t-42 -299h-299q12 219 77.5 413.5t149.5 349.5t167 264.5t130 158.5h-731z" />
<glyph unicode="8" d="M68 408q0 27 5 73.5t26.5 100t66.5 105.5t125 91q-88 45 -133 115t-45 174q0 94 35.5 168t97 126t144.5 79.5t179 27.5q113 0 200 -31.5t146.5 -84t89 -122t29.5 -145.5q0 -96 -40 -172.5t-130 -124.5q53 -27 94 -58.5t69 -72.5t42 -95t14 -126q0 -70 -24.5 -152.5 t-82.5 -154.5t-156.5 -120t-244.5 -48q-141 0 -238 42t-157.5 106.5t-86 143.5t-25.5 155zM365 426q0 -106 56 -169.5t157 -63.5q57 0 97 21.5t64.5 55t35.5 74.5t11 80t-11 79t-35.5 73.5t-65.5 55t-103 21.5q-41 0 -77.5 -13t-65.5 -41t-46 -71t-17 -102zM389 1055 q0 -33 12.5 -66t36 -58.5t58.5 -42t82 -16.5q86 0 133 51.5t47 131.5q0 84 -49.5 133t-120.5 49q-98 0 -148.5 -51t-50.5 -131z" />
<glyph unicode="9" d="M63 940q0 135 38 234.5t103.5 165t157 97t199.5 31.5q127 0 215 -42t145.5 -108.5t89 -149.5t47 -166.5t18.5 -160.5t3 -128q0 -213 -46 -357.5t-120.5 -232.5t-171 -125t-194.5 -37q-94 0 -173 25.5t-138.5 75t-97.5 119t-46 157.5h287v-2q12 -76 57 -109.5t113 -33.5 q45 0 88 20t77 67.5t55.5 125t21.5 194.5l-5 4q-49 -74 -126.5 -98.5t-151.5 -24.5q-106 0 -189 37t-139.5 100.5t-86.5 146.5t-30 175zM352 981q0 -84 18.5 -136t49.5 -81t69.5 -40t79.5 -11q37 0 75 14t68.5 44t50 76t19.5 111q0 127 -54 200t-167 73q-29 0 -64.5 -9.5 t-67.5 -37t-54.5 -75.5t-22.5 -128z" />
<glyph unicode=":" horiz-adv-x="690" d="M190 0v301h310v-301h-310zM190 758v301h310v-301h-310z" />
<glyph unicode=";" horiz-adv-x="690" d="M190 0v301h310v-260q0 -96 -23.5 -162.5t-64.5 -112t-97.5 -72t-121.5 -42.5h-3v110q31 10 60 23.5t53.5 40.5t40.5 67.5t21 106.5h-175zM190 758v301h310v-301h-310z" />
<glyph unicode="&#x3c;" horiz-adv-x="1208" d="M80 434v182l1050 449v-223l-751 -318l751 -317v-223z" />
<glyph unicode="=" horiz-adv-x="1208" d="M82 176v232h1042v-232h-1042zM82 637v231h1042v-231h-1042z" />
<glyph unicode="&#x3e;" horiz-adv-x="1208" d="M78 -16v223l751 317l-751 318v223l1050 -449v-182z" />
<glyph unicode="?" horiz-adv-x="1263" d="M125 1020q0 135 46 227t117.5 149.5t160 82t172.5 24.5q31 0 82 -4t110 -19.5t118.5 -44t107.5 -77.5t79 -121t31 -172q0 -63 -15.5 -114.5t-47 -95.5t-78.5 -86t-109 -85q-35 -25 -55.5 -46.5t-31.5 -49t-15 -65.5t-4 -93h-301q0 74 7 130t30.5 104.5t66.5 92.5t115 93 q61 43 95 92t34 113q0 61 -19.5 100t-49.5 62.5t-64.5 33t-67.5 9.5q-70 0 -112 -24t-65.5 -58.5t-32.5 -76.5t-13 -79v-2h-291zM492 0v291h301v-291h-301z" />
<glyph unicode="@" horiz-adv-x="2017" d="M244 743q0 166 63.5 309.5t172 248t254 165t308.5 60.5q141 0 272.5 -45t233 -129t163 -202t61.5 -263q0 -111 -30 -199t-76 -154.5t-104.5 -113.5t-118 -78t-112.5 -44t-88 -13q-45 0 -79 26.5t-38 81.5l-4 2q-41 -45 -99 -77.5t-120 -32.5q-68 0 -127 28.5t-105 77.5 t-73 114.5t-27 139.5q0 96 32 188.5t90.5 164t139 114.5t181.5 43q78 0 141.5 -30.5t108.5 -104.5l26 110h183q-6 -31 -18.5 -87t-28 -121.5t-31 -135t-27.5 -127t-20.5 -97.5t-8.5 -46q0 -16 7.5 -29.5t23.5 -13.5q41 0 82 24.5t75 71.5t55.5 115t21.5 152q0 127 -43 224 t-120 163.5t-180.5 101.5t-222.5 35q-133 0 -242.5 -47t-186.5 -131t-118.5 -198t-41.5 -245q0 -139 46 -251.5t129 -192.5t196.5 -124t246.5 -44q129 0 240.5 45t193.5 123h185q-109 -160 -273 -247t-358 -87q-168 0 -315.5 58.5t-258 163t-174 247.5t-63.5 313zM795 676 q0 -82 42 -133t119 -51q55 0 100.5 25.5t77 66.5t50 92t18.5 102q0 78 -46 127t-120 49q-53 0 -98 -25.5t-77 -65.5t-49 -90t-17 -97z" />
<glyph unicode="A" horiz-adv-x="1495" d="M43 0l528 1487h359l522 -1487h-336l-96 307h-547l-104 -307h-326zM555 563h397l-202 588h-5z" />
<glyph unicode="B" horiz-adv-x="1470" d="M143 0v1487h734q135 0 223 -38t139 -95.5t71.5 -123t20.5 -122.5q0 -80 -19.5 -133t-47 -88t-59 -54.5t-54.5 -31.5q68 -25 112 -64t69.5 -86t35.5 -99t10 -108q0 -31 -6 -76.5t-26.5 -95t-59.5 -98.5t-105.5 -87t-163.5 -62.5t-235 -24.5h-639zM453 256h376 q115 0 177.5 52t62.5 167q0 49 -19.5 83t-50 55.5t-70.5 31.5t-83 10h-393v-399zM453 905h362q92 0 155.5 38t63.5 128q0 92 -60.5 126t-166.5 34h-354v-326z" />
<glyph unicode="C" horiz-adv-x="1495" d="M92 741q0 195 52.5 342.5t144.5 245.5t217 147.5t268 49.5q166 0 285 -51.5t195.5 -130t115.5 -171t45 -174.5h-309q-10 33 -26.5 79t-51.5 87t-95.5 70t-156.5 29q-55 0 -120.5 -23.5t-122 -83t-94.5 -161t-38 -259.5q0 -100 21.5 -192t68 -164t117 -115t168.5 -43 q129 0 215 75t115 212h309q-23 -121 -74 -222.5t-132 -174t-190.5 -112.5t-248.5 -40q-147 0 -272 50t-215 148.5t-140.5 244t-50.5 337.5z" />
<glyph unicode="D" horiz-adv-x="1497" d="M143 0v1487h656q188 0 306 -70.5t184.5 -177t91 -230.5t24.5 -231q0 -119 -27.5 -255t-98.5 -252.5t-189.5 -193.5t-303.5 -77h-643zM446 256h304q94 0 158.5 44t104.5 114.5t57 160t17 181.5q0 164 -34.5 259t-86 143t-111.5 60.5t-110 12.5h-299v-975z" />
<glyph unicode="E" horiz-adv-x="1366" d="M143 0v1487h1098v-256h-788v-307h723v-256h-723v-412h821v-256h-1131z" />
<glyph unicode="F" horiz-adv-x="1255" d="M143 0v1487h1059v-256h-749v-307h655v-256h-655v-668h-310z" />
<glyph unicode="G" horiz-adv-x="1617" d="M92 739q0 152 43 294.5t131 252t224.5 175t322.5 65.5q170 0 292 -49.5t200.5 -125t117.5 -163.5t45 -164h-309q0 23 -19.5 62.5t-59.5 79.5t-101 69t-143 29q-84 0 -162 -29t-138.5 -91.5t-97.5 -162.5t-37 -242q0 -154 39 -253t101.5 -157.5t140.5 -82t158 -23.5 q27 0 77 9.5t105 43t104.5 98t73.5 177.5h-346v250h621v-801h-207l-31 186q-29 -35 -65.5 -73.5t-92 -72.5t-130.5 -56.5t-175 -22.5q-135 0 -258 48t-217 145.5t-150.5 243t-56.5 341.5z" />
<glyph unicode="H" horiz-adv-x="1484" d="M143 0v1487h310v-563h579v563h309v-1487h-309v668h-579v-668h-310z" />
<glyph unicode="I" horiz-adv-x="595" d="M143 0v1487h310v-1487h-310z" />
<glyph unicode="J" horiz-adv-x="1148" d="M51 559h289q0 -88 4 -153.5t22.5 -108.5t54.5 -64.5t97 -21.5t96 18.5t53.5 48t23.5 69.5t5 83v1057h310v-1057q0 -238 -118 -353.5t-343 -115.5q-182 0 -281.5 53.5t-146.5 139.5t-56.5 192.5t-9.5 212.5z" />
<glyph unicode="K" horiz-adv-x="1466" d="M143 0v1487h310v-604l567 604h401l-606 -608l641 -879h-399l-459 653l-145 -149v-504h-310z" />
<glyph unicode="L" horiz-adv-x="1251" d="M143 0v1487h310v-1231h741v-256h-1051z" />
<glyph unicode="M" horiz-adv-x="1724" d="M143 0v1487h453l268 -1172h4l265 1172h448v-1487h-289v1243h-2l-278 -1243h-305l-271 1243h-4v-1243h-289z" />
<glyph unicode="N" horiz-adv-x="1497" d="M143 0v1487h328l590 -1034h4v1034h289v-1487h-312l-604 1061h-6v-1061h-289z" />
<glyph unicode="O" horiz-adv-x="1609" d="M92 743q0 174 39 300t102.5 213t141.5 139.5t157.5 82t151.5 39t121 9.5t120.5 -9.5t151.5 -39t158 -82t141.5 -139.5t102.5 -212.5t39 -300.5q0 -174 -39 -300t-102.5 -213t-141.5 -139t-158 -81.5t-151.5 -39t-120.5 -9.5t-121 9.5t-151.5 39t-157.5 81.5t-141.5 139 t-102.5 213t-39 300zM401 743q0 -156 39 -257t99.5 -159.5t131 -81t134.5 -22.5q63 0 134 22.5t130 81t99 160t40 256.5q0 156 -40 257.5t-99 160t-130 81t-134 22.5t-134 -22.5t-131.5 -81t-99.5 -160t-39 -257.5z" />
<glyph unicode="P" horiz-adv-x="1374" d="M143 0v1487h680q217 0 338 -127t121 -348q0 -49 -17.5 -130t-68.5 -158t-144.5 -132t-242.5 -55h-356v-537h-310zM453 793h288q76 0 122 23.5t70.5 58t32 74.5t7.5 75q0 111 -63.5 159t-209.5 48h-247v-438z" />
<glyph unicode="Q" horiz-adv-x="1609" d="M92 741q0 174 39 300t102.5 213t141.5 140.5t157.5 83t151.5 39t121 9.5t120.5 -9.5t151.5 -39t158 -83t141.5 -140.5t102.5 -213t39 -300q0 -184 -43 -313t-111 -215l160 -154l-162 -168l-176 168q-53 -31 -107.5 -50t-104.5 -30.5t-93 -14.5t-76 -3q-49 0 -121 9.5 t-151.5 38t-157.5 81.5t-141.5 139t-102.5 212t-39 300zM401 741q0 -156 39 -256t99.5 -158.5t131 -81t134.5 -22.5q39 0 83 8.5t85 30.5l-150 141l160 166l158 -145q31 57 49 135t18 182q0 156 -40 257.5t-99 160t-130 82t-134 23.5t-134 -23.5t-131.5 -82t-99.5 -160 t-39 -257.5z" />
<glyph unicode="R" horiz-adv-x="1458" d="M143 0v1487h758q98 0 171 -22.5t125 -58.5t85 -82t51.5 -92t25.5 -90t7 -75q0 -123 -58.5 -220t-168.5 -134q45 -20 79.5 -43t58 -63t35.5 -103.5t13 -167.5q0 -82 1 -134t8 -85t20.5 -50.5t38.5 -25.5v-41h-344q-16 53 -24.5 119.5t-8.5 181.5q0 76 -5 129t-30 87 t-73 49.5t-134 15.5h-321v-582h-310zM453 831h364q123 0 181.5 46.5t58.5 156.5q0 31 -8.5 65t-33 63.5t-67.5 49t-110 19.5h-385v-400z" />
<glyph unicode="S" horiz-adv-x="1378" d="M80 459h297q0 -31 11 -73t45 -80t95.5 -63.5t163.5 -25.5q55 0 110.5 8t100.5 29.5t73 58.5t28 97q0 43 -20.5 71.5t-56.5 49t-85 35t-109 28.5l-299 74q-160 39 -246 135t-86 266q0 61 21.5 140t84 150t174.5 119t292 48q170 0 281.5 -49.5t177 -123t92 -157.5 t26.5 -152h-297q-4 25 -13 64t-40 75t-90 61.5t-160 25.5q-45 0 -91 -9.5t-84 -30t-61.5 -55t-23.5 -83.5q0 -43 16.5 -72t40 -45.5t51 -24.5t50.5 -14l362 -88q76 -18 146.5 -46t124 -73t86 -112.5t32.5 -167.5q0 -113 -33.5 -193t-88 -133t-122 -86t-132 -49.5 t-120.5 -21.5t-89 -5q-203 0 -328 52.5t-192.5 128t-91 161.5t-23.5 156z" />
<glyph unicode="T" horiz-adv-x="1263" d="M29 1231v256h1206v-256h-449v-1231h-309v1231h-448z" />
<glyph unicode="U" horiz-adv-x="1468" d="M143 504v983h310v-967q0 -78 20.5 -134t56 -92t84 -53.5t103.5 -17.5q160 0 229.5 74t69.5 209v981h309v-963q0 -147 -41 -252.5t-119 -175t-189.5 -102.5t-252.5 -33q-94 0 -196.5 22.5t-187.5 82t-140.5 166t-55.5 272.5z" />
<glyph unicode="V" horiz-adv-x="1378" d="M39 1487h332l319 -1127h4l324 1127h321l-503 -1487h-297z" />
<glyph unicode="W" horiz-adv-x="1953" d="M33 1487h332q47 -203 81.5 -351.5t58 -255t39 -179t26 -126t17.5 -93.5t13 -83h4q6 39 13.5 81t17.5 97.5t23.5 131t35 184t50 254t67.5 340.5h330q43 -205 74.5 -350.5t53 -251t36 -176t24.5 -124t17.5 -96.5t15.5 -90h4q6 35 13 73t17.5 90t27 127t41 184.5t59.5 259 t84 354.5h315l-418 -1487h-299q-57 272 -93 448.5t-60.5 298t-41 214t-34.5 198.5h-4q-12 -72 -22.5 -132t-21.5 -124.5t-27.5 -142.5t-38 -182.5t-51.5 -246t-69 -331.5h-290z" />
<glyph unicode="X" horiz-adv-x="1378" d="M29 0l479 760l-453 727h371l264 -481l271 481h358l-453 -715l484 -772h-379l-281 508l-299 -508h-362z" />
<glyph unicode="Y" horiz-adv-x="1378" d="M45 1487h352l308 -647l292 647h353l-498 -926v-561h-309v561z" />
<glyph unicode="Z" horiz-adv-x="1265" d="M51 0v264l768 961h-747v262h1140v-262l-788 -963h788v-262h-1161z" />
<glyph unicode="[" horiz-adv-x="688" d="M131 -406v1901h508v-199h-256v-1503h256v-199h-508z" />
<glyph unicode="\" horiz-adv-x="573" d="M-70 1526h242l471 -1565h-242z" />
<glyph unicode="]" horiz-adv-x="688" d="M49 -207h256v1503h-256v199h508v-1901h-508v199z" />
<glyph unicode="^" horiz-adv-x="1208" d="M129 668l373 776h205l372 -776h-227l-248 544l-250 -544h-225z" />
<glyph unicode="_" d="M0 -156h1151v-102h-1151v102z" />
<glyph unicode="`" horiz-adv-x="688" d="M-47 1550h317l195 -301h-209z" />
<glyph unicode="a" horiz-adv-x="1161" d="M72 293q0 94 41 162.5t111.5 114.5t163.5 71t198 33q92 8 130 31.5t38 64.5q0 45 -19.5 71.5t-48.5 39t-62.5 15.5t-60.5 3q-55 0 -88 -15.5t-52.5 -38t-27.5 -49t-10 -51.5h-279q12 127 59.5 203t115 117t150.5 53t167 12q57 0 133 -11t143.5 -46t114.5 -97.5t47 -164.5 v-596q0 -96 18.5 -129t45.5 -41v-45h-312q-6 20 -10 34.5t-7 28t-5 30t-4 38.5q-25 -25 -55.5 -53.5t-73.5 -52t-98.5 -39t-128.5 -15.5q-61 0 -122 18.5t-108 57.5t-75.5 99.5t-28.5 146.5zM360 311q0 -39 13.5 -64.5t33 -41t43 -21.5t46.5 -6q47 0 93 15.5t83 43 t59.5 68.5t22.5 90v142q-23 -16 -65 -30.5t-132 -29.5q-41 -6 -77 -16t-62.5 -28.5t-42 -47.5t-15.5 -74z" />
<glyph unicode="b" horiz-adv-x="1265" d="M123 0v1487h289v-529h6q16 27 41.5 56.5t63.5 55.5t90.5 43t121.5 17q92 0 175 -33.5t145.5 -103t100.5 -175t38 -249.5q0 -113 -26.5 -220t-83 -191t-144.5 -135.5t-211 -51.5q-90 0 -175 38t-138 130h-4v-139h-289zM401 543q0 -49 11.5 -107.5t39 -109t73.5 -84 t116 -33.5t118 26.5t78.5 70.5t45 101.5t14.5 118.5q0 66 -11.5 129.5t-39 113.5t-75.5 81t-122 31q-70 0 -117 -29t-76.5 -76t-42 -107.5t-12.5 -125.5z" />
<glyph unicode="c" horiz-adv-x="1155" d="M72 520q0 133 29.5 246t93 193.5t164 125.5t239.5 45q66 0 145.5 -17t152.5 -64.5t125 -129t62 -210.5h-292q-4 27 -15.5 58.5t-34 58t-57.5 44t-86 17.5q-68 0 -113 -31t-70.5 -78t-35.5 -103.5t-10 -107.5q0 -45 4 -106.5t25.5 -117.5t66.5 -95t127 -39q55 0 93 22.5 t61.5 54t34 64.5t10.5 51h290q-4 -43 -26.5 -114.5t-77.5 -142t-150.5 -122t-246.5 -51.5q-156 0 -254.5 53.5t-154.5 134.5t-77.5 178t-21.5 183z" />
<glyph unicode="d" horiz-adv-x="1263" d="M72 563q0 143 37.5 250t100 177.5t145.5 105t175 34.5q70 0 122.5 -17t90 -43t63 -55.5t42.5 -56.5h4v529h289v-1487h-283v139h-4q-53 -92 -140 -130t-177 -38q-123 0 -211 50.5t-144.5 133.5t-83 189.5t-26.5 218.5zM369 543q0 -49 11 -107.5t38.5 -109t74 -84 t115.5 -33.5q70 0 118 26.5t79 70.5t45 101.5t14 118.5q0 66 -11 129.5t-39 113.5t-76 81t-122 31q-70 0 -116.5 -29t-76.5 -76t-42 -107.5t-12 -125.5z" />
<glyph unicode="e" horiz-adv-x="1187" d="M72 573q0 33 6 87.5t24.5 117t53 125t93 113.5t144.5 82.5t207 31.5q117 0 212 -32.5t162.5 -100t104.5 -171t37 -244.5v-109h-747q0 -31 6 -77t31.5 -89t75.5 -73.5t139 -30.5q61 0 115.5 30.5t70.5 90.5h297q-29 -98 -81 -166t-118.5 -110t-140.5 -59.5t-143 -17.5 q-117 0 -217.5 31t-174 101.5t-115.5 185t-42 284.5zM369 662h450q-6 66 -28.5 110.5t-54 71t-68.5 38t-72 11.5q-104 0 -159.5 -61.5t-67.5 -169.5z" />
<glyph unicode="f" horiz-adv-x="690" d="M20 895v207h160v88q0 170 87 241.5t237 71.5h149v-237h-82q-37 0 -57 -6.5t-30.5 -20.5t-12.5 -37.5t-2 -56.5v-43h190v-207h-190v-895h-289v895h-160z" />
<glyph unicode="g" horiz-adv-x="1263" d="M72 559q0 143 39 249.5t103.5 178.5t148 107.5t176.5 35.5q76 0 131 -20t93 -49t61.5 -62.5t35.5 -60.5h4v164h277v-1043q0 -47 -3 -104t-20.5 -114.5t-51.5 -112t-96.5 -96.5t-155.5 -67.5t-228 -25.5q-86 0 -169 19.5t-150.5 59.5t-111.5 102.5t-49 150.5h314 q4 -20 13 -40.5t29.5 -36t58.5 -26t102 -10.5q117 0 179 64.5t62 197.5v138h-8q-18 -31 -45 -65t-63.5 -60.5t-85 -44t-105.5 -17.5q-100 0 -188 38t-155 112t-104.5 183.5t-37.5 254.5zM369 543q0 -49 11 -107.5t38.5 -109t74 -84t115.5 -33.5q70 0 118 26.5t79 70.5 t45 101.5t14 118.5q0 66 -11 129.5t-39 113.5t-76 81t-122 31q-70 0 -116.5 -29t-76.5 -76t-42 -107.5t-12 -125.5z" />
<glyph unicode="h" horiz-adv-x="1239" d="M123 0v1487h289v-529h4q29 68 114.5 120t204.5 52q80 0 149.5 -23.5t121 -69.5t81 -115.5t29.5 -159.5v-762h-289v670q0 31 -3 67.5t-21.5 70.5t-56 56.5t-107.5 22.5q-98 0 -162.5 -64.5t-64.5 -191.5v-631h-289z" />
<glyph unicode="i" horiz-adv-x="534" d="M123 0v1102h289v-1102h-289zM123 1231v268h289v-268h-289z" />
<glyph unicode="j" horiz-adv-x="534" d="M-14 -211q82 0 109.5 17.5t27.5 84.5v1211h289v-1217q0 -109 -26 -173t-78 -99t-132 -45t-190 -10v231zM123 1231v268h289v-268h-289z" />
<glyph unicode="k" d="M123 0v1487h289v-803l364 418h354l-387 -426l398 -676h-346l-263 473l-120 -125v-348h-289z" />
<glyph unicode="l" horiz-adv-x="534" d="M123 0v1487h289v-1487h-289z" />
<glyph unicode="m" horiz-adv-x="1820" d="M123 0v1102h278v-162h5q14 27 36.5 59.5t59.5 62.5t89 49t126 19q59 0 104 -11t81 -32.5t64.5 -55.5t57.5 -77q12 20 34.5 50t58.5 58t85 48t115 20q80 0 149.5 -23.5t120.5 -69.5t81 -115.5t30 -159.5v-762h-289v670q0 121 -46 169t-110 48q-109 0 -153.5 -64.5 t-44.5 -163.5v-659h-289v662q0 35 -6 74.5t-25.5 73.5t-53.5 55.5t-89 21.5q-51 0 -85 -16.5t-55.5 -45t-30.5 -66.5t-9 -83v-676h-289z" />
<glyph unicode="n" horiz-adv-x="1239" d="M123 0v1102h276v-162h4q14 25 39 57.5t64 62.5t95 50t134 20q80 0 149.5 -23.5t121 -69.5t81 -115.5t29.5 -159.5v-762h-289v670q0 31 -3 67.5t-21.5 70.5t-56 56.5t-107.5 22.5q-98 0 -162.5 -64.5t-64.5 -191.5v-631h-289z" />
<glyph unicode="o" horiz-adv-x="1267" d="M72 551q0 150 46 258.5t125 180t180 106t212 34.5t212 -34.5t179 -105t124 -179.5t46 -258q0 -150 -46 -259.5t-124 -181t-179.5 -106.5t-211.5 -35q-111 0 -212 35t-180 106.5t-125 180t-46 258.5zM369 553q0 -53 10 -112.5t38.5 -109.5t81 -83t136.5 -33t135 33t80 82 t39 108.5t10 112.5t-10 112.5t-39 108.5t-80 82t-135 33t-136.5 -33t-81 -82t-38.5 -107.5t-10 -111.5z" />
<glyph unicode="p" horiz-adv-x="1265" d="M123 -442v1544h278v-160h5q20 33 45.5 65.5t64.5 60.5t91 45t126 17q92 0 175 -35.5t146.5 -107.5t101.5 -178.5t38 -249.5q0 -113 -26.5 -219.5t-84 -188t-145.5 -131t-211 -49.5q-76 0 -129 18.5t-89 44t-57.5 55.5t-33.5 52l-6 2v-585h-289zM401 543 q0 -49 11.5 -107.5t39 -109t73.5 -84t116 -33.5t118 26.5t78.5 70.5t45 101.5t14.5 118.5q0 66 -11.5 129.5t-39 113.5t-75.5 81t-122 31q-70 0 -117 -29t-76.5 -76t-42 -107.5t-12.5 -125.5z" />
<glyph unicode="q" horiz-adv-x="1265" d="M72 559q0 143 37.5 249.5t101 178.5t146.5 107.5t175 35.5q74 0 126.5 -17t91 -45t64.5 -60.5t46 -65.5h4v160h279v-1544h-289v585l-6 -2q-12 -23 -33.5 -52.5t-57.5 -55t-89.5 -44t-128.5 -18.5q-123 0 -211 49.5t-145.5 131t-84 188t-26.5 219.5zM369 543 q0 -49 11 -107.5t38.5 -109t74 -84t115.5 -33.5q70 0 118 26.5t79 70.5t45 101.5t14 118.5q0 66 -11 129.5t-39 113.5t-76 81t-122 31q-70 0 -116.5 -29t-76.5 -76t-42 -107.5t-12 -125.5z" />
<glyph unicode="r" horiz-adv-x="796" d="M123 0v1102h278v-191h5q23 41 47 81t59 71t82 49t113 18q10 0 28.5 -1t28.5 -3v-295q-41 6 -84 7q-84 0 -137.5 -23.5t-82 -60.5t-38.5 -84t-10 -92v-578h-289z" />
<glyph unicode="s" horiz-adv-x="1153" d="M72 352h297q0 -35 12 -64.5t40 -51t74 -34t113 -12.5q55 0 91 12.5t56.5 30t29 37t8.5 35.5q0 47 -50.5 69.5t-126 39t-165 35t-165 53.5t-125.5 96t-50 164q0 61 21.5 125.5t71.5 119t136 89t215 34.5q80 0 164 -13t154.5 -52t118.5 -110.5t57 -188.5h-283 q-4 27 -13.5 52.5t-30 46t-56 33.5t-95.5 13q-59 0 -94 -10t-53 -26.5t-24.5 -35t-6.5 -36.5q0 -43 51.5 -65.5t127 -39t165.5 -35t166 -54.5t127 -97t51 -162q0 -121 -51 -194.5t-125 -114.5t-157.5 -55.5t-147.5 -14.5q-94 0 -188.5 18.5t-170 62.5t-122.5 117t-47 183z " />
<glyph unicode="t" horiz-adv-x="690" d="M23 893v207h147v297h289v-297h180v-207h-180v-598q0 -25 2 -41t14 -26.5t37 -15.5t68 -5q14 0 34.5 1t24.5 3v-217q-29 -4 -64.5 -5t-70.5 -1q-109 0 -174.5 17.5t-101 48t-47 74.5t-11.5 97v668h-147z" />
<glyph unicode="u" horiz-adv-x="1234" d="M123 377v725h289v-684q0 -63 16 -102.5t44 -62t60.5 -30.5t67.5 -8t75 11.5t72.5 41t54 77.5t21.5 122v635h289v-1102h-276v156h-5q-49 -88 -134 -136.5t-201 -48.5q-82 0 -151 23.5t-118 74t-76.5 127t-27.5 181.5z" />
<glyph unicode="v" d="M27 1102h309l233 -813h4l242 813h309l-397 -1102h-305z" />
<glyph unicode="w" horiz-adv-x="1609" d="M20 1102h310l172 -793h2l155 793h293l166 -793h2l172 793h299l-317 -1102h-297l-172 805h-4l-172 -805h-297z" />
<glyph unicode="x" d="M31 0l375 561l-361 541h352l187 -322l182 322h342l-363 -541l375 -561h-358l-191 332l-190 -332h-350z" />
<glyph unicode="y" d="M20 1102h324l236 -811h4l225 811h307l-379 -1082q-47 -135 -84 -224t-82 -142t-105 -74.5t-155 -21.5q-29 0 -64.5 1t-66.5 3v231q10 -2 23.5 -3t32.5 -1q39 0 70.5 4t54 21.5t39 50.5t26.5 90z" />
<glyph unicode="z" horiz-adv-x="1032" d="M41 0v225l580 645h-541v232h891v-238l-572 -633h594v-231h-952z" />
<glyph unicode="{" horiz-adv-x="804" d="M98 451v190q23 0 55.5 6t63.5 23.5t53.5 48.5t22.5 78v413q0 74 26.5 127.5t69.5 88t94.5 52t100.5 17.5h172v-182h-94q-39 0 -63 -12.5t-36 -32t-15 -43t-3 -45.5v-406q0 -66 -28 -107.5t-65.5 -68.5t-77.5 -38t-65 -13v-4q25 -2 65 -10.5t77.5 -31t65.5 -63.5t28 -110 v-406q0 -23 3 -48.5t15 -47t36 -35.5t63 -14h94v-183h-172q-49 0 -100.5 17.5t-94.5 52.5t-69.5 88t-26.5 127v414q0 47 -22.5 77.5t-53.5 48t-63.5 25t-55.5 7.5z" />
<glyph unicode="|" horiz-adv-x="577" d="M172 -39v1565h231v-1565h-231z" />
<glyph unicode="}" horiz-adv-x="804" d="M49 -223h94q39 0 61.5 12t35 32.5t15.5 45t3 47.5v405q0 68 27.5 110t65.5 66.5t79 35t66 12.5v4q-25 2 -66 13t-79 37t-65.5 68t-27.5 105v406q0 23 -3 47t-15.5 43.5t-35 33t-61.5 13.5h-94v182h172q49 0 100.5 -16.5t93.5 -51t68.5 -88t26.5 -127.5v-413 q0 -47 22.5 -78t53 -49.5t64.5 -25.5t57 -7v-188q-23 0 -57 -6.5t-64.5 -24t-53 -48t-22.5 -77.5v-414q0 -74 -26.5 -127t-68.5 -89t-93.5 -53.5t-100.5 -17.5h-172v183z" />
<glyph unicode="~" horiz-adv-x="1208" d="M127 524q16 33 39.5 65t54.5 57.5t71 40.5t93 15q59 0 119.5 -22.5t117 -49t108.5 -49t95 -22.5q31 0 56.5 13.5t48 35t41 49t37.5 54.5l73 -187q-23 -33 -48 -64.5t-56 -57t-68 -41t-86 -15.5q-61 0 -113.5 22.5t-103.5 49t-106.5 49t-124.5 22.5q-35 0 -61.5 -13 t-48 -34.5t-37 -49t-27.5 -54.5z" />
<glyph unicode="&#xa9;" horiz-adv-x="1525" d="M-23 745q0 184 64.5 330t173.5 246t251 152.5t298 52.5t298 -52.5t250.5 -152.5t173 -246t64.5 -330t-64.5 -330.5t-173 -246.5t-250.5 -153.5t-298 -53.5t-298 53.5t-251 153.5t-173.5 246.5t-64.5 330.5zM203 745q0 -135 44 -246.5t119.5 -191.5t178 -123t217.5 -43 q113 0 215 43t179 123t123 191.5t46 246.5t-45 246t-122 190t-179 122t-215 43q-117 0 -218.5 -43t-178 -122t-120.5 -189.5t-44 -246.5zM365 752q0 96 29.5 178t85 141t134 93t177.5 34q141 0 241.5 -79t124.5 -236h-178q-14 72 -67.5 103.5t-120.5 31.5 q-102 0 -157.5 -70.5t-55.5 -191.5q0 -57 16 -107.5t45 -87.5t69 -57.5t87 -20.5q78 0 128 36t56 108h186q-12 -78 -46 -138.5t-84 -101.5t-111.5 -62.5t-128.5 -21.5q-98 0 -177 35t-135.5 95.5t-87 142t-30.5 176.5z" />
<glyph unicode="&#xab;" d="M182 455v250l346 296v-239l-206 -182l206 -183v-239zM623 455v250l346 296v-239l-207 -182l207 -183v-239z" />
<glyph unicode="&#xad;" horiz-adv-x="741" d="M82 408v231h577v-231h-577z" />
<glyph unicode="&#xae;" horiz-adv-x="1525" d="M-23 743q0 184 64.5 330t173.5 246t251 153.5t298 53.5t297 -53.5t249.5 -153.5t173 -246t64.5 -330t-64.5 -329.5t-173 -245.5t-249.5 -153.5t-297 -53.5t-298 53.5t-251 153.5t-173.5 245.5t-64.5 329.5zM203 743q0 -135 44 -245.5t120.5 -190.5t178 -123t218.5 -43 q113 0 214 43t178 123t122 190.5t45 245.5t-45 246t-122 189.5t-178 121.5t-214 43q-117 0 -218.5 -43t-178 -121.5t-120.5 -189t-44 -246.5zM455 324v841h313q82 0 145.5 -12t108.5 -42t68.5 -79t23.5 -121q0 -59 -16.5 -99t-44 -65.5t-64.5 -39t-78 -15.5l215 -368h-213 l-194 354h-84v-354h-180zM635 821h158q61 0 95 18.5t34 90.5q0 33 -15.5 51t-40 27.5t-53.5 11.5t-53 2h-125v-201z" />
<glyph unicode="&#xbb;" d="M182 158v239l207 183l-207 182v239l346 -296v-250zM623 158v239l206 183l-206 182v239l346 -296v-250z" />
<glyph unicode="&#x401;" horiz-adv-x="1366" d="M143 0v1487h1098v-256h-788v-307h723v-256h-723v-412h821v-256h-1131zM375 1655v237h260v-237h-260zM803 1655v237h260v-237h-260z" />
<glyph unicode="&#x402;" horiz-adv-x="1691" d="M29 1231v256h1206v-256h-449v-326q47 8 120 13.5t186 5.5q106 0 199 -32t162 -92.5t107.5 -147.5t38.5 -197q0 -111 -37.5 -195t-106.5 -142.5t-163 -88t-207 -29.5h-120v256h90q113 0 174 61.5t61 153.5q0 98 -65.5 147.5t-169.5 49.5q-29 0 -68 -2t-79 -5.5t-72.5 -6.5 t-49.5 -5v-649h-309v1231h-448z" />
<glyph unicode="&#x403;" horiz-adv-x="1255" d="M143 0v1487h1059v-256h-749v-1231h-310zM498 1618l194 301h318l-303 -301h-209z" />
<glyph unicode="&#x404;" horiz-adv-x="1505" d="M92 741q0 195 53.5 342.5t145.5 245.5t217 147.5t268 49.5q166 0 285 -51.5t195.5 -130t115.5 -171t45 -174.5h-309q-10 33 -26.5 79t-52.5 87t-96.5 70t-156.5 29q-47 0 -100 -16.5t-102.5 -57.5t-88.5 -108.5t-59 -170.5h418v-256h-430q8 -86 32.5 -164.5t69.5 -138 t109.5 -94.5t152.5 -35q129 0 215 75t115 212h309q-23 -121 -74 -222.5t-132 -174t-190.5 -112.5t-248.5 -40q-147 0 -272 50t-216 148.5t-141.5 244t-50.5 337.5z" />
<glyph unicode="&#x405;" horiz-adv-x="1378" d="M80 459h297q0 -31 11 -73t45 -80t95.5 -63.5t163.5 -25.5q55 0 110.5 8t100.5 29.5t73 58.5t28 97q0 43 -20.5 71.5t-56.5 49t-85 35t-109 28.5l-299 74q-160 39 -246 135t-86 266q0 61 21.5 140t84 150t174.5 119t292 48q170 0 281.5 -49.5t177 -123t92 -157.5 t26.5 -152h-297q-4 25 -13 64t-40 75t-90 61.5t-160 25.5q-45 0 -91 -9.5t-84 -30t-61.5 -55t-23.5 -83.5q0 -43 16.5 -72t40 -45.5t51 -24.5t50.5 -14l362 -88q76 -18 146.5 -46t124 -73t86 -112.5t32.5 -167.5q0 -113 -33.5 -193t-88 -133t-122 -86t-132 -49.5 t-120.5 -21.5t-89 -5q-203 0 -328 52.5t-192.5 128t-91 161.5t-23.5 156z" />
<glyph unicode="&#x406;" horiz-adv-x="595" d="M143 0v1487h310v-1487h-310z" />
<glyph unicode="&#x407;" horiz-adv-x="595" d="M-33 1655v237h260v-237h-260zM143 0v1487h310v-1487h-310zM371 1655v237h260v-237h-260z" />
<glyph unicode="&#x408;" horiz-adv-x="1148" d="M51 559h289q0 -88 4 -153.5t22.5 -108.5t54.5 -64.5t97 -21.5t96 18.5t53.5 48t23.5 69.5t5 83v1057h310v-1057q0 -238 -118 -353.5t-343 -115.5q-182 0 -281.5 53.5t-146.5 139.5t-56.5 192.5t-9.5 212.5z" />
<glyph unicode="&#x409;" horiz-adv-x="2320" d="M29 -16v237q14 -4 37.5 -8t54.5 -4q51 0 85 20.5t54.5 68.5t27.5 129t7 202v858h1038v-563h387q106 0 199.5 -32t162 -92.5t107.5 -147.5t39 -197q0 -111 -38 -195t-106.5 -142.5t-162.5 -88t-205 -29.5h-692v1231h-420v-635q0 -145 -19.5 -262t-64.5 -200t-118.5 -128 t-184.5 -45q-53 0 -100 5t-88 18zM1333 256h350q113 0 174.5 61.5t61.5 153.5q0 98 -65.5 147.5t-170.5 49.5h-350v-412z" />
<glyph unicode="&#x40a;" horiz-adv-x="2328" d="M143 0v1487h310v-563h579v563h309v-563h388q106 0 199 -32t162 -92.5t107.5 -147.5t38.5 -197q0 -111 -37.5 -195t-106.5 -142.5t-163 -88t-205 -29.5h-692v668h-579v-668h-310zM1341 256h351q113 0 174 61.5t61 153.5q0 98 -65.5 147.5t-169.5 49.5h-351v-412z" />
<glyph unicode="&#x40b;" horiz-adv-x="1691" d="M29 1231v256h1206v-256h-449v-326q47 8 120 13.5t186 5.5q106 0 199 -32t162 -92.5t107.5 -147.5t38.5 -197v-455h-309v471q0 98 -65.5 147.5t-169.5 49.5q-29 0 -68 -2t-79 -5.5t-72.5 -6.5t-49.5 -5v-649h-309v1231h-448z" />
<glyph unicode="&#x40c;" horiz-adv-x="1466" d="M143 0v1487h310v-604l567 604h401l-606 -608l641 -879h-399l-459 653l-145 -149v-504h-310zM545 1618l194 301h318l-303 -301h-209z" />
<glyph unicode="&#x40e;" horiz-adv-x="1449" d="M18 1487h351l401 -832l309 832h351l-547 -1258q-37 -86 -76 -138t-82 -81.5t-90 -39t-103 -9.5q-23 0 -51 2t-55 4t-49.5 5t-34.5 8v264q20 -10 56 -17.5t65 -7.5q31 0 53.5 5t38.5 18.5t32.5 36t35.5 57.5zM422 1919h137q4 -20 11.5 -46t27.5 -47.5t58 -35.5t104 -14 t103.5 14t58 35.5t27.5 47t12 46.5h137q-2 -31 -16.5 -82t-51.5 -100t-101.5 -84t-168.5 -35t-169 35t-101.5 84t-51 100t-16.5 82z" />
<glyph unicode="&#x40f;" horiz-adv-x="1484" d="M143 0v1487h310v-1231h579v1231h309v-1487h-454v-315h-289v315h-455z" />
<glyph unicode="&#x410;" horiz-adv-x="1495" d="M43 0l528 1487h359l522 -1487h-336l-96 307h-547l-104 -307h-326zM555 563h397l-202 588h-5z" />
<glyph unicode="&#x411;" horiz-adv-x="1439" d="M143 0v1487h1094v-256h-784v-307h387q106 0 199.5 -32t162 -92.5t107.5 -147.5t39 -197q0 -111 -38 -195t-106.5 -142.5t-163 -88t-204.5 -29.5h-693zM453 256h350q113 0 174 61.5t61 153.5q0 98 -65.5 147.5t-169.5 49.5h-350v-412z" />
<glyph unicode="&#x412;" horiz-adv-x="1470" d="M143 0v1487h734q135 0 223 -38t139 -95.5t71.5 -123t20.5 -122.5q0 -80 -19.5 -133t-47 -88t-59 -54.5t-54.5 -31.5q68 -25 112 -64t69.5 -86t35.5 -99t10 -108q0 -31 -6 -76.5t-26.5 -95t-59.5 -98.5t-105.5 -87t-163.5 -62.5t-235 -24.5h-639zM453 256h376 q115 0 177.5 52t62.5 167q0 49 -19.5 83t-50 55.5t-70.5 31.5t-83 10h-393v-399zM453 905h362q92 0 155.5 38t63.5 128q0 92 -60.5 126t-166.5 34h-354v-326z" />
<glyph unicode="&#x413;" horiz-adv-x="1255" d="M143 0v1487h1059v-256h-749v-1231h-310z" />
<glyph unicode="&#x414;" horiz-adv-x="1558" d="M53 256h133q51 80 84 160t51.5 172t25.5 203.5t7 252.5v443h1006v-1231h145v-569h-288v313h-875v-313h-289v569zM494 256h557v975h-406v-207q0 -143 -6 -251.5t-22.5 -197t-46 -164t-76.5 -155.5z" />
<glyph unicode="&#x415;" horiz-adv-x="1366" d="M143 0v1487h1098v-256h-788v-307h723v-256h-723v-412h821v-256h-1131z" />
<glyph unicode="&#x416;" horiz-adv-x="2127" d="M31 0l544 862l-505 625h376l461 -613v613h310v-608l462 608h377l-506 -625l545 -862h-377l-381 657l-120 -157v-500h-310v500l-119 157l-380 -657h-377z" />
<glyph unicode="&#x417;" horiz-adv-x="1378" d="M72 459h290q0 -49 13.5 -93t48.5 -77t98.5 -52.5t161.5 -19.5q141 0 222 57.5t81 155.5q0 55 -21.5 98t-58.5 71t-87 42t-105 14h-144v250h136q111 0 174 50.5t63 142.5q0 86 -70.5 129t-193.5 43q-156 0 -220.5 -59.5t-74.5 -166.5h-291q6 92 44 179.5t109.5 154 t177 107.5t249.5 41q154 0 262 -38t176 -96.5t98.5 -128t30.5 -130.5q0 -141 -70.5 -226.5t-185.5 -118.5q61 -10 117.5 -39.5t99.5 -78.5t68.5 -118t25.5 -155t-35.5 -164.5t-109.5 -139t-187.5 -96.5t-269.5 -36q-190 0 -311 44t-190.5 114.5t-95 160t-25.5 179.5z" />
<glyph unicode="&#x418;" horiz-adv-x="1538" d="M143 0v1487h310v-1036h2l592 1036h348v-1487h-310v1059h-4l-606 -1059h-332z" />
<glyph unicode="&#x419;" horiz-adv-x="1538" d="M143 0v1487h310v-1036h4l590 1036h348v-1487h-310v1059h-4l-606 -1059h-332zM430 1919h137q4 -20 11.5 -46t28 -47.5t58 -35.5t103.5 -14t103.5 14t58 35.5t28 47t11.5 46.5h137q-2 -31 -16.5 -82t-51.5 -100t-101.5 -84t-168.5 -35t-168.5 35t-101.5 84t-51.5 100 t-16.5 82z" />
<glyph unicode="&#x41a;" horiz-adv-x="1466" d="M143 0v1487h310v-604l567 604h401l-606 -608l641 -879h-399l-459 653l-145 -149v-504h-310z" />
<glyph unicode="&#x41b;" horiz-adv-x="1476" d="M29 -16v237q14 -4 37.5 -8t54.5 -4q51 0 85 20.5t54.5 68.5t27.5 129t7 202v858h1038v-1487h-309v1231h-420v-635q0 -145 -19.5 -262t-64.5 -200t-118.5 -128t-184.5 -45q-53 0 -100 5t-88 18z" />
<glyph unicode="&#x41c;" horiz-adv-x="1724" d="M143 0v1487h453l268 -1172h4l265 1172h448v-1487h-289v1243h-2l-278 -1243h-305l-271 1243h-4v-1243h-289z" />
<glyph unicode="&#x41d;" horiz-adv-x="1484" d="M143 0v1487h310v-563h579v563h309v-1487h-309v668h-579v-668h-310z" />
<glyph unicode="&#x41e;" horiz-adv-x="1609" d="M92 743q0 174 39 300t102.5 213t141.5 139.5t157.5 82t151.5 39t121 9.5t120.5 -9.5t151.5 -39t158 -82t141.5 -139.5t102.5 -212.5t39 -300.5q0 -174 -39 -300t-102.5 -213t-141.5 -139t-158 -81.5t-151.5 -39t-120.5 -9.5t-121 9.5t-151.5 39t-157.5 81.5t-141.5 139 t-102.5 213t-39 300zM401 743q0 -156 39 -257t99.5 -159.5t131 -81t134.5 -22.5q63 0 134 22.5t130 81t99 160t40 256.5q0 156 -40 257.5t-99 160t-130 81t-134 22.5t-134 -22.5t-131.5 -81t-99.5 -160t-39 -257.5z" />
<glyph unicode="&#x41f;" horiz-adv-x="1484" d="M143 0v1487h1198v-1487h-309v1231h-579v-1231h-310z" />
<glyph unicode="&#x420;" horiz-adv-x="1374" d="M143 0v1487h680q217 0 338 -127t121 -348q0 -49 -17.5 -130t-68.5 -158t-144.5 -132t-242.5 -55h-356v-537h-310zM453 793h288q76 0 122 23.5t70.5 58t32 74.5t7.5 75q0 111 -63.5 159t-209.5 48h-247v-438z" />
<glyph unicode="&#x421;" horiz-adv-x="1495" d="M92 741q0 195 52.5 342.5t144.5 245.5t217 147.5t268 49.5q166 0 285 -51.5t195.5 -130t115.5 -171t45 -174.5h-309q-10 33 -26.5 79t-51.5 87t-95.5 70t-156.5 29q-55 0 -120.5 -23.5t-122 -83t-94.5 -161t-38 -259.5q0 -100 21.5 -192t68 -164t117 -115t168.5 -43 q129 0 215 75t115 212h309q-23 -121 -74 -222.5t-132 -174t-190.5 -112.5t-248.5 -40q-147 0 -272 50t-215 148.5t-140.5 244t-50.5 337.5z" />
<glyph unicode="&#x422;" horiz-adv-x="1263" d="M29 1231v256h1206v-256h-449v-1231h-309v1231h-448z" />
<glyph unicode="&#x423;" horiz-adv-x="1449" d="M18 1487h351l401 -832l309 832h351l-547 -1258q-37 -86 -76 -138t-82 -81.5t-90 -39t-103 -9.5q-23 0 -51 2t-55 4t-49.5 5t-34.5 8v264q20 -10 56 -17.5t65 -7.5q31 0 53.5 5t38.5 18.5t32.5 36t35.5 57.5z" />
<glyph unicode="&#x424;" horiz-adv-x="1849" d="M92 743q0 170 68.5 284t171 182.5t221.5 97t217 28.5v152h309v-152q98 0 217 -28.5t221.5 -97t171 -182.5t68.5 -284t-68.5 -282.5t-171 -179t-221 -94t-217.5 -27.5v-160h-309v160q-98 0 -217 27.5t-221.5 94t-171 179t-68.5 282.5zM401 743q0 -104 36 -169.5 t90.5 -101.5t119 -49t123.5 -13v675q-59 0 -123.5 -14t-119 -52t-90.5 -105t-36 -171zM1079 410q59 0 124 13t119 49t90 101.5t36 169.5t-36 171t-90 105t-118.5 52t-124.5 14v-675z" />
<glyph unicode="&#x425;" horiz-adv-x="1378" d="M29 0l479 760l-453 727h371l264 -481l271 481h358l-453 -715l484 -772h-379l-281 508l-299 -508h-362z" />
<glyph unicode="&#x426;" horiz-adv-x="1531" d="M143 0v1487h310v-1231h579v1231h309v-1231h148v-571h-289v315h-1057z" />
<glyph unicode="&#x427;" horiz-adv-x="1443" d="M145 1057v430h310v-436q0 -53 18.5 -91t49 -62t72.5 -35t89 -11q76 0 152.5 6t154.5 16v613h309v-1487h-309v621q-98 -16 -194.5 -20.5t-196.5 -4.5q-90 0 -172 24.5t-145.5 79t-100.5 142.5t-37 215z" />
<glyph unicode="&#x428;" horiz-adv-x="1992" d="M143 0v1487h310v-1231h389v1231h309v-1231h389v1231h309v-1487h-1706z" />
<glyph unicode="&#x429;" horiz-adv-x="2039" d="M143 0v1487h310v-1231h389v1231h309v-1231h389v1231h309v-1231h148v-571h-289v315h-1565z" />
<glyph unicode="&#x42a;" horiz-adv-x="1640" d="M14 1231v256h639v-563h387q106 0 199.5 -32t162 -92.5t107.5 -147.5t39 -197q0 -111 -37.5 -195t-106.5 -142.5t-163 -88t-205 -29.5h-692v1231h-330zM653 256h351q113 0 174 61.5t61 153.5q0 98 -65.5 147.5t-169.5 49.5h-351v-412z" />
<glyph unicode="&#x42b;" horiz-adv-x="2060" d="M143 0v1487h310v-563h387q106 0 199.5 -32t162 -92.5t107.5 -147.5t39 -197q0 -111 -38 -195t-106.5 -142.5t-163 -88t-204.5 -29.5h-693zM453 256h350q113 0 174 61.5t61 153.5q0 98 -65.5 147.5t-169.5 49.5h-350v-412zM1608 0v1487h309v-1487h-309z" />
<glyph unicode="&#x42c;" horiz-adv-x="1439" d="M143 0v1487h310v-563h387q106 0 199.5 -32t162 -92.5t107.5 -147.5t39 -197q0 -111 -38 -195t-106.5 -142.5t-163 -88t-204.5 -29.5h-693zM453 256h350q113 0 174 61.5t61 153.5q0 98 -65.5 147.5t-169.5 49.5h-350v-412z" />
<glyph unicode="&#x42d;" horiz-adv-x="1503" d="M84 510h309q29 -137 115 -212t215 -75q88 0 152.5 35t109.5 94.5t69.5 138t32.5 164.5h-430v256h418q-20 102 -59 170t-88 109t-102.5 57.5t-100.5 16.5q-96 0 -156.5 -29t-96.5 -70t-53.5 -87t-25.5 -79h-309q6 82 45 174.5t116 171t195.5 130t284.5 51.5 q143 0 268 -49.5t218.5 -147.5t146.5 -245.5t53 -342.5q0 -193 -51 -338t-141.5 -243.5t-216 -148.5t-273.5 -50q-139 0 -248.5 40t-190.5 112.5t-132.5 174t-73.5 222.5z" />
<glyph unicode="&#x42e;" horiz-adv-x="2064" d="M143 0v1487h310v-563h213q18 133 63 229t104.5 162.5t128 107.5t135 63.5t125 31t97.5 8.5q43 0 108.5 -9.5t138 -39t145.5 -82t131.5 -139.5t94 -212.5t35.5 -300.5q0 -174 -35.5 -300t-94 -213t-131.5 -139t-145.5 -81.5t-138 -39t-108.5 -9.5t-105.5 9.5t-132 35 t-140.5 73.5t-129 127t-98 191.5t-48 270.5h-213v-668h-310zM975 745q0 -156 34.5 -257t87 -159.5t112 -82t110.5 -23.5t111.5 22.5t111.5 81t86 160t35 256.5q0 156 -35 257.5t-86 160t-111.5 81t-111.5 22.5t-110.5 -22.5t-112 -81t-87 -159t-34.5 -256.5z" />
<glyph unicode="&#x42f;" horiz-adv-x="1464" d="M76 0l362 610q-63 20 -123.5 56t-107.5 88.5t-76 122t-29 157.5t33 170t93.5 144.5t146.5 100.5t194 38h752v-1487h-309v582h-230l-344 -582h-362zM412 1044q0 -92 59 -149t182 -57h359v393h-383q-59 0 -100.5 -17.5t-68 -45t-37.5 -60.5t-11 -64z" />
<glyph unicode="&#x430;" horiz-adv-x="1161" d="M72 293q0 94 41 162.5t111.5 114.5t163.5 71t198 33q92 8 130 31.5t38 64.5q0 45 -19.5 71.5t-48.5 39t-62.5 15.5t-60.5 3q-55 0 -88 -15.5t-52.5 -38t-27.5 -49t-10 -51.5h-279q12 127 59.5 203t115 117t150.5 53t167 12q57 0 133 -11t143.5 -46t114.5 -97.5t47 -164.5 v-596q0 -96 18.5 -129t45.5 -41v-45h-312q-6 20 -10 34.5t-7 28t-5 30t-4 38.5q-25 -25 -55.5 -53.5t-73.5 -52t-98.5 -39t-128.5 -15.5q-61 0 -122 18.5t-108 57.5t-75.5 99.5t-28.5 146.5zM360 311q0 -39 13.5 -64.5t33 -41t43 -21.5t46.5 -6q47 0 93 15.5t83 43 t59.5 68.5t22.5 90v142q-23 -16 -65 -30.5t-132 -29.5q-41 -6 -77 -16t-62.5 -28.5t-42 -47.5t-15.5 -74z" />
<glyph unicode="&#x431;" horiz-adv-x="1230" d="M72 586q0 160 20.5 295t74.5 240.5t148.5 179t241.5 108.5q70 16 126 27.5t97 24t65.5 27.5t31.5 42h219q-25 -139 -117 -208t-258 -95q-88 -14 -163 -40t-131 -72t-91 -116t-43 -170q49 98 140 165t210 67q100 0 194.5 -27.5t165 -88t113.5 -158t43 -236.5 q0 -143 -40 -252t-112.5 -181.5t-173 -109.5t-219.5 -37q-125 0 -225 39t-171 117t-108.5 192.5t-37.5 266.5zM369 524q0 -53 11 -108.5t38.5 -99.5t75 -72.5t120.5 -28.5q72 0 120 28.5t77 73.5t40 100.5t11 108.5t-11 107.5t-39 97.5t-72.5 70.5t-114.5 27.5 q-72 0 -121 -26.5t-79 -70.5t-43 -98t-13 -110z" />
<glyph unicode="&#x432;" d="M123 0v1102h498q92 0 169.5 -18.5t135 -54.5t89.5 -89t32 -123q0 -96 -59.5 -155.5t-145.5 -81.5q43 -10 85 -30t75.5 -52.5t55 -80.5t21.5 -116q0 -154 -107.5 -227.5t-295.5 -73.5h-553zM412 199h213q80 0 126 29.5t46 111.5q0 72 -48.5 106.5t-127.5 34.5h-209v-282z M412 655h188q72 0 118 30t46 95q0 68 -45 95.5t-117 27.5h-190v-248z" />
<glyph unicode="&#x433;" horiz-adv-x="905" d="M123 0v1102h747v-232h-458v-870h-289z" />
<glyph unicode="&#x434;" horiz-adv-x="1304" d="M35 231h121q55 70 85.5 221.5t30.5 350.5v299h850v-871h133v-528h-268v297h-684v-297h-268v528zM442 231h392v639h-293v-135q0 -111 -7.5 -191.5t-20.5 -139t-31.5 -100.5t-39.5 -73z" />
<glyph unicode="&#x435;" horiz-adv-x="1187" d="M72 573q0 33 6 87.5t24.5 117t53 125t93 113.5t144.5 82.5t207 31.5q117 0 212 -32.5t162.5 -100t104.5 -171t37 -244.5v-109h-747q0 -31 6 -77t31.5 -89t75.5 -73.5t139 -30.5q61 0 115.5 30.5t70.5 90.5h297q-29 -98 -81 -166t-118.5 -110t-140.5 -59.5t-143 -17.5 q-117 0 -217.5 31t-174 101.5t-115.5 185t-42 284.5zM369 662h450q-6 66 -28.5 110.5t-54 71t-68.5 38t-72 11.5q-104 0 -159.5 -61.5t-67.5 -169.5z" />
<glyph unicode="&#x436;" horiz-adv-x="1673" d="M18 0l392 664l-383 438h340l327 -406v406h289v-410l326 410h342l-383 -440l393 -662h-348l-246 451l-84 -91v-360h-289v358l-84 95l-243 -453h-349z" />
<glyph unicode="&#x437;" horiz-adv-x="1144" d="M63 352h281q0 -72 50 -117t173 -45q113 0 165 34t52 106q0 70 -46 111.5t-138 41.5h-123v185h109q72 0 119 30.5t47 96.5q0 53 -46.5 84.5t-138.5 31.5q-53 0 -89 -13t-59.5 -33.5t-36.5 -46t-17 -52.5h-279q39 186 165 275t324 89q98 0 182.5 -21.5t145 -60t94 -92 t33.5 -114.5q0 -127 -70.5 -187.5t-175.5 -81.5q51 -6 103.5 -24.5t93.5 -51t66.5 -81.5t25.5 -119q0 -88 -38 -149.5t-104.5 -100.5t-155.5 -57.5t-193 -18.5q-102 0 -194.5 19.5t-163 64.5t-113.5 118t-48 179z" />
<glyph unicode="&#x438;" horiz-adv-x="1261" d="M123 0v1102h289v-699l417 699h310v-1102h-289v700l-418 -700h-309z" />
<glyph unicode="&#x439;" horiz-adv-x="1261" d="M123 0v1102h289v-699l417 699h310v-1102h-289v700l-418 -700h-309zM324 1552h137q4 -20 12 -45.5t28.5 -47t59.5 -37t105 -15.5q37 0 72.5 4t65.5 18.5t52.5 43t30.5 79.5h135q-4 -35 -18.5 -87t-53.5 -100t-109.5 -82t-187.5 -34q-104 0 -167.5 36t-98.5 85t-48 100.5 t-15 81.5z" />
<glyph unicode="&#x43a;" d="M123 0v1102h289v-418l364 418h354l-387 -426l398 -676h-346l-263 473l-120 -125v-348h-289z" />
<glyph unicode="&#x43b;" horiz-adv-x="1257" d="M31 0v215q4 -4 28.5 -6t57.5 -2t57.5 12t40.5 51t24.5 114t8.5 202v516h887v-1102h-289v870h-309v-340q0 -158 -22.5 -264t-65.5 -170.5t-104.5 -92.5t-137.5 -28q-39 0 -91.5 6.5t-84.5 18.5z" />
<glyph unicode="&#x43c;" horiz-adv-x="1531" d="M123 0v1102h399l240 -750h8l238 750h401v-1102h-276v676q0 23 1 45t3 41q2 23 4 43h-8l-261 -805h-213l-260 805h-8q2 -20 4 -43q2 -18 3 -41t1 -45v-676h-276z" />
<glyph unicode="&#x43d;" horiz-adv-x="1234" d="M123 0v1102h289v-412h411v412h289v-1102h-289v459h-411v-459h-289z" />
<glyph unicode="&#x43e;" horiz-adv-x="1267" d="M72 551q0 150 46 258.5t125 180t180 106t212 34.5t212 -34.5t179 -105t124 -179.5t46 -258q0 -150 -46 -259.5t-124 -181t-179.5 -106.5t-211.5 -35q-111 0 -212 35t-180 106.5t-125 180t-46 258.5zM369 553q0 -53 10 -112.5t38.5 -109.5t81 -83t136.5 -33t135 33t80 82 t39 108.5t10 112.5t-10 112.5t-39 108.5t-80 82t-135 33t-136.5 -33t-81 -82t-38.5 -107.5t-10 -111.5z" />
<glyph unicode="&#x43f;" horiz-adv-x="1234" d="M123 0v1102h989v-1102h-289v870h-411v-870h-289z" />
<glyph unicode="&#x440;" horiz-adv-x="1265" d="M123 -442v1544h278v-160h5q20 33 45.5 65.5t64.5 60.5t91 45t126 17q92 0 175 -35.5t146.5 -107.5t101.5 -178.5t38 -249.5q0 -113 -26.5 -219.5t-84 -188t-145.5 -131t-211 -49.5q-76 0 -129 18.5t-89 44t-57.5 55.5t-33.5 52l-6 2v-585h-289zM401 543 q0 -49 11.5 -107.5t39 -109t73.5 -84t116 -33.5t118 26.5t78.5 70.5t45 101.5t14.5 118.5q0 66 -11.5 129.5t-39 113.5t-75.5 81t-122 31q-70 0 -117 -29t-76.5 -76t-42 -107.5t-12.5 -125.5z" />
<glyph unicode="&#x441;" horiz-adv-x="1155" d="M72 520q0 133 29.5 246t93 193.5t164 125.5t239.5 45q66 0 145.5 -17t152.5 -64.5t125 -129t62 -210.5h-292q-4 27 -15.5 58.5t-34 58t-57.5 44t-86 17.5q-68 0 -113 -31t-70.5 -78t-35.5 -103.5t-10 -107.5q0 -45 4 -106.5t25.5 -117.5t66.5 -95t127 -39q55 0 93 22.5 t61.5 54t34 64.5t10.5 51h290q-4 -43 -26.5 -114.5t-77.5 -142t-150.5 -122t-246.5 -51.5q-156 0 -254.5 53.5t-154.5 134.5t-77.5 178t-21.5 183z" />
<glyph unicode="&#x442;" horiz-adv-x="1013" d="M35 870v232h944v-232h-328v-870h-289v870h-327z" />
<glyph unicode="&#x443;" d="M20 1102h324l236 -811h4l225 811h307l-379 -1082q-47 -135 -84 -224t-82 -142t-105 -74.5t-155 -21.5q-29 0 -64.5 1t-66.5 3v231q10 -2 23.5 -3t32.5 -1q39 0 70.5 4t54 21.5t39 50.5t26.5 90z" />
<glyph unicode="&#x444;" horiz-adv-x="1845" d="M72 563q0 143 32.5 250t89 177.5t130 105t157.5 34.5q63 0 110.5 -17t81.5 -45t58.5 -60.5t44.5 -65.5h2v545h289v-545h2q20 33 45 65.5t59.5 60.5t82 45t110.5 17q82 0 156.5 -34.5t130 -105t88.5 -177t33 -250.5q0 -113 -22.5 -219t-72 -189t-128 -133.5t-191.5 -50.5 q-68 0 -116 18.5t-82 44t-55.5 55.5t-33.5 52h-6v-583h-289v583h-4q-12 -23 -33.5 -52.5t-55.5 -55t-82 -44t-116 -18.5q-113 0 -191.5 50.5t-128.5 133.5t-72.5 189.5t-22.5 218.5zM369 541q0 -49 8 -106.5t29.5 -106.5t58.5 -81t96 -32q68 0 112 26.5t70.5 69.5t37 100.5 t10.5 118.5q0 74 -10.5 138.5t-35 113.5t-67.5 77t-107 28q-57 0 -96 -30t-62.5 -79t-33.5 -111.5t-10 -125.5zM1057 530q0 -61 10 -118.5t36.5 -100.5t71 -69.5t111.5 -26.5q59 0 96 32t58.5 81t29 106.5t7.5 106.5q0 63 -9.5 125.5t-31 111.5t-58.5 79t-94 30 q-66 0 -108.5 -28t-69.5 -77t-38 -113.5t-11 -138.5z" />
<glyph unicode="&#x445;" d="M31 0l375 561l-361 541h352l187 -322l182 322h342l-363 -541l375 -561h-358l-191 332l-190 -332h-350z" />
<glyph unicode="&#x446;" horiz-adv-x="1277" d="M123 0v1102h289v-871h413v871h289v-871h131v-528h-268v297h-854z" />
<glyph unicode="&#x447;" horiz-adv-x="1218" d="M123 772v330h289v-322q0 -49 17 -77.5t44 -45t60.5 -21.5t66.5 -5q66 0 122 4t85 12v455h289v-1102h-289v422q-78 -16 -152.5 -25.5t-158.5 -9.5q-82 0 -151 20.5t-118 66.5t-76.5 120t-27.5 178z" />
<glyph unicode="&#x448;" horiz-adv-x="1820" d="M123 0v1102h289v-871h354v871h289v-871h354v871h289v-1102h-1575z" />
<glyph unicode="&#x449;" horiz-adv-x="1859" d="M123 0v1102h289v-871h354v871h289v-871h354v871h289v-871h133v-528h-268v297h-1440z" />
<glyph unicode="&#x44a;" horiz-adv-x="1218" d="M0 870v232h502v-412h205q100 0 182 -24.5t140 -71.5t90 -114.5t32 -153.5q0 -84 -34 -144.5t-94 -101.5t-141 -60.5t-173 -19.5h-496v870h-213zM502 199h196q78 0 121 34.5t43 98.5q0 72 -43 116t-121 44h-196v-293z" />
<glyph unicode="&#x44b;" horiz-adv-x="1667" d="M123 0v1102h289v-412h204q100 0 182.5 -24.5t140.5 -71.5t90 -114.5t32 -153.5q0 -84 -34 -144.5t-94.5 -101.5t-141 -60.5t-173.5 -19.5h-495zM412 199h196q78 0 121 34.5t43 98.5q0 72 -43 116t-121 44h-196v-293zM1255 0v1102h289v-1102h-289z" />
<glyph unicode="&#x44c;" horiz-adv-x="1153" d="M143 0v1102h289v-412h205q100 0 182 -24.5t140.5 -71.5t90 -114.5t31.5 -153.5q0 -84 -33.5 -144.5t-94 -101.5t-141.5 -60.5t-173 -19.5h-496zM432 199h197q78 0 121 34.5t43 98.5q0 72 -43 116t-121 44h-197v-293z" />
<glyph unicode="&#x44d;" d="M72 401h288q0 -18 11.5 -51t36 -64.5t63.5 -54t94 -22.5q57 0 97 22.5t66 61.5t38 90t16 109h-290v188h290q-10 51 -25.5 90t-40 66.5t-61.5 42t-90 14.5q-45 0 -78.5 -14.5t-57 -37t-39 -49t-21.5 -53.5h-287q23 113 76 187.5t121.5 120t143.5 64.5t142 19 q131 0 228.5 -45t161 -125.5t94 -193.5t30.5 -246q0 -86 -22.5 -183t-79.5 -178t-155.5 -134.5t-250.5 -53.5t-247 51.5t-150 122t-76.5 142t-25.5 114.5z" />
<glyph unicode="&#x44e;" horiz-adv-x="1712" d="M123 0v1102h289v-412h200q16 106 64.5 189.5t118 138.5t153.5 83.5t174 28.5q100 0 193.5 -34.5t165 -106t115.5 -180.5t44 -258q0 -150 -44 -258.5t-115.5 -180t-164.5 -106.5t-194 -35q-90 0 -175 27t-154.5 85t-117.5 151.5t-63 224.5h-200v-459h-289zM897 551 q0 -53 10.5 -112.5t35 -108.5t68.5 -82t111 -33q68 0 112 33t70.5 82t37 108.5t10.5 112.5t-10.5 112.5t-37 108.5t-70.5 82t-112 33t-111.5 -33t-68 -82t-35 -108.5t-10.5 -112.5z" />
<glyph unicode="&#x44f;" horiz-adv-x="1148" d="M55 0l269 461q-37 8 -80 28.5t-82 57.5t-64.5 92t-25.5 131q0 166 112.5 249t323.5 83h518v-1102h-289v434h-125l-221 -434h-336zM354 764q0 -72 45 -105.5t125 -33.5h213v278h-213q-74 0 -122 -38t-48 -101z" />
<glyph unicode="&#x451;" horiz-adv-x="1187" d="M72 573q0 33 6 87.5t24.5 117t53 125t93 113.5t144.5 82.5t207 31.5q82 0 172 -23.5t167 -90t127 -184t50 -306.5v-53h-747q0 -31 6 -77t31.5 -89t75.5 -73.5t139 -30.5q61 0 115.5 30.5t70.5 90.5h297q-29 -98 -81 -166t-118.5 -110t-140.5 -59.5t-143 -17.5 q-117 0 -217.5 31t-174 101.5t-115.5 185t-42 284.5zM268 1270v237h260v-237h-260zM369 662h450q-6 66 -28.5 110.5t-54 71t-68.5 38t-72 11.5q-104 0 -159.5 -61.5t-67.5 -169.5zM672 1270v237h260v-237h-260z" />
<glyph unicode="&#x452;" horiz-adv-x="1239" d="M0 1200v178h123v109h289v-109h329v-178h-329v-242h4q29 68 114.5 120t204.5 52q80 0 149.5 -23.5t121 -69.5t81 -115.5t29.5 -159.5q0 -287 -15.5 -487.5t-68.5 -332.5t-156.5 -203t-279.5 -95v243q76 20 121 72.5t69.5 146t32.5 231.5t8 333q0 31 -3 67.5t-21.5 70.5 t-56 56.5t-107.5 22.5q-98 0 -162.5 -64.5t-64.5 -191.5v-631h-289v1200h-123z" />
<glyph unicode="&#x453;" horiz-adv-x="905" d="M123 0v1102h747v-232h-458v-870h-289zM346 1270l152 231h250l-234 -231h-168z" />
<glyph unicode="&#x454;" d="M72 520q0 133 29.5 246t93 193.5t163 125.5t238.5 45q68 0 143.5 -17t143 -61t119 -120t67.5 -193h-287q-6 27 -19 52.5t-34.5 47t-54.5 35t-78 13.5q-55 0 -93 -16.5t-63.5 -46t-40 -68.5t-22.5 -82h270v-189h-272q2 -55 14 -104t37 -86t64.5 -58.5t97.5 -21.5 q55 0 94 21.5t62.5 52t35 62.5t11.5 50h288q-4 -43 -26.5 -114.5t-77.5 -142t-150.5 -122t-246.5 -51.5q-156 0 -254.5 53.5t-154.5 134.5t-76.5 178t-20.5 183z" />
<glyph unicode="&#x455;" horiz-adv-x="1153" d="M72 352h297q0 -35 12 -64.5t40 -51t74 -34t113 -12.5q55 0 91 12.5t56.5 30t29 37t8.5 35.5q0 47 -50.5 69.5t-126 39t-165 35t-165 53.5t-125.5 96t-50 164q0 61 21.5 125.5t71.5 119t136 89t215 34.5q80 0 164 -13t154.5 -52t118.5 -110.5t57 -188.5h-283 q-4 27 -13.5 52.5t-30 46t-56 33.5t-95.5 13q-59 0 -94 -10t-53 -26.5t-24.5 -35t-6.5 -36.5q0 -43 51.5 -65.5t127 -39t165.5 -35t166 -54.5t127 -97t51 -162q0 -121 -51 -194.5t-125 -114.5t-157.5 -55.5t-147.5 -14.5q-94 0 -188.5 18.5t-170 62.5t-122.5 117t-47 183z " />
<glyph unicode="&#x456;" horiz-adv-x="534" d="M123 0v1102h289v-1102h-289zM123 1231v268h289v-268h-289z" />
<glyph unicode="&#x457;" horiz-adv-x="534" d="M-63 1270v237h260v-237h-260zM123 0v1102h289v-1102h-289zM340 1270v237h260v-237h-260z" />
<glyph unicode="&#x458;" horiz-adv-x="534" d="M-14 -211q82 0 109.5 17.5t27.5 84.5v1211h289v-1217q0 -109 -26 -173t-78 -99t-132 -45t-190 -10v231zM123 1231v268h289v-268h-289z" />
<glyph unicode="&#x459;" horiz-adv-x="1855" d="M31 0v215q4 -4 28.5 -6t57.5 -2t57.5 12t40.5 51t24.5 114t8.5 202v516h887v-412h204q100 0 182.5 -24.5t140.5 -71.5t90 -114.5t32 -153.5q0 -84 -34 -144.5t-94.5 -101.5t-141 -60.5t-173.5 -19.5h-495v870h-309v-340q0 -158 -22.5 -264t-65.5 -170.5t-104.5 -92.5 t-137.5 -28q-39 0 -91.5 6.5t-84.5 18.5zM1135 199h196q78 0 121 34.5t43 98.5q0 72 -43 116t-121 44h-196v-293z" />
<glyph unicode="&#x45a;" horiz-adv-x="1832" d="M123 0v1102h289v-412h411v412h289v-412h205q100 0 182 -24.5t140.5 -71.5t90 -114.5t31.5 -153.5q0 -84 -33.5 -144.5t-94 -101.5t-141.5 -60.5t-173 -19.5h-496v492h-411v-492h-289zM1112 199h197q78 0 121 34.5t43 98.5q0 72 -43.5 116t-120.5 44h-197v-293z" />
<glyph unicode="&#x45b;" horiz-adv-x="1253" d="M14 1200v178h123v109h289v-109h330v-178h-330v-242h4q29 68 115 120t205 52q80 0 149.5 -23.5t120.5 -69.5t80.5 -115.5t29.5 -159.5v-762h-288v670q0 31 -3 67.5t-21.5 70.5t-56.5 56.5t-108 22.5q-98 0 -162.5 -64.5t-64.5 -191.5v-631h-289v1200h-123z" />
<glyph unicode="&#x45c;" d="M123 0v1102h289v-418l364 418h354l-387 -426l398 -676h-346l-263 473l-120 -125v-348h-289zM469 1270l152 231h249l-233 -231h-168z" />
<glyph unicode="&#x45e;" d="M20 1102h324l236 -811h4l225 811h307l-379 -1082q-47 -135 -84 -224t-82 -142t-105 -74.5t-155 -21.5q-29 0 -64.5 1t-66.5 3v231q10 -2 23.5 -3t32.5 -1q39 0 70.5 4t54 21.5t39 50.5t26.5 90zM240 1552h137q4 -20 12 -45.5t28.5 -47t59.5 -37t105 -15.5q37 0 72.5 4 t65.5 18.5t52.5 43t30.5 79.5h135q-4 -35 -18.5 -87t-53.5 -100t-109.5 -82t-187.5 -34q-104 0 -167.5 36t-98.5 85t-48 100.5t-15 81.5z" />
<glyph unicode="&#x45f;" horiz-adv-x="1236" d="M123 0v1102h289v-871h413v871h289v-1102h-362v-297h-267v297h-362z" />
<glyph unicode="&#x490;" horiz-adv-x="1255" d="M143 0v1487h787v260h272v-516h-749v-1231h-310z" />
<glyph unicode="&#x491;" horiz-adv-x="905" d="M123 0v1102h549v194h198v-426h-458v-870h-289z" />
<glyph unicode="&#x2000;" horiz-adv-x="959" />
<glyph unicode="&#x2001;" horiz-adv-x="1919" />
<glyph unicode="&#x2002;" horiz-adv-x="959" />
<glyph unicode="&#x2003;" horiz-adv-x="1919" />
<glyph unicode="&#x2004;" horiz-adv-x="639" />
<glyph unicode="&#x2005;" horiz-adv-x="479" />
<glyph unicode="&#x2006;" horiz-adv-x="319" />
<glyph unicode="&#x2007;" horiz-adv-x="319" />
<glyph unicode="&#x2008;" horiz-adv-x="239" />
<glyph unicode="&#x2009;" horiz-adv-x="383" />
<glyph unicode="&#x200a;" horiz-adv-x="106" />
<glyph unicode="&#x2010;" horiz-adv-x="741" d="M82 408v231h577v-231h-577z" />
<glyph unicode="&#x2011;" horiz-adv-x="741" d="M82 408v231h577v-231h-577z" />
<glyph unicode="&#x2012;" horiz-adv-x="741" d="M82 408v231h577v-231h-577z" />
<glyph unicode="&#x2013;" d="M0 408v231h1151v-231h-1151z" />
<glyph unicode="&#x2014;" horiz-adv-x="2068" d="M0 408v231h2068v-231h-2068z" />
<glyph unicode="&#x2018;" horiz-adv-x="573" d="M141 940v211q0 98 28 161.5t70 102.5t92 58.5t95 29.5v-104q-51 -16 -81 -38t-45 -47.5t-20.5 -54t-7.5 -57.5h158v-262h-289z" />
<glyph unicode="&#x2019;" horiz-adv-x="573" d="M141 1223v262h289v-209q0 -98 -27.5 -161.5t-69.5 -103.5t-91 -60.5t-95 -28.5v104q51 16 81 37.5t45.5 47.5t20.5 54.5t7 57.5h-160z" />
<glyph unicode="&#x201a;" horiz-adv-x="573" d="M131 0v301h309v-260q0 -96 -23.5 -162.5t-64.5 -112t-97 -72t-122 -42.5h-2v110q31 10 59.5 23.5t53 40.5t41 67.5t20.5 106.5h-174z" />
<glyph unicode="&#x201c;" horiz-adv-x="1032" d="M131 940v211q0 98 27.5 161.5t69.5 102.5t92.5 58.5t95.5 29.5v-104q-51 -16 -81 -38t-45.5 -47.5t-20.5 -54t-7 -57.5h158v-262h-289zM610 940v211q0 98 28 161.5t70 102.5t92 58.5t95 29.5v-104q-51 -16 -81 -38t-45 -47.5t-20.5 -54t-7.5 -57.5h158v-262h-289z" />
<glyph unicode="&#x201d;" horiz-adv-x="1032" d="M131 1223v262h289v-209q0 -98 -27.5 -161.5t-69.5 -103.5t-91.5 -60.5t-94.5 -28.5v104q51 16 81 37.5t45.5 47.5t20.5 54.5t7 57.5h-160zM610 1223v262h289v-209q0 -98 -27.5 -161.5t-69.5 -103.5t-91 -60.5t-95 -28.5v104q51 16 81 37.5t45.5 47.5t20.5 54.5t7 57.5 h-160z" />
<glyph unicode="&#x201e;" horiz-adv-x="1032" d="M111 0v301h309v-260q0 -96 -23.5 -162.5t-64.5 -112t-97.5 -72t-121.5 -42.5h-2v110q31 10 59.5 23.5t53 40.5t41 67.5t20.5 106.5h-174zM590 0v301h309v-260q0 -96 -23.5 -162.5t-64.5 -112t-97.5 -72t-121.5 -42.5h-2v110q31 10 59.5 23.5t53 40.5t41 67.5t20.5 106.5 h-174z" />
<glyph unicode="&#x2026;" horiz-adv-x="2068" d="M190 0v301h310v-301h-310zM879 0v301h309v-301h-309zM1567 0v301h309v-301h-309z" />
<glyph unicode="&#x202f;" horiz-adv-x="383" />
<glyph unicode="&#x2039;" horiz-adv-x="690" d="M172 455v250l346 296v-239l-207 -182l207 -183v-239z" />
<glyph unicode="&#x203a;" horiz-adv-x="690" d="M172 158v239l207 183l-207 182v239l346 -296v-250z" />
<glyph unicode="&#x205f;" horiz-adv-x="479" />
<glyph unicode="&#x2122;" horiz-adv-x="2068" d="M90 1309v176h707v-176h-238v-676h-231v676h-238zM958 633v852h316l194 -516l193 516h315v-852h-219v581h-10l-197 -581h-166l-202 581h-4v-581h-220z" />
<glyph unicode="&#xe000;" horiz-adv-x="1105" d="M0 0v1106h1106v-1106h-1106z" />
</font>
</defs>
</svg>
