<?xml version="1.0" standalone="no"?>
<!DOCTYPE svg PUBLIC "-//W3C//DTD SVG 1.1//EN" "http://www.w3.org/Graphics/SVG/1.1/DTD/svg11.dtd" >
<svg xmlns="http://www.w3.org/2000/svg">
<metadata></metadata>
<defs>
<font id="helioslightitalic" horiz-adv-x="1138" >
<font-face units-per-em="2048" ascent="1638" descent="-410" />
<missing-glyph horiz-adv-x="569" />
<glyph horiz-adv-x="2048" />
<glyph horiz-adv-x="2048" />
<glyph unicode="&#xd;" horiz-adv-x="569" />
<glyph unicode=" "  horiz-adv-x="569" />
<glyph unicode="&#x09;" horiz-adv-x="569" />
<glyph unicode="&#xa0;" horiz-adv-x="569" />
<glyph unicode="!" horiz-adv-x="681" d="M143 0l37 180h150l-37 -180h-150zM252 371l108 645l99 459h149l-98 -459l-166 -645h-92z" />
<glyph unicode="&#x22;" horiz-adv-x="569" d="M68 1012l98 463h106l-98 -463h-106zM295 1012l98 463h107l-99 -463h-106z" />
<glyph unicode="#" d="M2 467l27 121h243l105 286h-230l25 121h246l157 435h123l-157 -435h278l156 435h121l-156 -435h205l-25 -121h-221l-102 -286h209l-27 -121h-227l-164 -467h-121l162 467h-281l-168 -467h-121l168 467h-225zM393 588h283l102 286h-278z" />
<glyph unicode="$" d="M47 285q0 16 4 46.5t17 84.5h127q-8 -35 -9 -80q0 -111 64.5 -184.5t183.5 -79.5l129 608q-70 18 -130 40.5t-105 57.5t-72 83t-27 118q0 102 42 187t112 146.5t160 96.5t184 35l27 125h96l-27 -125q150 0 240 -73t90 -210q0 -14 -2 -38.5t-6 -39.5h-133q6 31 6 58 q0 90 -60.5 141t-158.5 51l-115 -545q80 -20 147.5 -43.5t114.5 -58.5t74 -87t27 -128q0 -121 -46.5 -215t-122 -159.5t-173 -100.5t-197.5 -35l-33 -156h-96l33 156q-78 0 -144.5 25.5t-116 68.5t-77 102.5t-27.5 127.5zM365 1012q0 -47 18 -80t49 -56.5t72 -39t88 -29.5 l110 526q-68 0 -128 -24.5t-107 -68.5t-74.5 -102.5t-27.5 -125.5zM530 72q74 0 142.5 28.5t122 78.5t86 118t32.5 145q0 53 -20.5 89t-55 60.5t-81.5 40t-101 27.5z" />
<glyph unicode="%" horiz-adv-x="1820" d="M211 1020q0 80 36 153.5t95 131t134 91.5t153 34q61 0 111.5 -20.5t87 -57.5t57 -86t20.5 -107q0 -80 -35.5 -152.5t-94 -130t-134.5 -91t-156 -33.5q-61 0 -111 20.5t-86 56t-56.5 85t-20.5 106.5zM293 -29l1126 1473h107l-1127 -1473h-106zM332 1044q0 -76 50 -126 t128 -50q51 0 100 21.5t88 58.5t62.5 85t23.5 100q0 76 -50 128t-130 52q-51 0 -100 -22.5t-87 -59.5t-61.5 -86t-23.5 -101zM924 268q0 80 35.5 154t95 131t134 91t152.5 34q61 0 111.5 -20.5t87.5 -57.5t57.5 -86t20.5 -106q0 -80 -36 -153t-94 -130t-134 -91t-156 -34 q-61 0 -111.5 20.5t-86 56.5t-56 85t-20.5 106zM1044 293q0 -76 50.5 -126t128.5 -50q51 0 100 21.5t88 58t62.5 85t23.5 99.5q0 76 -50 128t-130 52q-51 0 -100.5 -22.5t-87 -59.5t-61.5 -86t-24 -100z" />
<glyph unicode="&#x26;" horiz-adv-x="1366" d="M51 301q0 100 37 186t99.5 155t146.5 123t176 91q-37 57 -65.5 121.5t-28.5 138.5q0 86 34.5 152.5t91 112.5t129 70t146.5 24q121 0 187.5 -64.5t66.5 -163.5q0 -80 -27.5 -139t-78 -108.5t-119 -92.5t-150.5 -88l277 -438q53 66 79.5 138.5t43.5 148.5h121 q-27 -100 -69 -199.5t-116 -185.5l180 -283h-165l-107 174q-121 -115 -241.5 -164t-268.5 -49q-84 0 -153.5 23.5t-120 67.5t-78 107.5t-27.5 141.5zM190 315q0 -115 75 -179t198 -64q119 0 221 54t195 142l-314 500q-78 -33 -145.5 -81t-118.5 -106.5t-81 -125t-30 -140.5z M547 1153q0 -35 20.5 -95.5t75.5 -146.5q129 66 211 138.5t82 164.5q0 25 -7 51.5t-24.5 48t-47.5 36t-75 14.5q-39 0 -79.5 -13.5t-75.5 -40t-57.5 -66.5t-22.5 -91z" />
<glyph unicode="'" horiz-adv-x="454" d="M125 1012l98 463h107l-99 -463h-106z" />
<glyph unicode="(" horiz-adv-x="681" d="M78 258q0 188 43 357t119.5 324t185.5 297t240 277h104q-121 -137 -222.5 -285.5t-174 -306t-113.5 -325.5t-41 -342t39 -336t107 -309h-105q-86 166 -134 319.5t-48 329.5z" />
<glyph unicode=")" horiz-adv-x="681" d="M-88 -391q123 137 223.5 284.5t173 305t112.5 324.5t40 343q0 174 -38 337t-106 310h105q86 -166 133 -319.5t47 -327.5q0 -188 -42 -357t-118.5 -324.5t-185.5 -298t-240 -277.5h-104z" />
<glyph unicode="*" horiz-adv-x="796" d="M102 1237l56 86l209 -88l49 240h86l-49 -240l249 86l13 -90l-250 -76l108 -217l-90 -49l-104 221l-207 -217l-59 55l200 207z" />
<glyph unicode="+" horiz-adv-x="1351" d="M152 451l24 122h451l96 451h123l-96 -451h450l-24 -122h-451l-96 -451h-123l96 451h-450z" />
<glyph unicode="," horiz-adv-x="569" d="M160 -281l16 76q29 16 56.5 45t41.5 90l15 70h-70l39 180h150l-52 -241q-20 -90 -73.5 -144.5t-122.5 -75.5z" />
<glyph unicode="-" horiz-adv-x="681" d="M102 451l29 122h516l-26 -122h-519z" />
<glyph unicode="." horiz-adv-x="569" d="M190 0l37 180h150l-37 -180h-150z" />
<glyph unicode="/" horiz-adv-x="569" d="M-186 -184l841 1697h115l-842 -1697h-114z" />
<glyph unicode="0" d="M82 381q0 76 11 159t30 171q29 137 75 268t121.5 234.5t185 167t265.5 63.5q109 0 180.5 -33t113.5 -89t59.5 -132t17.5 -160q0 -82 -13.5 -167t-29.5 -167q-31 -143 -79 -274t-124 -231.5t-182.5 -160t-255.5 -59.5q-106 0 -178 31t-116 85t-62.5 129t-18.5 165z M213 397q0 -147 60.5 -231t205.5 -84q117 0 199 57.5t139 147.5t93 202.5t59 221.5q16 78 27.5 154.5t11.5 146.5t-13.5 128t-44 101t-82 67.5t-127.5 24.5q-109 0 -188.5 -54t-138 -144.5t-98.5 -205t-64 -233.5q-18 -86 -28.5 -159.5t-10.5 -139.5z" />
<glyph unicode="1" d="M365 1073l16 86q84 6 152.5 16.5t125 39t101.5 83t82 146.5h104l-307 -1444h-131l229 1073h-372z" />
<glyph unicode="2" d="M-10 0q20 102 61 187t127 165q94 86 188.5 147.5t181.5 109.5t166 88t141.5 87t106.5 106.5t62 145.5q8 33 8 70q0 111 -72.5 169t-189.5 58q-72 0 -135.5 -29.5t-115.5 -78.5t-89 -115t-51 -139h-139q23 106 74 193t125.5 149.5t168.5 96.5t201 34q94 0 163.5 -23.5 t116 -64.5t69 -97.5t22.5 -121.5q0 -41 -11 -93q-31 -143 -118.5 -238t-200.5 -165t-232.5 -124t-214.5 -116q-84 -53 -153.5 -120.5t-95.5 -169.5h804l-24 -111h-944z" />
<glyph unicode="3" d="M43 307q0 27 2 53.5t6 57.5h131q-4 -25 -7 -46.5t-3 -41.5q0 -123 80 -185.5t217 -62.5q88 0 167 32.5t138.5 87t95 125t35.5 148.5q0 68 -32.5 111t-88 67.5t-130 33.5t-160.5 9l22 107q96 0 183 19.5t153 61.5t104.5 105.5t38.5 149.5q0 51 -20.5 88t-55 60.5 t-81.5 34.5t-103 11q-70 0 -131 -22.5t-110.5 -64.5t-84 -98t-49.5 -124h-131q12 63 48 136t101.5 136.5t166 105.5t241.5 42q74 0 137.5 -16.5t109.5 -50.5t73 -85t27 -118q0 -139 -77 -248t-208 -160q111 -37 151.5 -108.5t40.5 -149.5q0 -104 -43 -201.5t-118.5 -172.5 t-180 -119t-227.5 -44q-111 0 -190.5 17.5t-133 57.5t-79 103.5t-25.5 157.5z" />
<glyph unicode="4" d="M43 356l23 113l876 961h119l-205 -963h201l-23 -111h-200l-76 -356h-131l75 356h-659zM195 467h530l164 766z" />
<glyph unicode="5" d="M41 297q0 37 6 78h131q0 -154 77 -223.5t218 -69.5q92 0 171 38t137.5 101.5t92 146.5t33.5 175q0 123 -74.5 198.5t-216.5 75.5q-98 0 -183 -36t-161 -113l-106 14l276 748h717l-24 -111h-607l-192 -485q47 27 88 45t80 29.5t80 15.5t90 4q168 0 268 -92.5t100 -257.5 q0 -139 -52 -251t-134 -191t-184.5 -122t-202.5 -43q-92 0 -171 17.5t-136.5 55.5t-89 100.5t-31.5 152.5z" />
<glyph unicode="6" d="M86 393q0 119 33 269q18 86 47 177t71 178t97 165t125.5 136t158 92t193.5 34q160 0 254 -78t94 -229v-22.5t-2 -24.5h-135q2 111 -52.5 177t-170.5 66q-133 0 -223.5 -63.5t-152 -160.5t-100 -212t-69.5 -217q39 41 82 82t93 72.5t111.5 51t141.5 19.5q184 0 278.5 -87 t94.5 -245q0 -135 -44 -245.5t-121 -190.5t-182.5 -123t-228.5 -43q-86 0 -158.5 22.5t-125 73t-81 131.5t-28.5 195zM242 344q0 -51 14 -98t45 -84t81 -58.5t122 -21.5q111 0 189.5 45t129.5 115.5t76 153.5t25 161q0 117 -66 177.5t-205 60.5q-88 0 -163.5 -38 t-131 -100.5t-86 -143.5t-30.5 -169z" />
<glyph unicode="7" d="M205 0q43 156 132 331t203.5 347t248 332.5t264.5 287.5h-762l26 132h920l-27 -123q-193 -176 -340 -361.5t-253.5 -360.5t-173 -327t-95.5 -258h-143z" />
<glyph unicode="8" d="M59 303q0 74 23.5 145.5t68 135t107.5 113.5t143 79q-35 27 -62.5 49.5t-46 47t-27.5 54t-9 66.5q0 92 41 174t109.5 143.5t158.5 97.5t191 36q74 0 140.5 -15.5t117.5 -49t80.5 -85t29.5 -123.5q0 -139 -72.5 -241.5t-201.5 -161.5q92 -35 141 -106.5t49 -167.5 q0 -104 -44 -198.5t-123.5 -167.5t-192.5 -115t-250 -42q-70 0 -136.5 20.5t-118.5 62.5t-84 103.5t-32 145.5zM193 330q0 -109 77.5 -178.5t221.5 -69.5q80 0 154.5 29.5t133 83t93 125t34.5 157.5q0 57 -21.5 100.5t-60.5 72t-92.5 43t-116.5 14.5q-74 0 -149.5 -22.5 t-137 -70t-99 -118t-37.5 -166.5zM389 1016q0 -51 20.5 -89t55.5 -62.5t82 -36t100 -11.5q59 0 120.5 19.5t112 61.5t82 106.5t31.5 156.5q0 84 -60.5 128t-189.5 44q-66 0 -128 -21.5t-113 -61.5t-82 -99t-31 -135z" />
<glyph unicode="9" d="M68 262q0 14 1 27.5t3 27.5h133q0 -117 54 -176t175 -59q129 0 219 63.5t152.5 159.5t102.5 208t65 210l-4 4q-90 -111 -198.5 -168t-238.5 -57q-174 0 -268 91t-94 251q0 125 42 234.5t118 190.5t183.5 128t238.5 47q106 0 180 -32t120 -88t66.5 -135t20.5 -173 q0 -70 -10.5 -144.5t-26.5 -156.5q-39 -184 -107.5 -322.5t-159 -232.5t-197 -141.5t-220.5 -47.5q-156 0 -253 72t-97 219zM303 858q0 -117 68.5 -181.5t201.5 -64.5q90 0 166 40t130.5 104.5t85 148.5t30.5 172q0 117 -65.5 186.5t-192.5 69.5q-92 0 -170 -38t-134 -102.5 t-88 -150.5t-32 -184z" />
<glyph unicode=":" horiz-adv-x="569" d="M102 0l37 180h150l-37 -180h-150zM279 827l36 181h150l-37 -181h-149z" />
<glyph unicode=";" horiz-adv-x="569" d="M72 -281l16 76q29 16 56.5 45t41.5 90l15 70h-70l39 180h149l-51 -241q-20 -90 -73.5 -144.5t-122.5 -75.5zM307 827l37 181h150l-37 -181h-150z" />
<glyph unicode="&#x3c;" horiz-adv-x="1351" d="M156 469l22 109l1120 456l-26 -131l-944 -381l776 -403l-27 -131z" />
<glyph unicode="=" horiz-adv-x="1351" d="M109 254l26 123h1024l-26 -123h-1024zM193 651l26 123h1024l-26 -123h-1024z" />
<glyph unicode="&#x3e;" horiz-adv-x="1351" d="M53 -12l27 131l948 403l-780 381l26 131l928 -456l-22 -109z" />
<glyph unicode="?" horiz-adv-x="1024" d="M205 1057q23 102 73 186t120.5 144.5t158.5 93t188 32.5q182 0 278.5 -79.5t96.5 -214.5q0 -111 -48 -192t-120.5 -146.5t-156.5 -128t-156 -136.5q-18 -18 -32.5 -46.5t-27 -62.5t-21.5 -69t-15 -65h-119q12 55 25.5 106t35 98.5t53 90.5t80.5 86q61 51 126 100 t119.5 101.5t89 109.5t34.5 127q0 92 -67.5 151.5t-202.5 59.5q-76 0 -139.5 -26.5t-113.5 -73t-84 -110t-50 -136.5h-125zM334 0l37 180h149l-37 -180h-149z" />
<glyph unicode="@" horiz-adv-x="1638" d="M66 573q0 186 81.5 356.5t216 300.5t304.5 206.5t348 76.5q129 0 235.5 -37.5t183 -105t119.5 -162t43 -207.5q0 -92 -27.5 -183t-74.5 -172t-109.5 -149.5t-130 -118.5t-139.5 -78t-135 -28q-53 0 -100 23.5t-56 79.5q-55 -47 -126.5 -75t-137.5 -28q-111 0 -169 65.5 t-58 164.5q0 72 25.5 151.5t70.5 157.5t107.5 148.5t134 124t150.5 85t159 31.5q72 0 128 -35t73 -100l51 94h137l-358 -661q-18 -35 -24.5 -54.5t-6.5 -29.5q0 -12 7 -25.5t42 -13.5q80 0 160 64.5t143.5 157.5t102.5 200.5t39 193.5q0 98 -37 176t-100.5 132.5t-151.5 83 t-189 28.5q-109 0 -212 -32.5t-193 -91t-165 -137.5t-128 -171t-83 -192.5t-30 -202.5q0 -113 38 -208t106.5 -165t166 -109t218.5 -39q160 0 320.5 73t281.5 206h121q-68 -90 -155 -160.5t-185.5 -120t-201.5 -75t-204 -25.5q-141 0 -257 46t-197.5 128t-126.5 194.5 t-45 243.5zM494 537q0 -57 30.5 -96.5t93.5 -39.5q47 0 98.5 30t102.5 79t97.5 110.5t81 124t55 121t20.5 101.5q0 39 -27.5 75.5t-87.5 36.5q-57 0 -114.5 -27.5t-108.5 -72.5t-95 -102.5t-77 -118t-51 -118.5t-18 -103z" />
<glyph unicode="A" horiz-adv-x="1333" d="M-102 0l895 1475h157l250 -1475h-143l-70 463h-672l-274 -463h-143zM387 582h578l-125 774z" />
<glyph unicode="B" horiz-adv-x="1357" d="M53 0l316 1475h532q111 0 189.5 -19.5t128 -55.5t73 -87t23.5 -115q0 -92 -29 -164.5t-75 -126t-101 -84t-109 -37.5v-4q121 -18 178.5 -88.5t57.5 -177.5q0 -43 -9 -97t-33 -111.5t-64.5 -113t-105 -98.5t-156 -69.5t-214.5 -26.5h-602zM219 119h354q115 0 202 10 t149.5 42t102.5 90t60 155q4 23 7.5 43t3.5 39q0 63 -28 104t-78 63.5t-120.5 31t-156.5 8.5h-371zM369 823h352q156 0 246 40t136 96.5t58.5 116t12.5 98.5q0 98 -87.5 140t-283.5 42h-322z" />
<glyph unicode="C" horiz-adv-x="1488" d="M127 483q0 84 15.5 192.5t54.5 223.5t103.5 225.5t161.5 196.5t232 139t314 53q229 0 350 -112.5t121 -353.5h-144q0 184 -101 266t-290 82q-160 0 -286 -79t-213 -205t-132 -283.5t-45 -315.5q0 -90 20.5 -169t69 -137.5t127 -92t193.5 -33.5q94 0 178 30.5t154.5 85 t126 128t94.5 161.5h145q-47 -106 -114.5 -201.5t-159.5 -167t-211 -113.5t-266 -42q-135 0 -229.5 40t-154 109.5t-87 165t-27.5 207.5z" />
<glyph unicode="D" horiz-adv-x="1478" d="M53 0l316 1475h544q127 0 225.5 -27t166 -86t102.5 -154.5t35 -230.5q0 -102 -18.5 -210t-58.5 -213t-100.5 -201.5t-146.5 -172.5q-63 -57 -130.5 -92t-139.5 -54.5t-144.5 -26.5t-146.5 -7h-504zM219 119h334q94 0 180 11t180 56q106 51 181 143.5t121.5 202t67 223 t20.5 206.5q0 109 -31 184.5t-89.5 122.5t-144.5 67.5t-196 20.5h-361z" />
<glyph unicode="E" horiz-adv-x="1251" d="M53 0l316 1475h981l-27 -119h-842l-108 -514h760l-25 -119h-760l-129 -604h862l-26 -119h-1002z" />
<glyph unicode="F" horiz-adv-x="1153" d="M53 0l316 1475h950l-27 -119h-811l-108 -514h737l-25 -119h-737l-155 -723h-140z" />
<glyph unicode="G" horiz-adv-x="1589" d="M127 489q0 115 23.5 235t70.5 233.5t119 215t169 177t220 119.5t275 44q117 0 212 -28.5t162.5 -86t104.5 -145.5t37 -206h-144q0 82 -29.5 147.5t-82 109.5t-124 67.5t-153.5 23.5q-143 0 -252.5 -49.5t-189.5 -128t-133.5 -176t-86 -193.5t-46 -181t-13.5 -137 q0 -96 26.5 -178t80 -142t133.5 -95t184 -35q92 0 191.5 31.5t186.5 100.5t153.5 175.5t95.5 255.5h-498l27 119h631l-164 -762h-119l55 252q-106 -133 -251.5 -212t-362.5 -79q-115 0 -208 33t-159.5 99.5t-103.5 164.5t-37 231z" />
<glyph unicode="H" horiz-adv-x="1482" d="M53 0l316 1475h139l-135 -633h872l135 633h140l-316 -1475h-139l156 723h-873l-155 -723h-140z" />
<glyph unicode="I" horiz-adv-x="471" d="M53 0l316 1475h139l-315 -1475h-140z" />
<glyph unicode="J" horiz-adv-x="1024" d="M14 256q0 49 7.5 102.5t19.5 108.5h139q-10 -47 -18 -95t-8 -91q0 -41 9 -76t33.5 -61.5t65.5 -41t105 -14.5q143 0 217.5 82t109.5 238l228 1067h139l-230 -1072q-45 -215 -168.5 -328.5t-338.5 -113.5q-90 0 -149.5 22.5t-95.5 62.5t-50.5 93.5t-14.5 116.5z" />
<glyph unicode="K" horiz-adv-x="1357" d="M53 0l316 1475h139l-160 -744l891 744h182l-706 -588l493 -887h-170l-442 801l-281 -232l-122 -569h-140z" />
<glyph unicode="L" d="M53 0l316 1475h139l-289 -1356h791l-27 -119h-930z" />
<glyph unicode="M" horiz-adv-x="1718" d="M53 0l316 1475h213l206 -1301h5l751 1301h211l-315 -1475h-140l281 1315h-4l-764 -1315h-131l-205 1315h-4l-280 -1315h-140z" />
<glyph unicode="N" horiz-adv-x="1484" d="M53 0l316 1475h157l578 -1289h4l274 1289h140l-316 -1475h-162l-573 1286h-4l-274 -1286h-140z" />
<glyph unicode="O" horiz-adv-x="1591" d="M127 516q0 190 64.5 369.5t179 320t275.5 224t351 83.5q141 0 246 -41.5t173.5 -115.5t101 -175.5t32.5 -222.5q0 -190 -63.5 -370t-178 -319.5t-277.5 -223.5t-359 -84q-139 0 -241.5 42t-170 116t-100.5 175t-33 222zM268 532q0 -96 24.5 -179t77 -143t134.5 -95 t196 -35q170 0 302.5 76.5t222.5 199.5t137 276.5t47 307.5q0 217 -111.5 336t-322.5 119q-178 0 -310.5 -82t-220.5 -209t-132 -278.5t-44 -293.5z" />
<glyph unicode="P" horiz-adv-x="1294" d="M53 0l316 1475h528q119 0 199 -22.5t128 -62.5t68.5 -94.5t20.5 -117.5q0 -154 -56.5 -255.5t-146.5 -162t-202.5 -85t-227.5 -24.5h-348l-139 -651h-140zM356 770h308q111 0 204 17.5t160.5 61.5t105 118.5t37.5 189.5q0 63 -25.5 102t-75.5 60.5t-125 29t-173 7.5h-291 z" />
<glyph unicode="Q" horiz-adv-x="1591" d="M127 516q0 182 61.5 360.5t175 319.5t274.5 229t359 88q258 0 406.5 -140t148.5 -404q0 -115 -25.5 -233t-73.5 -227.5t-116.5 -204.5t-156.5 -165l163 -151l-98 -94l-182 167q-86 -47 -182.5 -73.5t-206.5 -26.5q-139 0 -242.5 42t-171 116t-100.5 175t-33 222zM268 532 q0 -96 24.5 -179t77 -143t134.5 -95t196 -35q78 0 145.5 17.5t127.5 47.5l-139 129l94 97l166 -152q74 57 133 142t100 181.5t62.5 201t21.5 202.5q0 113 -31.5 197t-88 140t-136.5 84t-178 28q-168 0 -299 -78t-222 -202t-139.5 -277.5t-48.5 -305.5z" />
<glyph unicode="R" horiz-adv-x="1392" d="M53 0l316 1475h577q211 0 320.5 -67t109.5 -214q0 -156 -76.5 -278.5t-250.5 -188.5q74 -27 100.5 -86t26.5 -131q0 -47 -8.5 -94t-18.5 -96.5t-18.5 -101.5t-8.5 -109q0 -82 25 -95l-4 -14h-154q-8 23 -8 74q0 59 7 112.5t16.5 102.5t17.5 95t8 91q0 63 -17.5 102 t-51 59.5t-80.5 27t-107 6.5h-438l-143 -670h-140zM360 788h435q82 0 160.5 21.5t140 66t99.5 113t38 164.5q0 61 -25.5 100t-67.5 61.5t-98.5 32t-117.5 9.5h-443z" />
<glyph unicode="S" horiz-adv-x="1284" d="M53 319q0 29 4 59t11 62h135q-2 -14 -3 -34.5t-1 -32.5q0 -80 26.5 -135.5t72.5 -91t110.5 -51t142.5 -15.5q109 0 191.5 30.5t139 82t85 117t28.5 136.5q0 86 -56 132.5t-140 75t-182.5 50t-182.5 56.5t-140 95t-56 167q0 92 38.5 180t114.5 158t186.5 111.5t253.5 41.5 q106 0 184.5 -25.5t129.5 -70.5t75.5 -107.5t24.5 -133.5q0 -51 -12 -103h-133q8 39 8 78q0 63 -23.5 109.5t-65.5 76t-97.5 44t-116.5 14.5q-111 0 -193 -33t-134 -82t-77.5 -109.5t-25.5 -115.5q0 -63 32.5 -103.5t87 -66t123 -42t141 -33.5t141.5 -37.5t123 -56.5 t87 -89.5t33 -134.5q0 -115 -45 -211.5t-128 -168t-203 -111.5t-267 -40q-100 0 -182 22.5t-140.5 66.5t-91.5 111.5t-33 157.5z" />
<glyph unicode="T" d="M205 1356l26 119h1074l-27 -119h-467l-289 -1356h-139l289 1356h-467z" />
<glyph unicode="U" horiz-adv-x="1474" d="M152 369q0 90 20 186l197 920h139l-189 -879q-24 -116 -24 -198v-7q0 -164 84 -237.5t264 -73.5q119 0 208 31.5t153.5 96t107.5 161t72 227.5l188 879h139l-196 -920q-61 -289 -235.5 -441.5t-461.5 -152.5q-238 0 -352 105.5t-114 302.5z" />
<glyph unicode="V" horiz-adv-x="1251" d="M236 1475h145l164 -1311l723 1311h145l-827 -1475h-154z" />
<glyph unicode="W" horiz-adv-x="1820" d="M227 1475h140l45 -1278h4l614 1278h156l63 -1278h4l594 1278h144l-703 -1475h-153l-64 1303h-4l-621 -1303h-153z" />
<glyph unicode="X" horiz-adv-x="1251" d="M-76 0l670 758l-334 717h162l270 -621l539 621h162l-637 -717l344 -758h-160l-291 651l-567 -651h-158z" />
<glyph unicode="Y" horiz-adv-x="1251" d="M225 1475h160l283 -711l596 711h161l-712 -832l-138 -643h-139l135 633z" />
<glyph unicode="Z" horiz-adv-x="1251" d="M-49 0l26 117l1207 1239h-865l27 119h1036l-26 -117l-1206 -1239h950l-27 -119h-1122z" />
<glyph unicode="[" horiz-adv-x="681" d="M-16 -391l405 1904h391l-22 -102h-260l-361 -1700h260l-22 -102h-391z" />
<glyph unicode="\" horiz-adv-x="569" d="M68 1513h122l314 -1513h-123z" />
<glyph unicode="]" horiz-adv-x="681" d="M-98 -391l22 102h260l361 1700h-260l22 102h391l-405 -1904h-391z" />
<glyph unicode="^" horiz-adv-x="1351" d="M51 502l668 928h106l277 -928h-117l-242 803l-573 -803h-119z" />
<glyph unicode="_" horiz-adv-x="1024" d="M-12 -244l24 119h1024l-24 -119h-1024z" />
<glyph unicode="`" horiz-adv-x="681" d="M123 1460h160l166 -284h-105z" />
<glyph unicode="a" horiz-adv-x="1142" d="M37 205q0 68 23.5 131t76.5 115.5t138 90.5t208 54l242 31q104 14 140 63t36 129q0 72 -51 116t-172 44q-127 0 -221.5 -51t-139.5 -189h-124q27 94 76.5 161t117.5 109t148.5 61.5t166.5 19.5q70 0 129.5 -12.5t103.5 -41t68.5 -73.5t24.5 -113q0 -20 -3 -43t-7 -47 l-123 -578q-4 -14 -6 -29.5t-2 -25.5q0 -45 41 -45q12 0 32.5 5t45.5 13l-21 -96q-25 -8 -54.5 -14t-45.5 -6q-66 0 -95.5 22.5t-29.5 89.5q0 10 1 25.5t3 25.5h-4q-88 -86 -198.5 -131t-227.5 -45q-61 0 -115.5 14.5t-94.5 43t-63.5 72.5t-23.5 104zM170 231 q0 -78 57.5 -113.5t134.5 -35.5q74 0 147 18.5t136.5 56.5t108.5 96t63 138l35 166q-45 -23 -129 -38t-201 -21q-174 -10 -263 -84t-89 -183z" />
<glyph unicode="b" horiz-adv-x="1220" d="M35 0l313 1475h123l-125 -584q80 98 194.5 148.5t227.5 50.5q98 0 169 -31t116 -84t66.5 -125t21.5 -156q0 -141 -42 -272t-121 -231.5t-193.5 -160t-260.5 -59.5q-51 0 -101 14.5t-94 41t-78 66.5t-50 93h-4l-39 -186h-123zM254 393q0 -66 17.5 -122t51 -98t86 -66.5 t123.5 -24.5q100 0 186.5 50t150 132t100.5 188.5t37 219.5q0 68 -16.5 124t-50.5 97t-87 63.5t-127 22.5q-86 0 -170 -43t-151.5 -120t-108.5 -185.5t-41 -237.5z" />
<glyph unicode="c" horiz-adv-x="1140" d="M78 354q0 133 44 264.5t126 235.5t197.5 170t259.5 66q184 0 273 -86t89 -277h-125q0 113 -68.5 182.5t-191.5 69.5q-121 0 -209 -60.5t-145.5 -149.5t-86 -192.5t-28.5 -187.5q0 -63 15.5 -118.5t48 -97.5t85 -66.5t127.5 -24.5q137 0 237.5 75.5t150.5 209.5h131 q-35 -88 -86.5 -161t-119 -125t-151.5 -81t-184 -29q-102 0 -176 28t-121 79t-69.5 121.5t-22.5 154.5z" />
<glyph unicode="d" horiz-adv-x="1220" d="M78 346q0 133 41 266t119.5 238.5t192.5 172.5t259 67q113 0 206 -50.5t130 -148.5l125 584h123l-313 -1475h-123l39 186h-5q-37 -53 -88 -93t-106 -66.5t-111.5 -41t-107.5 -14.5q-102 0 -174 28t-118 77t-67.5 117.5t-21.5 152.5zM213 393q0 -66 17.5 -122t51 -98 t86 -66.5t124.5 -24.5q100 0 186 50t149.5 132t100.5 188.5t37 219.5q0 68 -16.5 124t-50.5 97t-87 63.5t-127 22.5q-86 0 -170 -43t-151.5 -120t-108.5 -185.5t-41 -237.5z" />
<glyph unicode="e" horiz-adv-x="1150" d="M78 350q0 141 47 274.5t130 237t198.5 166t251.5 62.5q176 0 271 -96.5t95 -286.5q0 -92 -24 -205h-824q-6 -33 -10 -63.5t-4 -59.5q0 -63 16.5 -117.5t51 -94.5t88 -62.5t124.5 -22.5q121 0 221.5 63.5t153.5 180.5h137q-39 -76 -89 -140.5t-115.5 -112.5t-147.5 -75 t-182 -27q-102 0 -176 28t-121 78t-69.5 119.5t-22.5 153.5zM246 604h692q12 55 12 105q0 117 -65.5 193.5t-202.5 76.5q-82 0 -150.5 -30.5t-124 -82t-96.5 -119t-65 -143.5z" />
<glyph unicode="f" horiz-adv-x="569" d="M72 0l204 958h-157l20 103h158l37 168q27 127 93.5 198.5t188.5 71.5q29 0 53.5 -2t47.5 -10l-23 -105q-41 10 -71 11q-47 0 -78 -17.5t-49.5 -46.5t-28.5 -64.5t-18 -72.5l-29 -131h205l-21 -103h-205l-204 -958h-123z" />
<glyph unicode="g" horiz-adv-x="1220" d="M-14 -129h133q0 -59 22.5 -97t60.5 -59.5t87 -30t104 -8.5q125 0 209 43t138.5 113t85 159t48.5 179q-80 -98 -194.5 -148.5t-226.5 -50.5q-98 0 -169 31t-116 84t-66.5 125t-21.5 156q0 141 42 272t121 231.5t193.5 160t259.5 59.5q51 0 101.5 -14.5t94.5 -41t78 -67.5 t50 -93h4l39 187h123l-203 -959q-23 -106 -64.5 -203.5t-113.5 -171t-177.5 -117.5t-256.5 -44q-109 0 -181.5 25.5t-118.5 65.5t-65.5 89t-19.5 98v27zM213 393q0 -66 17.5 -122t51 -98t86 -66.5t124.5 -24.5q100 0 186 50t149.5 132t100.5 188.5t37 219.5q0 68 -16.5 124 t-50.5 97t-87 63.5t-127 22.5q-111 0 -198 -52.5t-147 -136t-93 -188t-33 -209.5z" />
<glyph unicode="h" horiz-adv-x="1136" d="M35 0l313 1475h123l-119 -562q90 78 180.5 127.5t200.5 49.5q145 0 226 -66t81 -205q0 -29 -3 -59.5t-11 -65.5l-149 -694h-123l147 692q12 57 12 103q0 92 -53 138t-172 46q-86 0 -153.5 -34t-118.5 -89t-84 -127t-49 -147l-125 -582h-123z" />
<glyph unicode="i" horiz-adv-x="417" d="M35 0l225 1061h123l-225 -1061h-123zM309 1292l39 181h123l-39 -181h-123z" />
<glyph unicode="j" horiz-adv-x="450" d="M-188 -410l22 109q10 -2 27.5 -3t21.5 -1q72 0 103.5 38t48.5 109l258 1219h123l-256 -1202q-16 -72 -32.5 -124t-44.5 -86t-74 -50.5t-120 -16.5q-45 0 -77 8zM342 1292l39 181h123l-39 -181h-123z" />
<glyph unicode="k" horiz-adv-x="1032" d="M35 0l313 1475h123l-195 -918l627 504h168l-479 -383l301 -678h-137l-273 592l-239 -191l-86 -401h-123z" />
<glyph unicode="l" horiz-adv-x="417" d="M33 0l313 1475h123l-313 -1475h-123z" />
<glyph unicode="m" horiz-adv-x="1736" d="M35 0l225 1061h123l-33 -160h4q68 92 166 140.5t203 48.5q74 0 122 -16.5t77.5 -44.5t44 -64.5t22.5 -79.5q76 104 176.5 154.5t214.5 50.5q76 0 127.5 -18.5t81 -51.5t41.5 -77t12 -95q0 -41 -6 -86t-16 -92l-143 -670h-123l157 733q6 27 8.5 47.5t2.5 40.5 q0 74 -41 116t-146 42q-76 0 -139 -29.5t-114.5 -83t-87.5 -128t-54 -167.5l-123 -571h-123l158 733q4 25 7 46.5t3 41.5q0 74 -41 116t-145 42q-82 0 -147.5 -33t-114.5 -89t-82 -130t-51 -156l-123 -571h-123z" />
<glyph unicode="n" horiz-adv-x="1136" d="M33 0l225 1061h123l-31 -148q90 78 180.5 127.5t200.5 49.5q145 0 226 -66t81 -205q0 -29 -3 -59.5t-11 -65.5l-150 -694h-122l147 692q12 57 12 103q0 92 -53 138t-172 46q-86 0 -153.5 -34t-119 -89t-84 -127t-48.5 -147l-125 -582h-123z" />
<glyph unicode="o" horiz-adv-x="1179" d="M80 367q0 133 43 263t125 232.5t198 165t263 62.5q100 0 174.5 -30t122 -82t71 -124t23.5 -158q0 -109 -37 -235.5t-115 -235t-196.5 -181.5t-280.5 -73q-86 0 -157.5 24.5t-124 75t-81 124t-28.5 172.5zM213 385q0 -139 69.5 -221t211.5 -82q117 0 205.5 56.5t149 144.5 t90.5 194.5t30 208.5q0 129 -65.5 211t-217.5 82q-115 0 -204 -54.5t-148.5 -140.5t-90 -191.5t-30.5 -207.5z" />
<glyph unicode="p" horiz-adv-x="1220" d="M-53 -418l313 1479h123l-39 -187h4q37 51 88 92.5t106.5 68t112 41t107.5 14.5q102 0 174 -28t118 -77t67.5 -118.5t21.5 -151.5q0 -133 -41 -266.5t-120 -240t-192.5 -172t-259.5 -65.5q-113 0 -206 50.5t-129 148.5l-125 -588h-123zM254 393q0 -66 17.5 -122t51 -98 t86 -66.5t123.5 -24.5q100 0 186.5 50t150 132t100.5 188.5t37 219.5q0 68 -16.5 124t-50.5 97t-87 63.5t-127 22.5q-86 0 -170 -43t-151.5 -120t-108.5 -185.5t-41 -237.5z" />
<glyph unicode="q" horiz-adv-x="1220" d="M80 369q0 57 12 131.5t40 155.5t75 159t115.5 138.5t160.5 98.5t213 38q51 0 101.5 -14.5t94.5 -41t78 -67.5t50 -93h4l39 187h123l-314 -1479h-122l124 588q-80 -98 -194.5 -148.5t-226.5 -50.5q-98 0 -169 31t-116 84t-66.5 126t-21.5 157zM213 393q0 -66 17.5 -122 t51 -98t86 -66.5t124.5 -24.5q100 0 186 50t149.5 132t100.5 188.5t37 219.5q0 68 -16.5 124t-50.5 97t-87 63.5t-127 22.5q-86 0 -170 -43t-151.5 -120t-108.5 -185.5t-41 -237.5z" />
<glyph unicode="r" horiz-adv-x="675" d="M33 0l225 1061h123l-43 -199h4q78 127 170 177.5t225 50.5l-28 -134q-104 0 -179 -34.5t-127.5 -94t-86 -139.5t-52.5 -168l-108 -520h-123z" />
<glyph unicode="s" horiz-adv-x="1007" d="M27 266q0 20 1 38t3 28h125q0 -137 62.5 -193.5t201.5 -56.5q68 0 124 18.5t97 50t64.5 73.5t23.5 89q0 70 -66.5 109t-209.5 63q-166 29 -237 88.5t-71 145.5q0 80 33 147.5t92.5 117.5t141.5 78t178 28q160 0 250 -67t90 -220v-47h-127v43q0 92 -64.5 136t-173.5 44 q-59 0 -110.5 -15.5t-89 -43t-60 -68.5t-22.5 -90q0 -37 20.5 -62.5t55 -45t80.5 -33t98 -25.5q57 -14 116.5 -32.5t105.5 -46.5t75.5 -69.5t29.5 -103.5q0 -90 -42 -159.5t-111.5 -117t-160.5 -72t-192 -24.5q-168 0 -249.5 84t-81.5 211z" />
<glyph unicode="t" horiz-adv-x="569" d="M92 102q0 29 10 80l166 776h-149l20 103h150l63 295h123l-63 -295h198l-20 -103h-199l-155 -727q-12 -53 -13 -86q0 -33 18.5 -48t69.5 -15q25 0 50.5 4t52.5 10l-21 -100q-23 -4 -62.5 -14.5t-84.5 -10.5q-74 0 -114 30t-40 101z" />
<glyph unicode="u" horiz-adv-x="1136" d="M80 236q0 57 16 129l148 696h123l-146 -686q-6 -27 -11 -56.5t-5 -50.5q0 -92 54 -139t171 -47q76 0 142.5 29.5t118.5 84t90 128t57 161.5l123 576h122l-225 -1061h-123l33 147h-2q-76 -74 -167 -125t-212 -51q-84 0 -142.5 19.5t-95 54.5t-53 83t-16.5 108z" />
<glyph unicode="v" horiz-adv-x="1024" d="M147 1061h134l151 -909l537 909h133l-637 -1061h-137z" />
<glyph unicode="w" horiz-adv-x="1478" d="M143 1061h123l82 -905l438 905h138l43 -897l469 897h125l-570 -1061h-131l-43 891h-4l-424 -891h-147z" />
<glyph unicode="x" horiz-adv-x="1024" d="M-76 0l525 549l-267 512h152l203 -422l391 422h155l-491 -512l280 -549h-147l-223 459l-428 -459h-150z" />
<glyph unicode="y" horiz-adv-x="1003" d="M-72 -403l25 114q23 -4 47.5 -8t50.5 -4q31 0 58.5 12.5t58.5 45t67.5 90t86.5 145.5l-185 1069h137l146 -911l534 911h133l-618 -1047q-59 -100 -109.5 -180t-99.5 -136t-102.5 -86t-116.5 -30q-33 0 -61.5 4t-51.5 11z" />
<glyph unicode="z" horiz-adv-x="1024" d="M-45 0l22 109l885 849h-657l22 103h815l-22 -109l-885 -850h731l-22 -102h-889z" />
<glyph unicode="{" horiz-adv-x="681" d="M104 567v4q55 10 92 31t62 51.5t40 69.5t26 86l88 418q16 78 42.5 134t69.5 92t106.5 52.5t155.5 16.5l-2 -4q-102 -29 -155.5 -86.5t-75.5 -161.5l-90 -422q-25 -117 -73 -185.5t-154 -91.5v-4q68 -20 94 -62t26 -104q0 -39 -17 -126t-38.5 -183t-39 -181t-17.5 -122 q0 -61 30.5 -105t102.5 -65v-2q-139 0 -197.5 41t-58.5 139q0 33 8 85t20.5 114.5t28 128t27.5 124t20 106.5t8 73q0 51 -27.5 84t-101.5 55z" />
<glyph unicode="|" horiz-adv-x="454" d="M6 0l322 1513h123l-322 -1513h-123z" />
<glyph unicode="}" horiz-adv-x="681" d="M-94 -381q109 27 160 92.5t69 157.5l84 393q12 59 28.5 108.5t43 88.5t65.5 66.5t97 41.5v4q-68 16 -95.5 56.5t-27.5 101.5q0 25 8 76t21.5 114.5t28.5 132t28.5 129t21.5 106.5t8 63q0 125 -141 168l2 4q143 0 202.5 -41t59.5 -135q0 -29 -8 -81.5t-21.5 -116 t-28.5 -132t-28.5 -130t-21.5 -107.5t-8 -64q0 -53 29.5 -91t101.5 -53v-4q-61 -16 -99.5 -37.5t-62 -50t-36.5 -67.5t-24 -90l-77 -373q-20 -92 -48 -155.5t-71 -102.5t-105.5 -56.5t-154.5 -17.5v2z" />
<glyph unicode="~" horiz-adv-x="1351" d="M150 453q88 104 168.5 157.5t162.5 53.5q57 0 113.5 -24t111 -51.5t103.5 -50t92 -22.5q35 0 69 17.5t65.5 44t59 57.5t48.5 59l65 -69q-31 -41 -66.5 -81t-78.5 -72t-90 -51.5t-99 -19.5q-49 0 -107 22.5t-114.5 50.5t-107.5 51.5t-86 23.5q-68 0 -130.5 -52.5 t-131.5 -140.5z" />
<glyph unicode="&#xa9;" horiz-adv-x="1638" d="M27 578q0 178 79.5 347t213 300t306.5 209.5t361 78.5q139 0 255 -46t198 -128t127 -194.5t45 -243.5q0 -125 -38 -242.5t-103.5 -222t-156.5 -192.5t-197.5 -150.5t-224.5 -97.5t-237 -35q-141 0 -256.5 47t-198.5 129t-128 194.5t-45 246.5zM150 584q0 -115 36.5 -210 t105 -164t166 -108t220.5 -39q160 0 306 68t259 181.5t179.5 264t66.5 316.5q0 113 -37 207t-104.5 163.5t-165 108.5t-217.5 39q-160 0 -307.5 -66.5t-260 -180t-180 -263t-67.5 -317.5zM416 633q0 92 33.5 191.5t101 180t167 133t228.5 52.5q141 0 222 -74t81 -219h-110 q0 92 -58.5 147.5t-150.5 55.5q-88 0 -160 -38t-124 -100.5t-80.5 -142.5t-28.5 -166q0 -111 60 -188.5t185 -77.5q92 0 175 56.5t118 154.5h111q-23 -70 -67 -126t-101 -95t-123 -59.5t-133 -20.5q-166 0 -256 94t-90 242z" />
<glyph unicode="&#xab;" d="M217 467l29 129l348 231l-29 -129l-248 -168l179 -163l-27 -127zM594 467l29 129l348 231l-29 -129l-248 -168l178 -163l-26 -127z" />
<glyph unicode="&#xad;" horiz-adv-x="681" d="M102 451l29 122h516l-26 -122h-519z" />
<glyph unicode="&#xae;" horiz-adv-x="1638" d="M27 578q0 178 79.5 346t213 299t306.5 210.5t361 79.5q139 0 255 -46t198 -128t127 -194.5t45 -243.5q0 -125 -38 -242.5t-103.5 -222t-156.5 -192.5t-197.5 -150.5t-224.5 -97.5t-237 -35q-141 0 -256.5 47t-198.5 129t-128 194.5t-45 246.5zM150 584q0 -115 36.5 -210 t105 -164t166 -108t220.5 -39q160 0 306 68t259 181.5t179.5 264t66.5 316.5q0 113 -37 207t-104.5 163.5t-165 108.5t-217.5 39q-168 0 -316.5 -69.5t-259 -185.5t-175 -265.5t-64.5 -306.5zM440 305l185 866h379q145 0 205.5 -44t60.5 -121q0 -76 -26.5 -132.5t-73 -94.5 t-105.5 -56t-125 -18l176 -400h-127l-162 400h-194l-86 -400h-107zM649 788h240q49 0 96 8.5t84 31t59.5 60.5t22.5 97q0 37 -16.5 58.5t-43 34t-60.5 15.5t-68 3h-248z" />
<glyph unicode="&#xbb;" d="M170 240l27 129l247 168l-178 163l29 127l250 -227l-27 -129zM547 240l26 129l248 168l-178 163l29 127l250 -227l-27 -129z" />
<glyph unicode="&#x401;" horiz-adv-x="1251" d="M53 0l316 1475h981l-27 -119h-842l-108 -514h760l-25 -119h-760l-129 -604h862l-26 -119h-1002zM649 1610l39 180h123l-39 -180h-123zM975 1610l39 180h123l-39 -180h-123z" />
<glyph unicode="&#x402;" horiz-adv-x="1593" d="M205 1356l26 119h1074l-27 -119h-467l-111 -527q18 2 57.5 4.5t85.5 4.5t88 3t66 1q133 0 222.5 -25.5t143.5 -68.5t76.5 -102.5t22.5 -127.5q0 -119 -42 -214t-118.5 -162.5t-186 -104.5t-245.5 -37h-170l27 119h98q135 0 230.5 26.5t154 75.5t85 117t26.5 149 q0 55 -18.5 99.5t-62.5 75t-118.5 46t-187.5 15.5q-37 0 -76 -1t-74.5 -4t-64.5 -6t-45 -5l-152 -707h-139l289 1356h-467z" />
<glyph unicode="&#x403;" horiz-adv-x="1153" d="M53 0l316 1475h950l-27 -119h-811l-288 -1356h-140zM778 1614l342 340h189l-408 -340h-123z" />
<glyph unicode="&#x404;" horiz-adv-x="1478" d="M127 483q0 82 15.5 190.5t53 223.5t102 225.5t163 197.5t232.5 140t315 53q229 0 350 -114.5t121 -351.5h-144q0 188 -100 268t-291 80q-123 0 -227.5 -46t-185 -123t-136 -176.5t-78.5 -207.5h631l-24 -119h-631q-25 -115 -25 -217q0 -90 21.5 -168t71 -135.5t127 -90 t190.5 -32.5q94 0 178 30.5t154.5 85t126 128t94.5 161.5h145q-47 -106 -114.5 -201.5t-159.5 -167t-211 -113.5t-266 -42q-135 0 -229.5 40t-154 109.5t-87 165t-27.5 207.5z" />
<glyph unicode="&#x405;" horiz-adv-x="1284" d="M53 319q0 29 4 59t11 62h135q-2 -14 -3 -34.5t-1 -32.5q0 -80 26.5 -135.5t72.5 -91t110.5 -51t142.5 -15.5q109 0 191.5 30.5t139 82t85 117t28.5 136.5q0 86 -56 132.5t-140 75t-182.5 50t-182.5 56.5t-140 95t-56 167q0 92 38.5 180t114.5 158t186.5 111.5t253.5 41.5 q106 0 184.5 -25.5t129.5 -70.5t75.5 -107.5t24.5 -133.5q0 -51 -12 -103h-133q8 39 8 78q0 63 -23.5 109.5t-65.5 76t-97.5 44t-116.5 14.5q-111 0 -193 -33t-134 -82t-77.5 -109.5t-25.5 -115.5q0 -63 32.5 -103.5t87 -66t123 -42t141 -33.5t141.5 -37.5t123 -56.5 t87 -89.5t33 -134.5q0 -115 -45 -211.5t-128 -168t-203 -111.5t-267 -40q-100 0 -182 22.5t-140.5 66.5t-91.5 111.5t-33 157.5z" />
<glyph unicode="&#x406;" horiz-adv-x="471" d="M53 0l316 1475h139l-315 -1475h-140z" />
<glyph unicode="&#x407;" horiz-adv-x="471" d="M53 0l316 1475h139l-315 -1475h-140zM231 1610l39 180h123l-39 -180h-123zM580 1610l38 180h123l-39 -180h-122z" />
<glyph unicode="&#x408;" horiz-adv-x="1024" d="M14 256q0 49 7.5 102.5t19.5 108.5h139q-10 -47 -18 -95t-8 -91q0 -41 9 -76t33.5 -61.5t65.5 -41t105 -14.5q143 0 217.5 82t109.5 238l228 1067h139l-230 -1072q-45 -215 -168.5 -328.5t-338.5 -113.5q-90 0 -149.5 22.5t-95.5 62.5t-50.5 93.5t-14.5 116.5z" />
<glyph unicode="&#x409;" horiz-adv-x="2107" d="M-78 -12l23 112q23 -4 48 -7t46 -3q72 0 145.5 173t155.5 558l139 654h844l-133 -633h350q90 0 172 -16.5t143.5 -53.5t98.5 -98.5t37 -153.5q0 -66 -22.5 -155t-87 -170.5t-180.5 -138t-302 -56.5h-529l289 1356h-565l-137 -639q-43 -201 -89 -342.5t-99.5 -231.5 t-113 -131t-128.5 -41q-29 0 -51.5 3t-53.5 14zM1034 119h318q154 0 251 32.5t151 86t73.5 121t19.5 137.5q0 68 -27.5 110.5t-77.5 69t-119 37t-150 10.5h-310z" />
<glyph unicode="&#x40a;" horiz-adv-x="2131" d="M53 0l316 1475h139l-135 -633h698l135 633h140l-136 -633h351q90 0 172 -16.5t143 -53.5t98 -98.5t37 -153.5q0 -66 -22.5 -155t-87 -170.5t-180 -138t-302.5 -56.5h-528l156 723h-699l-155 -723h-140zM1057 119h317q154 0 251 32.5t151.5 86t74 121t19.5 137.5 q0 68 -27.5 110.5t-78 69t-119 37t-150.5 10.5h-309z" />
<glyph unicode="&#x40b;" horiz-adv-x="1593" d="M205 1356l26 119h1074l-27 -119h-467l-111 -527q18 2 57.5 4.5t85.5 4.5t88 3t66 1q133 0 222.5 -24.5t143.5 -67.5t76.5 -102.5t22.5 -129.5q0 -53 -12 -110l-88 -408h-139l86 403q6 27 9 55.5t3 39.5q0 123 -96.5 174t-298.5 51q-37 0 -75 -1t-72 -4t-61.5 -6t-43.5 -5 l-152 -707h-139l289 1356h-467z" />
<glyph unicode="&#x40c;" horiz-adv-x="1357" d="M53 0l316 1475h139l-160 -744l891 744h182l-706 -588l493 -887h-170l-442 801l-281 -232l-122 -569h-140zM739 1610l342 340h189l-408 -340h-123z" />
<glyph unicode="&#x40e;" horiz-adv-x="1187" d="M123 -29l24 117q10 -4 32 -6t44 -2q68 0 107 24.5t78 79.5l41 60l-246 1231h145l211 -1067l678 1067h154l-834 -1285q-41 -66 -80 -108.5t-80 -70t-87 -39t-103 -11.5q-49 0 -84 10zM637 1855q0 6 1 21.5t3 26.5h80q0 -86 47 -126t133 -40t149.5 40t104.5 126h76 q-41 -129 -137.5 -193.5t-223.5 -64.5q-111 0 -172 55t-61 155z" />
<glyph unicode="&#x40f;" horiz-adv-x="1482" d="M53 0l316 1475h139l-289 -1356h873l292 1356h140l-316 -1475h-508l-71 -338h-140l72 338h-508z" />
<glyph unicode="&#x410;" horiz-adv-x="1333" d="M-102 0l895 1475h157l250 -1475h-143l-70 463h-672l-274 -463h-143zM387 582h578l-125 774z" />
<glyph unicode="&#x411;" horiz-adv-x="1294" d="M53 0l316 1475h913l-27 -119h-774l-108 -514h350q90 0 172 -16.5t143.5 -53.5t98.5 -98.5t37 -153.5q0 -66 -23 -155t-87.5 -170.5t-180 -138t-301.5 -56.5h-529zM219 119h318q154 0 251 32.5t151 86t73.5 121t19.5 137.5q0 68 -27.5 110.5t-77.5 69t-119 37t-151 10.5 h-309z" />
<glyph unicode="&#x412;" horiz-adv-x="1357" d="M53 0l316 1475h532q111 0 189.5 -19.5t128 -55.5t73 -87t23.5 -115q0 -92 -29 -164.5t-75 -126t-101 -84t-109 -37.5v-4q121 -18 178.5 -88.5t57.5 -177.5q0 -43 -9 -97t-33 -111.5t-64.5 -113t-105 -98.5t-156 -69.5t-214.5 -26.5h-602zM219 119h354q115 0 202 10 t149.5 42t102.5 90t60 155q4 23 7.5 43t3.5 39q0 63 -28 104t-78 63.5t-120.5 31t-156.5 8.5h-371zM369 823h352q156 0 246 40t136 96.5t58.5 116t12.5 98.5q0 98 -87.5 140t-283.5 42h-322z" />
<glyph unicode="&#x413;" horiz-adv-x="1153" d="M53 0l316 1475h950l-27 -119h-811l-288 -1356h-140z" />
<glyph unicode="&#x414;" horiz-adv-x="1458" d="M-123 -338l96 457h109q61 88 109.5 164.5t89.5 168t76.5 208t70.5 282.5l113 533h923l-288 -1356h112l-96 -457h-139l71 338h-1036l-72 -338h-139zM227 119h809l264 1237h-645l-100 -471q-29 -131 -61.5 -237.5t-73.5 -198t-89 -172t-104 -158.5z" />
<glyph unicode="&#x415;" horiz-adv-x="1251" d="M53 0l316 1475h981l-27 -119h-842l-108 -514h760l-25 -119h-760l-129 -604h862l-26 -119h-1002z" />
<glyph unicode="&#x416;" horiz-adv-x="2045" d="M-102 0l827 858l-430 617h164l524 -762l164 762h139l-164 -762l852 762h164l-692 -617l459 -858h-160l-412 764l-246 -219l-116 -545h-140l117 545l-151 219l-740 -764h-159z" />
<glyph unicode="&#x417;" horiz-adv-x="1304" d="M72 324q0 51 12 116h135q-2 -12 -3 -37.5t-1 -40.5q0 -156 90 -219t262 -63q129 0 220.5 31.5t148.5 85t84 123t27 145.5q0 117 -78 187.5t-228 70.5h-120l24 119h90q111 0 188.5 31.5t127 81t72 109.5t22.5 118q0 55 -25.5 95t-69.5 65.5t-103.5 38t-127.5 12.5 q-74 0 -142.5 -17.5t-124.5 -56.5t-98 -100.5t-61 -147.5h-137q20 98 69.5 180t125 139.5t175 89t220.5 31.5q98 0 180 -18t140.5 -55t91 -93.5t32.5 -130.5q0 -61 -19.5 -124.5t-58 -122t-98 -108.5t-139.5 -81q109 -33 161 -113.5t52 -179.5q0 -68 -27.5 -158.5 t-100.5 -171.5t-199 -137.5t-324 -56.5q-104 0 -189.5 22.5t-147 67.5t-95 112.5t-33.5 160.5z" />
<glyph unicode="&#x418;" horiz-adv-x="1484" d="M53 0l316 1475h139l-275 -1289h5l1126 1289h158l-316 -1475h-139l274 1286h-4l-1122 -1286h-162z" />
<glyph unicode="&#x419;" horiz-adv-x="1484" d="M53 0l316 1475h139l-272 -1289h4l1124 1289h160l-316 -1475h-139l274 1286h-4l-1122 -1286h-164zM752 1855q0 6 1 21.5t3 26.5h80q0 -86 47 -126t133 -40t149.5 40t104.5 126h76q-41 -129 -137.5 -193.5t-223.5 -64.5q-111 0 -172 55t-61 155z" />
<glyph unicode="&#x41a;" horiz-adv-x="1357" d="M53 0l316 1475h139l-160 -744l891 744h182l-706 -588l493 -887h-170l-442 801l-281 -232l-122 -569h-140z" />
<glyph unicode="&#x41b;" horiz-adv-x="1421" d="M-78 -12l23 112q23 -4 48 -7t46 -3q72 0 145.5 173t155.5 558l139 654h983l-315 -1475h-139l288 1356h-702l-137 -639q-43 -201 -89 -342.5t-99.5 -231.5t-113 -131t-128.5 -41q-29 0 -51.5 3t-53.5 14z" />
<glyph unicode="&#x41c;" horiz-adv-x="1718" d="M53 0l316 1475h213l206 -1301h5l751 1301h211l-315 -1475h-140l281 1315h-4l-764 -1315h-131l-205 1315h-4l-280 -1315h-140z" />
<glyph unicode="&#x41d;" horiz-adv-x="1482" d="M53 0l316 1475h139l-135 -633h872l135 633h140l-316 -1475h-139l156 723h-873l-155 -723h-140z" />
<glyph unicode="&#x41e;" horiz-adv-x="1591" d="M127 516q0 190 64.5 369.5t179 320t275.5 224t351 83.5q141 0 246 -41.5t173.5 -115.5t101 -175.5t32.5 -222.5q0 -190 -63.5 -370t-178 -319.5t-277.5 -223.5t-359 -84q-139 0 -241.5 42t-170 116t-100.5 175t-33 222zM268 532q0 -96 24.5 -179t77 -143t134.5 -95 t196 -35q170 0 302.5 76.5t222.5 199.5t137 276.5t47 307.5q0 217 -111.5 336t-322.5 119q-178 0 -311.5 -82t-220.5 -209t-131 -278.5t-44 -293.5z" />
<glyph unicode="&#x41f;" horiz-adv-x="1482" d="M53 0l316 1475h1151l-316 -1475h-139l289 1356h-873l-288 -1356h-140z" />
<glyph unicode="&#x420;" horiz-adv-x="1294" d="M53 0l316 1475h528q119 0 199 -22.5t128 -62.5t68.5 -94.5t20.5 -117.5q0 -154 -56.5 -255.5t-146.5 -162t-202.5 -85t-227.5 -24.5h-348l-139 -651h-140zM356 770h308q111 0 204 17.5t160.5 61.5t105 118.5t37.5 189.5q0 63 -25.5 102t-75.5 60.5t-125 29t-173 7.5h-291 z" />
<glyph unicode="&#x421;" horiz-adv-x="1488" d="M127 483q0 84 15.5 192.5t54.5 223.5t103.5 225.5t161.5 196.5t232 139t314 53q229 0 350 -112.5t121 -353.5h-144q0 184 -101 266t-290 82q-160 0 -286 -79t-213 -205t-132 -283.5t-45 -315.5q0 -90 20.5 -169t69 -137.5t127 -92t193.5 -33.5q94 0 178 30.5t154.5 85 t126 128t94.5 161.5h145q-47 -106 -114.5 -201.5t-159.5 -167t-211 -113.5t-266 -42q-135 0 -229.5 40t-154 109.5t-87 165t-27.5 207.5z" />
<glyph unicode="&#x422;" d="M205 1356l26 119h1074l-27 -119h-467l-289 -1356h-139l289 1356h-467z" />
<glyph unicode="&#x423;" horiz-adv-x="1187" d="M123 -29l24 117q10 -4 32 -6t44 -2q68 0 107 24.5t78 79.5l41 60l-246 1231h145l211 -1067l678 1067h154l-834 -1285q-41 -66 -80 -108.5t-80 -70t-87 -39t-103 -11.5q-49 0 -84 10z" />
<glyph unicode="&#x424;" horiz-adv-x="1720" d="M139 596q0 147 57.5 283.5t156 241t230.5 166t281 61.5h101l28 127h140l-29 -127h100q111 0 199 -35t147.5 -96.5t91 -146.5t31.5 -185q0 -154 -58.5 -289t-157.5 -235.5t-230 -158t-277 -57.5h-100l-33 -145h-139l33 145h-101q-111 0 -198.5 33t-148 92.5t-92.5 142.5 t-32 183zM281 621q0 -78 22.5 -143.5t67.5 -113t112.5 -74t155.5 -26.5h96l205 965h-96q-119 0 -221.5 -49.5t-178 -132t-119.5 -193.5t-44 -233zM874 264h97q119 0 222 50.5t179 134t119 194.5t43 234q0 156 -91 254t-267 98h-97z" />
<glyph unicode="&#x425;" horiz-adv-x="1251" d="M-76 0l670 758l-334 717h162l270 -621l539 621h162l-637 -717l344 -758h-160l-291 651l-567 -651h-158z" />
<glyph unicode="&#x426;" horiz-adv-x="1482" d="M53 0l316 1475h139l-289 -1356h873l288 1356h140l-289 -1356h110l-96 -457h-139l72 338h-1125z" />
<glyph unicode="&#x427;" horiz-adv-x="1382" d="M260 969q0 31 4 63.5t12 71.5l80 371h140l-86 -398q-4 -23 -7.5 -43t-3.5 -39q0 -66 28 -105.5t79 -62t121.5 -31t156.5 -8.5q53 0 95.5 2.5t82 5.5t81.5 8t96 11l141 660h139l-315 -1475h-139l147 692q-51 -8 -112.5 -12t-124 -6t-125 -3t-117.5 -1q-174 0 -273.5 69.5 t-99.5 229.5z" />
<glyph unicode="&#x428;" horiz-adv-x="1978" d="M53 0l316 1475h139l-289 -1356h615l288 1356h140l-289 -1356h614l289 1356h139l-315 -1475h-1647z" />
<glyph unicode="&#x429;" horiz-adv-x="1978" d="M53 0l316 1475h139l-287 -1356h613l288 1356h140l-289 -1356h614l289 1356h139l-289 -1356h113l-96 -457h-139l71 338h-1622z" />
<glyph unicode="&#x42a;" horiz-adv-x="1419" d="M162 1356l26 119h445l-135 -633h350q90 0 172 -16.5t143.5 -53.5t98 -98.5t36.5 -153.5q0 -66 -22.5 -155t-87 -170.5t-180 -138t-301.5 -56.5h-529l289 1356h-305zM344 119h318q154 0 251 32.5t151 86t73.5 121t19.5 137.5q0 68 -27.5 110.5t-78 69t-119 37t-150.5 10.5 h-309z" />
<glyph unicode="&#x42b;" horiz-adv-x="1759" d="M53 0l316 1475h139l-135 -633h350q90 0 172 -16.5t143.5 -53.5t98.5 -98.5t37 -153.5q0 -66 -23 -155t-87.5 -170.5t-180 -138t-301.5 -56.5h-529zM219 119h318q154 0 251 32.5t151 86t73.5 121t19.5 137.5q0 68 -27.5 110.5t-77.5 69t-119 37t-151 10.5h-309zM1341 0 l316 1475h139l-315 -1475h-140z" />
<glyph unicode="&#x42c;" horiz-adv-x="1294" d="M53 0l316 1475h139l-135 -633h350q90 0 172 -16.5t143.5 -53.5t98.5 -98.5t37 -153.5q0 -66 -23 -155t-87.5 -170.5t-180 -138t-301.5 -56.5h-529zM219 119h318q154 0 251 32.5t151 86t73.5 121t19.5 137.5q0 68 -27.5 110.5t-77.5 69t-119 37t-151 10.5h-309z" />
<glyph unicode="&#x42d;" horiz-adv-x="1480" d="M90 485h146q0 -86 23.5 -159.5t71.5 -128t118.5 -86t166.5 -31.5q145 0 256 53t192 142.5t132 205t80 242.5h-631l25 119h630q2 16 3.5 42.5t1.5 43.5q0 98 -20.5 183t-67 148.5t-123 99.5t-187.5 36q-188 0 -322 -80t-216 -268h-144q86 229 264.5 347.5t407.5 118.5 q121 0 222.5 -28.5t174 -91t113.5 -160.5t41 -238q0 -96 -18.5 -210.5t-60.5 -229.5t-106.5 -222.5t-157.5 -189.5t-214 -132t-275 -50q-147 0 -248.5 42t-163 114.5t-88 168t-26.5 199.5z" />
<glyph unicode="&#x42e;" horiz-adv-x="2054" d="M53 0l316 1475h139l-135 -633h266q49 143 126 266t180.5 213t233.5 141t283 51q141 0 245.5 -41.5t173.5 -115.5t101.5 -175.5t32.5 -222.5q0 -190 -63.5 -370t-178 -319.5t-277.5 -223.5t-359 -84q-137 0 -239.5 41t-171.5 112.5t-102.5 172t-33.5 221.5q0 100 24 215 h-266l-155 -723h-140zM733 532q0 -96 24.5 -179t77 -143t134 -95t196.5 -35q170 0 302 75.5t222.5 198.5t137.5 276.5t47 309.5q0 217 -111.5 336t-322.5 119q-168 0 -299 -78t-222.5 -202t-138.5 -277.5t-47 -305.5z" />
<glyph unicode="&#x42f;" horiz-adv-x="1294" d="M-66 0l568 664q-61 10 -114.5 31.5t-92.5 56t-61.5 85t-22.5 119.5q0 59 21.5 147.5t86 171.5t180 141.5t304.5 58.5h528l-315 -1475h-139l139 651h-365l-551 -651h-166zM350 977q0 -66 28 -106t78 -62.5t120.5 -30.5t156.5 -8h307l125 586h-323q-164 0 -261.5 -34 t-148.5 -88t-66.5 -122t-15.5 -135z" />
<glyph unicode="&#x430;" horiz-adv-x="1142" d="M37 205q0 68 23.5 131t76.5 115.5t138 90.5t208 54l242 31q104 14 140 63t36 129q0 72 -51 116t-172 44q-127 0 -221.5 -51t-139.5 -189h-124q27 94 76.5 161t117.5 109t148.5 61.5t166.5 19.5q70 0 129.5 -12.5t103.5 -41t68.5 -73.5t24.5 -113q0 -20 -3 -43t-7 -47 l-123 -578q-4 -14 -6 -29.5t-2 -25.5q0 -45 41 -45q12 0 32.5 5t45.5 13l-21 -96q-25 -8 -54.5 -14t-45.5 -6q-66 0 -95.5 22.5t-29.5 89.5q0 10 1 25.5t3 25.5h-4q-88 -86 -198.5 -131t-227.5 -45q-61 0 -115.5 14.5t-94.5 43t-63.5 72.5t-23.5 104zM170 231 q0 -78 57.5 -113.5t134.5 -35.5q74 0 147 18.5t136.5 56.5t108.5 96t63 138l35 166q-45 -23 -129 -38t-201 -21q-174 -10 -263 -84t-89 -183z" />
<glyph unicode="&#x431;" horiz-adv-x="1193" d="M76 379q0 94 24 205q27 131 69 263t110.5 241.5t170 188.5t248.5 105q94 18 161 31.5t109 28t63.5 31t25.5 40.5h129q-12 -53 -50 -90t-98.5 -63.5t-138.5 -45t-168 -34.5q-78 -14 -142.5 -41t-116.5 -74t-96 -115.5t-81 -164.5h4q72 92 172 148.5t236 56.5 q98 0 170.5 -30t119.5 -82t70 -124t23 -158q0 -154 -50.5 -287t-136.5 -230t-200.5 -152.5t-241.5 -55.5q-197 0 -291 111t-94 297zM207 403q0 -68 16.5 -127t51 -102t86.5 -67.5t124 -24.5q117 0 206 56.5t148.5 143.5t89 194.5t29.5 209.5q0 129 -65.5 211t-216.5 82 q-115 0 -202 -51t-146.5 -133t-90 -184.5t-30.5 -207.5z" />
<glyph unicode="&#x432;" horiz-adv-x="1069" d="M35 0l225 1061h494q59 0 103 -16.5t72.5 -44t43 -63.5t14.5 -73q0 -55 -17.5 -103t-48 -88t-71.5 -69t-86 -43q70 -20 117 -70.5t47 -130.5q0 -72 -30 -137t-81 -114.5t-119.5 -79t-148.5 -29.5h-514zM180 102h342q63 0 114.5 19.5t86.5 53.5t54.5 78t19.5 93 q0 86 -65.5 121t-158.5 35h-309zM287 604h315q45 0 91 13.5t83 41t60.5 69.5t23.5 99q0 72 -53 101.5t-158 29.5h-289z" />
<glyph unicode="&#x433;" horiz-adv-x="827" d="M35 0l225 1061h655l-22 -103h-533l-202 -958h-123z" />
<glyph unicode="&#x434;" horiz-adv-x="1132" d="M-104 -276l79 378h95q59 78 102 160t72.5 163t50 161t37.5 153l69 322h703l-205 -959h107l-80 -378h-123l57 276h-784l-58 -276h-122zM201 102h575l182 856h-458l-49 -233q-18 -86 -39 -164t-48.5 -152.5t-66.5 -150.5t-96 -156z" />
<glyph unicode="&#x435;" horiz-adv-x="1150" d="M78 350q0 141 47 274.5t130 237t198.5 166t251.5 62.5q176 0 271 -96.5t95 -286.5q0 -92 -24 -205h-824q-6 -33 -10 -63.5t-4 -59.5q0 -63 16.5 -117.5t51 -94.5t88 -62.5t124.5 -22.5q121 0 221.5 63.5t153.5 180.5h137q-39 -76 -89 -140.5t-115.5 -112.5t-147.5 -75 t-182 -27q-102 0 -176 28t-121 78t-69.5 119.5t-22.5 153.5zM246 604h692q12 55 12 105q0 117 -65.5 193.5t-202.5 76.5q-82 0 -150.5 -30.5t-124 -82t-96.5 -119t-65 -143.5z" />
<glyph unicode="&#x436;" horiz-adv-x="1503" d="M-100 0l561 643l-293 418h160l364 -524l111 524h123l-111 -524l586 524h160l-469 -418l286 -643h-139l-256 557l-201 -168l-82 -389h-122l81 389l-127 168l-493 -557h-139z" />
<glyph unicode="&#x437;" horiz-adv-x="1034" d="M29 274q0 14 1 29.5t3 28.5h121q-4 -20 -4 -35q0 -100 71.5 -157.5t200.5 -57.5q160 0 248 70.5t88 185.5q0 90 -62.5 133t-152.5 43h-109l23 102h133q37 0 80 16.5t79.5 46.5t61.5 71t25 92q0 66 -56.5 101.5t-179.5 35.5q-121 0 -194.5 -52.5t-126.5 -168.5h-119 q20 74 66 135t107.5 105t134.5 68t150 24q90 0 156 -18.5t108 -49.5t61.5 -72t19.5 -86q0 -59 -24 -109t-60.5 -89t-82.5 -63.5t-91 -33.5q80 -20 132 -77.5t52 -147.5q0 -88 -37 -157.5t-103.5 -116.5t-157.5 -73t-198 -26q-180 0 -272 80t-92 223z" />
<glyph unicode="&#x438;" horiz-adv-x="1159" d="M35 0l225 1061h123l-190 -897l796 897h135l-225 -1061h-123l191 897l-795 -897h-137z" />
<glyph unicode="&#x439;" horiz-adv-x="1159" d="M37 0l225 1061h123l-190 -897l796 897h135l-225 -1061h-123l191 897l-795 -897h-137zM473 1380q0 6 1 21.5t3 25.5h80q0 -86 47 -125.5t133 -39.5t149.5 39.5t104.5 125.5h76q-41 -129 -137 -193.5t-223 -64.5q-111 0 -172.5 55.5t-61.5 155.5z" />
<glyph unicode="&#x43a;" horiz-adv-x="1032" d="M35 0l225 1061h123l-107 -504l627 504h168l-479 -383l301 -678h-137l-273 592l-239 -191l-86 -401h-123z" />
<glyph unicode="&#x43b;" horiz-adv-x="1132" d="M-96 6l20 100q18 -4 41 -6t33 -2q78 0 127 107.5t92 300.5l123 555h735l-225 -1061h-123l205 958h-490l-43 -198q-12 -55 -26.5 -118.5t-29.5 -125t-31.5 -116t-28.5 -93.5q-53 -160 -123 -237.5t-168 -77.5q-20 0 -45 3t-43 11z" />
<glyph unicode="&#x43c;" horiz-adv-x="1329" d="M35 0l225 1061h160l162 -922l553 922h159l-225 -1061h-123l184 868h-2l-520 -868h-112l-154 868l-184 -868h-123z" />
<glyph unicode="&#x43d;" horiz-adv-x="1142" d="M41 0l225 1061h123l-94 -445h590l94 445h123l-225 -1061h-123l108 514h-590l-108 -514h-123z" />
<glyph unicode="&#x43e;" horiz-adv-x="1179" d="M80 367q0 133 43 263t125 232.5t198 165t263 62.5q100 0 174.5 -30t122 -82t71 -124t23.5 -158q0 -109 -37 -235.5t-115 -235t-196.5 -181.5t-280.5 -73q-86 0 -157.5 24.5t-124 75t-81 124t-28.5 172.5zM213 385q0 -139 69.5 -221t211.5 -82q117 0 205.5 56.5t149 144.5 t90.5 194.5t30 208.5q0 129 -65.5 211t-217.5 82q-115 0 -204 -54.5t-148.5 -140.5t-90 -191.5t-30.5 -207.5z" />
<glyph unicode="&#x43f;" horiz-adv-x="1130" d="M35 0l225 1061h836l-226 -1061h-122l202 958h-590l-202 -958h-123z" />
<glyph unicode="&#x440;" horiz-adv-x="1220" d="M-53 -418l313 1479h123l-39 -187h4q37 51 88 92.5t106.5 68t112 41t107.5 14.5q102 0 174 -28t118 -77t67.5 -118.5t21.5 -151.5q0 -133 -41 -266.5t-120 -240t-192.5 -172t-259.5 -65.5q-113 0 -206 50.5t-129 148.5l-125 -588h-123zM254 393q0 -66 17.5 -122t51 -98 t86 -66.5t123.5 -24.5q100 0 186.5 50t150 132t100.5 188.5t37 219.5q0 68 -16.5 124t-50.5 97t-87 63.5t-127 22.5q-86 0 -170 -43t-151.5 -120t-108.5 -185.5t-41 -237.5z" />
<glyph unicode="&#x441;" horiz-adv-x="1140" d="M78 354q0 133 44 264.5t126 235.5t197.5 170t259.5 66q184 0 273 -86t89 -277h-125q0 113 -68.5 182.5t-191.5 69.5q-121 0 -209 -60.5t-145.5 -149.5t-86 -192.5t-28.5 -187.5q0 -63 15.5 -118.5t48 -97.5t85 -66.5t127.5 -24.5q137 0 237.5 75.5t150.5 209.5h131 q-35 -88 -86.5 -161t-119 -125t-151.5 -81t-184 -29q-102 0 -176 28t-121 79t-69.5 121.5t-22.5 154.5z" />
<glyph unicode="&#x442;" horiz-adv-x="892" d="M119 958l22 103h836l-23 -103h-356l-203 -958h-123l203 958h-356z" />
<glyph unicode="&#x443;" horiz-adv-x="1003" d="M-72 -403l25 114q23 -4 47.5 -8t50.5 -4q31 0 58.5 12.5t58.5 45t67.5 90t86.5 145.5l-185 1069h137l146 -911l534 911h133l-618 -1047q-59 -100 -109.5 -180t-99.5 -136t-102.5 -86t-116.5 -30q-33 0 -61.5 4t-51.5 11z" />
<glyph unicode="&#x444;" horiz-adv-x="1781" d="M74 336q0 131 38 266t109.5 242.5t173 176.5t230.5 69q111 0 182.5 -54.5t97.5 -130.5l129 608h123l-129 -612q59 76 153.5 132.5t204.5 56.5q82 0 141.5 -29t97.5 -79t56.5 -118.5t18.5 -148.5q0 -135 -38 -268.5t-108.5 -239t-173 -171t-231.5 -65.5q-104 0 -175 43 t-106 140l-120 -572h-123l123 576q-147 -186 -361 -187q-84 0 -143.5 28t-97 76t-55 114.5t-17.5 146.5zM207 365q0 -59 12 -111.5t39 -90.5t70 -59.5t102 -21.5q94 0 171 57.5t131 144.5t83 192.5t29 203.5q0 63 -13.5 118.5t-41 95.5t-69.5 62.5t-99 22.5 q-68 0 -124.5 -28.5t-102.5 -77t-80.5 -111t-58.5 -131t-36 -137t-12 -129.5zM932 373q0 -61 12 -113.5t39 -92.5t70 -62.5t102 -22.5q94 0 171 56.5t130 143.5t82 193.5t29 206.5q0 59 -12.5 113.5t-39 95.5t-68.5 64.5t-101 23.5q-90 0 -166 -56.5t-131.5 -143.5 t-86 -194.5t-30.5 -211.5z" />
<glyph unicode="&#x445;" horiz-adv-x="1024" d="M-76 0l525 549l-267 512h152l203 -422l391 422h155l-491 -512l280 -549h-147l-223 459l-428 -459h-150z" />
<glyph unicode="&#x446;" horiz-adv-x="1146" d="M33 0l225 1061h123l-203 -959h590l203 959h123l-203 -959h106l-82 -381h-122l59 279h-819z" />
<glyph unicode="&#x447;" horiz-adv-x="1044" d="M158 707q0 39 8 77l59 277h123l-61 -291q-6 -25 -6 -47q0 -72 52 -111t144 -39q80 0 131 2.5t85 6.5t55.5 10t42.5 14l96 455h123l-226 -1061h-122l106 502q-78 -23 -161 -31t-175 -8q-57 0 -107.5 15.5t-87 46t-58 76.5t-21.5 106z" />
<glyph unicode="&#x448;" horiz-adv-x="1736" d="M35 0l225 1061h123l-203 -959h537l203 959h122l-202 -959h536l203 959h123l-225 -1061h-1442z" />
<glyph unicode="&#x449;" horiz-adv-x="1753" d="M35 0l225 1061h123l-205 -959h537l205 959h122l-204 -959h536l205 959h123l-205 -959h107l-82 -381h-123l59 279h-1423z" />
<glyph unicode="&#x44a;" horiz-adv-x="1103" d="M68 958l22 103h348l-94 -445h311q150 0 231 -66.5t81 -176.5q0 -74 -29 -141.5t-84 -119t-134 -82t-179 -30.5h-451l203 958h-225zM236 102h276q152 0 235.5 69t83.5 179q0 78 -57 121t-149 43h-303z" />
<glyph unicode="&#x44b;" horiz-adv-x="1435" d="M35 0l225 1061h123l-94 -445h311q150 0 230.5 -66.5t80.5 -176.5q0 -74 -28.5 -141.5t-84 -119t-134 -82t-179.5 -30.5h-450zM180 102h277q152 0 235.5 69t83.5 179q0 78 -57 121t-150 43h-303zM1053 0l225 1061h123l-225 -1061h-123z" />
<glyph unicode="&#x44c;" horiz-adv-x="1048" d="M35 0l225 1061h123l-94 -445h311q150 0 230.5 -66.5t80.5 -176.5q0 -74 -28.5 -141.5t-84 -119t-134 -82t-179.5 -30.5h-450zM180 102h277q152 0 235.5 69t83.5 179q0 78 -57 121t-150 43h-303z" />
<glyph unicode="&#x44d;" horiz-adv-x="1136" d="M59 367h131q0 -137 63.5 -211t201.5 -74q92 0 166.5 37t132 98.5t95.5 139t54 157.5h-422l23 102h416q2 12 3 31t1 31q0 59 -15.5 113.5t-49.5 96.5t-86 66.5t-126 24.5q-123 0 -217 -66.5t-154 -185.5h-124q66 164 199.5 263.5t318.5 99.5q98 0 170.5 -32t120 -88.5 t71 -131t23.5 -160.5q0 -123 -40 -248t-118 -227.5t-194.5 -167t-270.5 -64.5q-100 0 -171 29t-116 80t-65.5 123.5t-20.5 163.5z" />
<glyph unicode="&#x44e;" horiz-adv-x="1568" d="M35 0l225 1061h123l-94 -445h223q31 100 84 186.5t127 150t168 100.5t207 37q100 0 175 -30t122 -82t70.5 -124t23.5 -158q0 -131 -43 -261t-124 -232.5t-197.5 -167t-264.5 -64.5q-84 0 -155.5 23.5t-125 72t-84 121t-30.5 170.5q0 72 18 156h-217l-108 -514h-123z M602 385q0 -139 69.5 -221t211.5 -82q121 0 211 59.5t148 149.5t87 196.5t29 198.5q0 129 -65.5 211t-217.5 82q-123 0 -212 -60.5t-147.5 -149.5t-86 -193.5t-27.5 -190.5z" />
<glyph unicode="&#x44f;" horiz-adv-x="1048" d="M-20 0l366 463q-209 55 -209 225q0 49 19.5 112.5t68.5 122t135 98.5t220 40h434l-226 -1061h-122l96 453h-293l-352 -453h-137zM272 713q0 -78 58.5 -118t150.5 -40h303l84 403h-276q-147 0 -233.5 -64.5t-86.5 -180.5z" />
<glyph unicode="&#x451;" horiz-adv-x="1150" d="M78 350q0 141 47 274.5t130 237t198.5 166t251.5 62.5q176 0 271 -96.5t95 -286.5q0 -92 -24 -205h-824q-6 -33 -10 -63.5t-4 -59.5q0 -63 16.5 -117.5t51 -94.5t88 -62.5t124.5 -22.5q121 0 221.5 63.5t153.5 180.5h137q-39 -76 -89 -140.5t-115.5 -112.5t-147.5 -75 t-182 -27q-102 0 -176 28t-121 78t-69.5 119.5t-22.5 153.5zM246 604h692q12 55 12 105q0 117 -65.5 193.5t-202.5 76.5q-82 0 -150.5 -30.5t-124 -82t-96.5 -119t-65 -143.5zM514 1223l39 180h123l-39 -180h-123zM827 1223l39 180h123l-39 -180h-123z" />
<glyph unicode="&#x452;" horiz-adv-x="1136" d="M35 0l258 1208h-137l22 111h137l33 156h123l-33 -156h346l-22 -111h-346l-64 -295q84 72 176.5 124.5t202.5 52.5q152 0 231.5 -60.5t79.5 -214.5q0 -80 -24 -192q-53 -246 -120 -404t-151.5 -252t-191 -135t-236.5 -55l23 110q113 12 196 51t146.5 125.5t113.5 230.5 t97 368q8 39 13 73.5t5 63.5q0 90 -50 135t-175 45q-90 0 -158.5 -36t-118 -90t-81 -120.5t-43.5 -128.5l-129 -604h-123z" />
<glyph unicode="&#x453;" horiz-adv-x="827" d="M37 0l225 1061h656l-23 -103h-533l-202 -958h-123zM512 1178l258 256h143l-307 -256h-94z" />
<glyph unicode="&#x454;" horiz-adv-x="1140" d="M78 354q0 133 44 264.5t126 235.5t197.5 170t259.5 66q184 0 273 -86t89 -277h-125q0 117 -68.5 184.5t-191.5 67.5q-84 0 -153.5 -32t-124 -83t-92.5 -115.5t-58 -132.5h416l-23 -102h-422q-12 -66 -12 -125q0 -63 15.5 -118.5t49 -97.5t86 -66.5t125.5 -24.5 q137 0 237.5 75.5t150.5 209.5h131q-35 -88 -86.5 -161t-119 -125t-151.5 -81t-184 -29q-102 0 -176 28t-121 79t-69.5 121.5t-22.5 154.5z" />
<glyph unicode="&#x455;" horiz-adv-x="1007" d="M27 266q0 20 1 38t3 28h125q0 -137 62.5 -193.5t201.5 -56.5q68 0 124 18.5t97 50t64.5 73.5t23.5 89q0 70 -66.5 109t-209.5 63q-166 29 -237 88.5t-71 145.5q0 80 33 147.5t92.5 117.5t141.5 78t178 28q160 0 250 -67t90 -220v-47h-127v43q0 92 -64.5 136t-173.5 44 q-59 0 -110.5 -15.5t-89 -43t-60 -68.5t-22.5 -90q0 -37 20.5 -62.5t55 -45t80.5 -33t98 -25.5q57 -14 116.5 -32.5t105.5 -46.5t75.5 -69.5t29.5 -103.5q0 -90 -42 -159.5t-111.5 -117t-160.5 -72t-192 -24.5q-168 0 -249.5 84t-81.5 211z" />
<glyph unicode="&#x456;" horiz-adv-x="417" d="M35 0l225 1061h123l-225 -1061h-123zM309 1292l39 181h123l-39 -181h-123z" />
<glyph unicode="&#x457;" horiz-adv-x="417" d="M37 0l225 1061h123l-225 -1061h-123zM154 1249l39 181h122l-39 -181h-122zM449 1249l38 181h123l-39 -181h-122z" />
<glyph unicode="&#x458;" horiz-adv-x="450" d="M-188 -410l22 109q10 -2 27.5 -3t21.5 -1q72 0 103.5 38t48.5 109l258 1219h123l-256 -1202q-16 -72 -32.5 -124t-44.5 -86t-74 -50.5t-120 -16.5q-45 0 -77 8zM342 1292l39 181h123l-39 -181h-123z" />
<glyph unicode="&#x459;" horiz-adv-x="1687" d="M-96 6l20 100q18 -4 41 -6t33 -2q70 0 120 94.5t99 313.5l123 555h682l-94 -445h311q150 0 230.5 -66.5t80.5 -176.5q0 -74 -28.5 -141.5t-84 -119t-134 -82t-179.5 -30.5h-450l205 958h-437l-43 -198q-12 -55 -26.5 -118.5t-29.5 -125t-31.5 -116t-28.5 -93.5 q-53 -160 -123 -237.5t-168 -77.5q-20 0 -45 3t-43 11zM821 102h277q152 0 235.5 69t83.5 179q0 78 -57 121t-150 43h-303z" />
<glyph unicode="&#x45a;" horiz-adv-x="1710" d="M39 0l225 1061h123l-94 -445h532l95 445h122l-94 -445h312q150 0 230.5 -66.5t80.5 -176.5q0 -74 -29 -141.5t-84 -119t-134 -82t-179 -30.5h-451l109 514h-533l-108 -514h-123zM840 102h276q152 0 236 69t84 179q0 78 -57.5 121t-149.5 43h-303z" />
<glyph unicode="&#x45b;" horiz-adv-x="1136" d="M35 0l258 1208h-137l22 111h137l35 156h123l-35 -156h346l-22 -111h-346l-64 -295q90 78 180.5 127.5t200.5 49.5q145 0 226 -66t81 -205q0 -29 -3 -59.5t-11 -65.5l-149 -694h-123l147 692q12 57 12 103q0 92 -53 138t-172 46q-86 0 -153.5 -34t-118.5 -89t-84 -127 t-49 -147l-125 -582h-123z" />
<glyph unicode="&#x45c;" horiz-adv-x="1032" d="M37 0l225 1061h123l-109 -504l627 504h168l-479 -383l301 -678h-137l-273 592l-239 -191l-84 -401h-123zM604 1178l258 256h144l-308 -256h-94z" />
<glyph unicode="&#x45e;" horiz-adv-x="1003" d="M-72 -403l25 114q23 -4 47.5 -8t50.5 -4q31 0 58.5 12.5t58.5 45t67.5 90t86.5 145.5l-185 1069h137l146 -911l534 911h133l-618 -1047q-59 -100 -109.5 -180t-99.5 -136t-102.5 -86t-116.5 -30q-33 0 -61.5 4t-51.5 11zM424 1380q0 6 1 21.5t3 25.5h80q0 -86 47 -125.5 t133 -39.5t149.5 39.5t104.5 125.5h76q-41 -129 -137.5 -193.5t-223.5 -64.5q-111 0 -172 55.5t-61 155.5z" />
<glyph unicode="&#x45f;" horiz-adv-x="1130" d="M35 0l225 1061h123l-205 -959h590l205 959h123l-228 -1061h-356l-59 -279h-123l59 279h-354z" />
<glyph unicode="&#x490;" horiz-adv-x="1153" d="M53 0l316 1475h811l55 266h139l-82 -385h-811l-288 -1356h-140z" />
<glyph unicode="&#x491;" horiz-adv-x="827" d="M35 0l225 1061h533l41 199h122l-63 -302h-533l-202 -958h-123z" />
<glyph unicode="&#x2000;" horiz-adv-x="977" />
<glyph unicode="&#x2001;" horiz-adv-x="1954" />
<glyph unicode="&#x2002;" horiz-adv-x="977" />
<glyph unicode="&#x2003;" horiz-adv-x="1954" />
<glyph unicode="&#x2004;" horiz-adv-x="651" />
<glyph unicode="&#x2005;" horiz-adv-x="488" />
<glyph unicode="&#x2006;" horiz-adv-x="325" />
<glyph unicode="&#x2007;" horiz-adv-x="325" />
<glyph unicode="&#x2008;" horiz-adv-x="244" />
<glyph unicode="&#x2009;" horiz-adv-x="390" />
<glyph unicode="&#x200a;" horiz-adv-x="108" />
<glyph unicode="&#x2010;" horiz-adv-x="681" d="M102 451l29 122h516l-26 -122h-519z" />
<glyph unicode="&#x2011;" horiz-adv-x="681" d="M102 451l29 122h516l-26 -122h-519z" />
<glyph unicode="&#x2012;" horiz-adv-x="681" d="M102 451l29 122h516l-26 -122h-519z" />
<glyph unicode="&#x2013;" horiz-adv-x="1024" d="M-12 451l24 122h1024l-24 -122h-1024z" />
<glyph unicode="&#x2014;" horiz-adv-x="2048" d="M-12 451l24 122h2048l-24 -122h-2048z" />
<glyph unicode="&#x2018;" horiz-adv-x="454" d="M92 1014l51 241q20 90 73.5 144.5t123.5 75.5l-16 -76q-29 -16 -56.5 -45t-42.5 -90l-14 -70h70l-39 -180h-150z" />
<glyph unicode="&#x2019;" horiz-adv-x="454" d="M115 1014l16 76q29 16 56.5 44.5t41.5 90.5l15 69h-70l39 181h149l-51 -242q-20 -90 -73.5 -144.5t-122.5 -74.5z" />
<glyph unicode="&#x201a;" horiz-adv-x="569" d="M160 -281l16 76q29 16 56.5 45t41.5 90l15 70h-70l39 180h150l-52 -241q-20 -90 -73.5 -144.5t-122.5 -75.5z" />
<glyph unicode="&#x201c;" horiz-adv-x="796" d="M127 1014l51 241q20 90 73.5 144.5t123.5 75.5l-17 -76q-29 -16 -56.5 -45t-41.5 -90l-14 -70h69l-39 -180h-149zM436 1014l51 241q20 90 73.5 144.5t123.5 75.5l-16 -76q-29 -16 -56.5 -45t-42.5 -90l-14 -70h70l-39 -180h-150z" />
<glyph unicode="&#x201d;" horiz-adv-x="796" d="M113 1014l16 76q29 16 56.5 44.5t41.5 90.5l15 69h-70l39 181h149l-51 -242q-20 -90 -73.5 -144.5t-122.5 -74.5zM422 1014l16 76q29 16 56.5 44.5t42.5 90.5l14 69h-70l39 181h150l-52 -242q-20 -90 -73 -144.5t-123 -74.5z" />
<glyph unicode="&#x201e;" horiz-adv-x="796" d="M113 -281l16 76q29 16 56.5 45t41.5 90l15 70h-70l39 180h149l-51 -241q-20 -90 -73.5 -144.5t-122.5 -75.5zM422 -281l16 76q29 16 56.5 45t42.5 90l14 70h-70l39 180h150l-52 -241q-20 -90 -73 -144.5t-123 -75.5z" />
<glyph unicode="&#x2026;" horiz-adv-x="2048" d="M250 0l37 180h149l-37 -180h-149zM932 0l37 180h149l-37 -180h-149zM1614 0l37 180h149l-37 -180h-149z" />
<glyph unicode="&#x202f;" horiz-adv-x="390" />
<glyph unicode="&#x2039;" horiz-adv-x="796" d="M233 467l29 129l348 231l-28 -129l-248 -168l178 -163l-27 -127z" />
<glyph unicode="&#x203a;" horiz-adv-x="796" d="M188 240l27 129l248 168l-178 163l28 127l250 -227l-26 -129z" />
<glyph unicode="&#x205f;" horiz-adv-x="488" />
<glyph unicode="&#x2122;" horiz-adv-x="1925" d="M133 1393l19 82h655l-19 -82h-274l-166 -781h-106l166 781h-275zM782 612l185 863h196l111 -637h4l377 637h196l-184 -863h-106l163 772h-4l-460 -772h-70l-133 772h-4l-164 -772h-107z" />
<glyph unicode="&#xe000;" horiz-adv-x="1064" d="M0 0v1065h1065v-1065h-1065z" />
</font>
</defs>
</svg>
